<svg width="141" height="22" viewBox="0 0 141 22" fill="none" xmlns="http://www.w3.org/2000/svg">
<path d="M24.8059 21.0425C24.6755 21.0425 24.545 21.0726 24.4246 21.0225C21.0935 19.7281 17.6619 18.9455 14.0298 18.7549C14.0298 14.3702 14.0298 10.0055 14.0298 5.6409C13.9796 5.63087 13.9395 5.62084 13.8893 5.6108C12.1234 10.0657 10.3575 14.5207 8.5815 19.0057C5.79214 19.3669 3.12319 20.1295 0.394043 21.183C4.51787 14.32 8.56143 7.58743 12.6451 0.804688C13.789 2.72111 14.9027 4.58737 16.0164 6.4436C18.8459 11.1795 21.6754 15.9053 24.5149 20.6412C24.5952 20.7817 24.7056 20.9121 24.8059 21.0425C24.7959 21.0425 24.8059 21.0425 24.8059 21.0425Z" fill="#002560"/>
<path d="M124.892 20.7821C124.892 14.5612 124.892 8.42061 124.892 2.23989C125.002 2.21982 125.113 2.17969 125.223 2.17969C127.29 2.18972 129.367 2.14959 131.434 2.24992C133.561 2.35026 135.548 2.96231 137.244 4.30682C139.12 5.7918 140.043 7.79853 140.294 10.1364C140.504 12.0227 140.334 13.8789 139.511 15.6248C138.116 18.5646 135.658 20.1098 132.548 20.5613C130.842 20.8021 129.086 20.7319 127.35 20.7821C126.548 20.8021 125.745 20.7821 124.892 20.7821ZM128.173 17.6817C129.367 17.6817 130.541 17.772 131.695 17.6616C134.364 17.4007 136.26 15.8455 136.852 13.4575C137.053 12.6448 137.123 11.7719 137.083 10.929C136.993 9.0126 136.24 7.39718 134.575 6.32358C132.598 5.04931 130.38 5.20985 128.173 5.24998C128.173 9.43401 128.173 13.5779 128.173 17.6817Z" fill="#002560"/>
<path d="M117.968 2.19922C119.072 2.19922 120.115 2.19922 121.209 2.19922C121.219 2.37982 121.239 2.54036 121.239 2.69087C121.239 5.9518 121.279 9.21274 121.219 12.4737C121.199 13.6978 121.058 14.952 120.737 16.136C119.925 19.0758 117.868 20.6511 114.878 21.0825C113.593 21.2631 112.309 21.233 111.035 20.9521C108.055 20.2899 106.148 18.233 105.627 15.0925C105.506 14.3399 105.426 13.5673 105.426 12.8048C105.406 9.44351 105.426 6.08224 105.436 2.72097C105.436 2.57046 105.436 2.41996 105.436 2.22932C106.51 2.22932 107.553 2.22932 108.677 2.22932C108.677 2.41996 108.677 2.6106 108.677 2.80124C108.677 6.06217 108.667 9.32311 108.687 12.584C108.697 13.2964 108.747 14.0289 108.918 14.7212C109.49 17.1794 111.456 18.4939 113.965 18.1527C116.403 17.8216 117.868 16.136 117.948 13.4068C118.018 10.8984 117.978 8.38998 117.978 5.88157C117.968 4.66749 117.968 3.46346 117.968 2.19922Z" fill="#002560"/>
<path d="M64.4887 20.7617C63.2947 20.7617 62.1609 20.7617 60.997 20.7617C60.4953 19.2567 60.0036 17.7517 59.4919 16.2265C57.0337 16.2265 54.5955 16.2265 52.0871 16.2265C51.5954 17.7215 51.0837 19.2366 50.582 20.7617C49.4282 20.7617 48.2944 20.7617 47.0903 20.7617C47.1505 20.5711 47.1907 20.4106 47.2509 20.24C49.0469 15.1931 50.8429 10.1361 52.669 5.08919C52.9299 4.3768 53.241 3.65438 53.6624 3.02226C54.746 1.39681 56.833 1.38678 57.9367 3.00219C58.2979 3.53398 58.5889 4.13599 58.8096 4.74805C60.6859 9.94547 62.5321 15.163 64.3883 20.3704C64.4184 20.4708 64.4385 20.5811 64.4887 20.7617ZM58.5889 13.4573C57.6558 10.6378 56.7527 7.88858 55.8497 5.13936C55.8096 5.13936 55.7795 5.14939 55.7393 5.14939C54.8363 7.89861 53.9232 10.6579 53.0001 13.4573C54.8764 13.4573 56.6925 13.4573 58.5889 13.4573Z" fill="#002560"/>
<path d="M102.556 5.18924C100.61 5.18924 98.6932 5.18924 96.7166 5.18924C96.7166 10.3967 96.7166 15.554 96.7166 20.7414C95.5928 20.7414 94.5293 20.7414 93.4055 20.7414C93.4055 15.5841 93.4055 10.4268 93.4055 5.20931C91.4389 5.20931 89.5225 5.20931 87.5659 5.20931C87.5659 4.17585 87.5659 3.20258 87.5659 2.19922C92.5627 2.19922 97.5594 2.19922 102.556 2.19922C102.556 3.21262 102.556 4.17585 102.556 5.18924Z" fill="#002560"/>
<path d="M68.7031 5.17086C66.7164 5.17086 64.8201 5.17086 62.8735 5.17086C62.8735 4.1675 62.8735 3.2143 62.8735 2.21094C67.8703 2.21094 72.857 2.21094 77.8638 2.21094C77.8638 3.1842 77.8638 4.1374 77.8638 5.1508C75.9173 5.1508 73.9908 5.1508 72.0142 5.1508C72.0142 10.3783 72.0142 15.5356 72.0142 20.7431C70.8904 20.7431 69.8168 20.7431 68.7031 20.7431C68.7031 15.5657 68.7031 10.3984 68.7031 5.17086Z" fill="#002560"/>
<path d="M33.1138 2.21094C34.1874 2.21094 35.2509 2.21094 36.3747 2.21094C36.3747 7.39833 36.3747 12.5657 36.3747 17.7832C39.0637 17.7832 41.6825 17.7832 44.3414 17.7832C44.3414 18.7865 44.3414 19.7397 44.3414 20.7431C40.6189 20.7431 36.8864 20.7431 33.1138 20.7431C33.1138 14.5523 33.1138 8.4017 33.1138 2.21094Z" fill="#002560"/>
<path d="M84.3156 20.7531C83.2018 20.7531 82.1583 20.7531 81.0747 20.7531C81.0747 14.5724 81.0747 8.41173 81.0747 2.21094C82.1483 2.21094 83.2219 2.21094 84.3156 2.21094C84.3156 8.4017 84.3156 14.5624 84.3156 20.7531Z" fill="#002560"/>
<path d="M24.7958 21.043C24.7857 21.0632 24.7655 21.0835 24.7958 21.043C24.7655 21.0835 24.7857 21.0632 24.7958 21.043C24.8059 21.043 24.7958 21.043 24.7958 21.043Z" fill="#002560"/>
</svg>
