<?xml version="1.0" encoding="UTF-8"?>
<svg width="487px" height="82px" viewBox="0 0 487 82" version="1.1" xmlns="http://www.w3.org/2000/svg" xmlns:xlink="http://www.w3.org/1999/xlink">
    <!-- Generator: Sketch 53.1 (72631) - https://sketchapp.com -->
    <title>barclays-logo-black</title>
    <desc>Created with Sketch.</desc>
    <g id="Projects" stroke="none" stroke-width="1" fill="none" fill-rule="evenodd">
        <g id="Index" transform="translate(-240.000000, -337.000000)" fill="#000000" fill-rule="nonzero">
            <path d="M725.346641,361.035852 C722.740923,356.293861 717.123979,352.697304 711.023042,352.697304 C705.657251,352.697304 700.937658,354.904103 700.937658,360.626018 C700.937658,365.444196 706.879008,368.712361 713.063664,372.718752 C719.813415,376.966841 726.81432,382.192226 726.81432,391.266374 C726.81432,403.114784 715.342359,410.384086 702.078313,410.384086 C696.626189,410.384086 690.933376,409.32272 684.505415,406.871597 L685.559737,391.100864 C688.654681,397.395496 694.433828,402.376557 702.970432,402.376557 C709.563212,402.376557 714.442392,399.192461 714.442392,393.633429 C714.442392,388.894065 710.452714,385.954293 705.576149,383.014521 C695.320714,376.806585 688.816884,371.817642 688.816884,362.832817 C688.816884,349.347698 700.042923,344.855285 711.677087,344.855285 C718.426838,344.855285 722.662438,346.08216 726.971291,346.08216 L725.346641,361.035852 Z M668.476064,375.167248 C667.00577,377.620999 665.143048,380.965351 663.99716,383.421728 C663.02394,388.077024 662.534714,394.290214 662.534714,401.149682 C662.534714,404.010639 663.02394,407.848894 664.324182,409.15721 L647.321612,409.15721 C650.327606,406.29888 651.551979,388.736436 651.392392,383.177404 C649.113697,375.253944 646.016137,367.653623 641.29916,358.419219 C638.295782,352.621117 634.792713,347.140899 632.59512,346.08216 C636.417363,345.759022 641.29916,345.512071 643.661572,345.512071 C647.889323,345.512071 649.032595,346.08216 651.638313,351.804075 C655.698628,361.038479 658.709855,367.976761 660.50194,373.128586 C664.816025,366.345306 667.824635,361.69001 671.730595,355.316564 C672.706431,353.763923 673.520064,351.804075 673.520064,349.923042 C673.520064,348.449215 673.274143,346.81776 672.62533,346.08216 L689.468313,346.08216 C686.213782,346.81776 671.565776,369.941863 668.476064,375.167248 Z M609.324176,360.875596 L599.238792,382.849011 L615.671035,382.849011 L609.324176,360.875596 Z M629.097284,409.7273 C623.723645,409.7273 623.320753,409.567044 619.006668,394.697421 L617.46312,389.222458 C614.862634,390.446706 610.21891,391.019423 602.81773,391.019423 L595.332831,391.019423 L594.029973,393.796312 C592.159402,397.968213 589.637402,402.862578 589.637402,406.301507 C589.637402,407.118548 589.718504,408.014404 590.045526,409.159837 L545.62013,409.159837 C548.144746,406.301507 548.958379,397.06973 550.17752,380.316447 L550.420825,376.315309 C551.072254,366.75514 551.566713,359.40177 551.480379,354.257826 C551.399277,350.009738 550.991153,347.311663 549.853113,346.087415 L567.02312,346.087415 C564.579605,347.968448 563.682255,358.09608 562.546831,374.849364 L562.219808,378.850501 C561.811684,385.061065 561.000667,391.431884 561.000667,397.642447 C561.000667,400.498151 562.138707,401.152309 565.071448,401.152309 C575.481238,401.152309 578.089572,400.907985 582.803933,397.721262 C585.731441,392.327739 589.072307,385.544459 592.321605,378.519481 L596.722024,369.124822 C600.868674,360.300252 604.934222,351.310173 604.934222,349.597276 C604.934222,348.367774 604.609815,347.227594 604.125821,346.08216 L617.792759,346.08216 C617.792759,346.08216 623.323369,366.673699 624.545126,371.082043 L627.226713,381.052046 C631.862589,397.802703 634.79533,405.970487 638.70129,409.15721 C635.441527,409.567044 630.805651,409.7273 629.097284,409.7273 Z M518.367356,410.384086 C502.175802,410.384086 492.817717,396.985662 492.817717,381.953156 C492.817717,361.038479 504.124858,344.855285 525.687435,344.855285 C532.439802,344.855285 535.615848,346.08216 541.06274,346.08216 L539.438091,362.178659 C536.345763,356.540812 531.299147,352.699931 524.549395,352.699931 C511.125763,352.699931 505.673638,367.246416 505.673638,379.746357 C505.673638,393.307663 513.242254,400.739848 523.327638,400.739848 C528.779763,400.739848 533.577842,399.268648 541.635684,393.633429 C538.381153,404.094708 530.812537,410.384086 518.367356,410.384086 Z M462.22931,353.763923 C460.683146,353.763923 458.807343,353.763923 457.347513,353.926806 C456.858287,356.622254 456.450163,361.280176 455.879835,368.793802 L455.552812,373.210028 C456.371677,373.375538 457.425999,373.459606 458.404451,373.459606 C466.21114,373.459606 471.584779,368.714988 471.584779,361.529755 C471.584779,356.622254 468.168045,353.763923 462.22931,353.763923 Z M484.924694,411.855285 C480.288818,411.855285 479.148163,411.117058 477.604615,408.9917 L460.029101,384.480466 C458.64514,382.60206 457.588202,381.049419 455.393225,381.049419 L454.9851,381.049419 L454.66331,385.788783 C454.252569,392.243671 454.009264,397.395496 454.009264,401.23375 C454.090366,405.481839 454.579592,408.093218 455.720248,409.15721 L438.715061,409.15721 C441.153343,406.950411 442.045461,399.597041 443.432038,380.313819 L443.677959,376.312682 C444.329389,366.836581 444.818615,359.480584 444.734897,354.33664 C444.651179,349.8416 444.167185,347.062084 442.942812,346.08216 C452.625304,346.08216 466.130038,346.08216 466.130038,346.08216 C473.696038,346.08216 484.111061,347.393104 484.111061,359.727535 C484.111061,369.855167 477.356078,375.4142 468.979061,378.025579 C469.792694,378.763806 471.25514,380.642212 472.152491,381.787646 L484.924694,398.782627 C492.898819,409.32272 493.547632,409.811369 496.399271,411.282568 C492.817717,411.689775 488.019638,411.855285 484.924694,411.855285 Z M405.685756,360.875596 L395.508806,382.849011 L412.024766,382.849011 L405.685756,360.875596 Z M425.451015,409.7273 C420.085225,409.7273 419.6771,409.567044 415.365631,394.697421 L413.819467,389.222458 C411.211133,390.446706 406.575258,391.019423 399.171461,391.019423 L391.686563,391.019423 L390.38632,393.796312 C389.083461,396.741338 385.910032,402.789018 385.991133,406.301507 C385.991133,407.118548 386.072235,407.935589 386.399258,409.159837 L371.348359,409.159837 C375.659828,404.830308 381.111953,394.78149 388.677953,378.522109 L393.07314,369.127449 C397.057586,360.631272 401.290569,350.989661 401.290569,349.599903 C401.290569,348.370401 400.968779,347.230221 400.476936,346.084787 L414.149106,346.084787 C414.149106,346.084787 417.722812,359.730163 420.898858,371.08467 L423.583061,381.054673 C428.221553,397.80533 431.149061,405.973114 435.055022,409.159837 C431.557185,409.567044 427.161999,409.7273 425.451015,409.7273 Z M347.993697,353.682482 C346.77194,353.682482 345.147291,353.682482 343.601127,353.847992 C342.949697,358.258963 342.541573,362.507052 342.219782,367.162347 C342.219782,367.162347 341.973861,371.163484 341.973861,371.000601 L343.601127,371.000601 C351.575251,371.000601 358.900563,368.223712 358.900563,360.875596 C358.900563,356.622254 355.40011,353.682482 347.993697,353.682482 Z M345.96354,378.682364 L341.489868,378.682364 L340.838438,387.995582 C340.514031,392.083415 340.349212,395.511835 340.26811,399.597041 C340.26811,400.172385 342.057579,401.396633 346.28533,401.396633 C355.073088,401.396633 360.852235,396.985662 360.852235,389.711106 C360.852235,381.622136 354.259455,378.682364 345.96354,378.682364 Z M346.939376,409.15721 L324.971291,409.15721 C327.739212,406.70346 328.471743,397.145918 329.690884,380.313819 L329.934189,376.394124 C330.588235,366.833954 331.074845,359.480584 330.993743,354.33664 C330.912641,349.923042 330.423415,347.062084 329.201658,346.08216 L353.772845,346.08216 C359.630478,346.08216 371.348359,346.410553 371.348359,358.663543 C371.348359,366.833954 363.779743,371.899084 356.865173,373.701303 C366.628766,374.681227 373.951461,379.417964 373.951461,389.548223 C373.948845,400.495523 363.698641,409.15721 346.939376,409.15721 Z M275.630301,337.0052 C275.790459,337.0052 275.961119,337.0052 276.152783,337 C278.765193,337.1014 280.860372,337.613597 282.580098,339.139791 C284.305076,340.626985 284.656898,344.27217 284.733039,345.897163 C284.830184,347.498757 284.775048,352.300937 286.455391,354.633127 C288.188246,357.056318 290.068131,357.758315 292.299837,357.758315 C292.814442,357.758315 293.352678,357.727115 293.906666,357.659515 C296.873523,357.305916 297.705818,355.569124 297.705818,355.569124 C297.705818,355.569124 295.216809,354.903526 295.216809,351.791339 C295.201056,349.695748 297.054685,347.740556 299.761614,346.934559 C300.630667,346.68756 301.581111,346.560161 302.57619,346.560161 C305.763592,346.560161 309.344825,347.880955 311.726187,350.987942 C317.1663,358.096313 317.604765,368.431271 316.276243,378.085031 C314.952972,387.754391 308.75933,396.680155 308.562415,396.940153 C308.452142,397.098753 308.326116,397.189752 308.207967,397.189752 C308.129201,397.189752 308.047809,397.153353 307.97692,397.080553 C305.298872,394.550763 302.77048,391.025178 301.678256,388.679987 C300.491513,389.579584 301.126893,391.534776 301.738643,393.648567 C302.376649,395.803958 303.878456,398.622347 304.372057,399.532343 C304.902416,400.416339 305.574553,401.471935 304.671369,402.015333 C304.571598,402.072532 304.450823,402.103732 304.298542,402.103732 C303.096046,402.103732 300.3051,400.041941 297.146579,395.887158 C293.628359,391.243577 291.824615,387.073194 291.824615,387.073194 C291.577814,387.171994 291.173482,387.564592 291.223367,388.752787 C291.241746,389.930582 292.528259,394.399964 294.933251,398.505347 C297.367124,402.63673 299.627712,405.234119 300.055674,405.795717 C300.32873,406.170115 300.097683,406.362515 299.916521,406.484714 C299.756363,406.619914 295.424226,410.626497 289.159695,414.001283 C281.734675,417.916867 278.450128,418.603264 278.450128,418.603264 C278.450128,418.603264 275.157705,417.898667 267.732685,413.980483 C261.465528,410.610897 257.15177,406.622514 256.973234,406.502914 C256.792072,406.365115 256.553148,406.151916 256.83408,405.811317 C257.288298,405.223719 259.541009,402.63933 261.980133,398.507947 C264.393002,394.373964 265.632256,389.933182 265.679515,388.739787 C265.750405,387.564592 265.319817,387.132994 265.062514,387.075794 C265.062514,387.075794 263.277149,391.220177 259.758929,395.889758 C256.616161,400.039341 253.798959,402.106332 252.601714,402.106332 C252.45731,402.106332 252.336535,402.075132 252.242016,402.017933 C251.30995,401.474535 252.003092,400.434539 252.520323,399.540143 C253.055932,398.624947 254.536735,395.788358 255.14586,393.651167 C255.786491,391.560776 256.395616,389.602984 255.229877,388.682587 C254.140279,391.027778 251.593508,394.535163 248.923337,397.101353 C248.849822,397.161153 248.778932,397.192352 248.710668,397.192352 C248.576766,397.192352 248.458617,397.098753 248.32734,396.927153 C248.146178,396.682755 241.963038,387.741391 240.629265,378.087631 C239.303368,368.454671 239.744459,358.096313 245.179321,350.990542 C247.576436,347.891355 251.131414,346.578361 254.297812,346.578361 C255.303392,346.578361 256.26959,346.70316 257.149145,346.957959 C259.83507,347.740556 261.696575,349.677548 261.71758,351.793939 C261.696575,354.906126 259.220694,355.571724 259.220694,355.571724 C259.220694,355.571724 260.121253,357.352716 262.985714,357.662115 C263.831137,357.740115 264.624049,357.740115 264.624049,357.740115 C270.778309,357.688115 272.282741,353.257733 272.513789,349.284949 C272.773717,345.309566 270.63653,343.804172 267.748439,343.466173 C267.401868,343.437574 267.076301,343.406374 266.782241,343.406374 C264.692313,343.406374 264.056933,344.32937 264.056933,344.32937 C263.109114,342.823976 263.954537,340.767385 265.732026,339.605189 C267.572528,338.385794 269.730719,338.141395 271.411063,338.141395 C271.715625,338.141395 272.00706,338.146595 272.285367,338.164795 C272.994262,337.382198 273.445854,337.0052 275.630301,337.0052 Z" id="barclays-logo-black"></path>
        </g>
    </g>
</svg>