<?xml version="1.0" encoding="UTF-8"?>
<svg width="439px" height="93px" viewBox="0 0 439 93" version="1.1" xmlns="http://www.w3.org/2000/svg" xmlns:xlink="http://www.w3.org/1999/xlink">
    <!-- Generator: Sketch 53.1 (72631) - https://sketchapp.com -->
    <title>canon-logo-black</title>
    <desc>Created with Sketch.</desc>
    <g id="Projects" stroke="none" stroke-width="1" fill="none" fill-rule="evenodd">
        <g id="Index" transform="translate(-856.000000, -703.000000)" fill="#000000">
            <path d="M964.67,727.440172 L928.147988,749.364445 L947.437551,717.531912 C941.862083,714.06265 935.684751,712.232074 928.103073,712.213799 C907.831365,712.201615 891.290609,728.594562 891.368462,749.425363 C891.290609,770.186107 907.861308,786.844046 928.189909,786.844046 C941.427903,786.844046 953.05494,779.75932 959.549672,769.080451 L961.27142,774.550859 C952.315337,786.612559 935.44221,796.018249 913.149319,795.999973 C876.531488,795.98779 856.658028,773.38124 856.670005,749.425363 C856.658028,725.39943 877.516627,703.012184 913.149319,703 C938.134125,703 954.111944,712.402644 964.67,727.440172 Z M1129.67,796 L1103.08037,796 L1103.08037,741.475647 C1103.08037,737.715874 1100.11741,734.634142 1096.47296,734.634142 C1092.79593,734.634142 1089.83593,737.715874 1089.83593,741.475647 L1089.8537,796 L1063.35,796 L1063.35,734.634142 L1045.67,734.634142 L1071.13667,722.172829 C1072.88778,721.476462 1074.62111,721 1076.6063,721 C1083.22852,721 1088.71593,726.005905 1089.69963,732.538931 L1110.81963,722.246131 C1112.52333,721.555872 1114.36333,721 1116.33667,721 C1123.6463,721 1129.67,727.114595 1129.67,734.618871 L1129.67,796 Z M1038.44384,737.45534 L1054.67,794.373077 L1027.38859,794.373077 L1023.85188,781.800311 C1018.23584,789.662767 1006.90009,796.029745 992.951446,795.999895 C980.447974,796.029745 964.712684,786.438981 964.67,772.012538 C964.712684,757.630869 980.447974,748.222189 992.997179,748.177414 C1001.89992,748.222189 1009.84226,750.4669 1016.34553,755.511528 L1010.25386,734.264389 L974.850223,734.264389 L1006.88484,722.655773 C1023.03478,716.769378 1035.77302,727.730252 1038.44384,737.45534 Z M1006.51898,785.791239 C1014.22046,785.791239 1020.48287,779.677985 1020.48287,772.117012 C1020.48287,764.576934 1014.22046,758.460696 1006.51898,758.460696 C998.799205,758.460696 992.518504,764.576934 992.518504,772.117012 C992.518504,779.677985 998.799205,785.791239 1006.51898,785.791239 Z M1138.67,758.504445 C1138.67,737.79936 1155.45243,721 1176.1626,721 C1196.88461,721 1213.67,737.79936 1213.67,758.504445 C1213.67,779.221384 1196.88461,796 1176.1626,796 C1155.45243,796 1138.67,779.221384 1138.67,758.504445 Z M1184.9386,790.363665 C1189.38727,789.074598 1191.77884,784.816231 1190.59786,780.433403 L1177.44422,732.177842 C1176.29579,727.907622 1172.00991,725.347268 1167.48428,726.618555 C1163.24279,727.80094 1160.70915,732.106721 1161.94341,736.531036 L1175.15921,784.768817 C1176.2662,789.104232 1180.62608,791.51049 1184.9386,790.363665 Z M1294.67,796 L1268.05543,796 L1268.06728,741.460376 C1268.06728,737.700603 1265.11077,734.634142 1261.44919,734.634142 C1257.78762,734.634142 1254.81333,737.700603 1254.81333,741.460376 L1254.82518,796 L1228.33503,796 L1228.33503,734.634142 L1210.67,734.634142 L1236.12033,722.169775 C1237.8652,721.464245 1239.63082,721 1241.58899,721 C1248.21005,721 1253.70834,725.993688 1254.67705,732.538931 L1275.79333,722.233914 C1277.49673,721.555872 1279.33641,721 1281.30939,721 C1288.64736,721 1294.67,727.102378 1294.67,734.6036 L1294.67,796 Z" id="canon-logo-black"></path>
        </g>
    </g>
</svg>