<?xml version="1.0" encoding="UTF-8"?>
<svg width="339px" height="171px" viewBox="0 0 339 171" version="1.1" xmlns="http://www.w3.org/2000/svg" xmlns:xlink="http://www.w3.org/1999/xlink">
    <!-- Generator: Sketch 57.1 (83088) - https://sketch.com -->
    <title>FFA - Logo - White + Yellow Copy</title>
    <desc>Created with Sketch.</desc>
    <g id="FFA---Logo---White-+-Yellow-Copy" stroke="none" stroke-width="1" fill="none" fill-rule="evenodd">
        <path d="M253.537,112.652 L253.537,170.869 L0.06,170.869 L0.06,112.652 L253.537,112.652 Z M176.635,117.336 C162.617,117.336 152.709,127.716 152.709,141.667 C152.709,155.619 162.078,166.268 176.366,166.268 C189.561056,166.268 197.551081,157.701793 199.814072,147.997266 L199.889,147.666 L186.543,147.666 C185.735,151.507 182.837,156.091 176.635,156.091 C169.559,156.091 164.976,149.283 164.976,141.734 C164.976,133.983 169.02,127.513 176.569,127.513 C181.857308,127.513 185.45939,131.209614 186.167683,134.975429 L186.206,135.197 L199.08,135.197 C197.934,126.502 189.576,117.336 176.635,117.336 Z M35.657,119.063 L24.268,119.063 L6.879,165.029 L18.808,165.029 L21.774,155.795 L36.736,155.795 L39.702,165.029 L51.834,165.029 L35.657,119.063 Z M84.95,118.818 L56.037,118.818 L56.037,164.785 L68.168,164.785 L68.168,147.261 L84.277,147.261 L84.277,137.623 L68.168,137.623 L68.168,129.131 L84.95,129.131 L84.95,118.818 Z M106.724,118.818 L91.761,118.818 L91.761,164.785 L103.826,164.785 L103.826,147.396 L105.039,147.396 L116.699,164.785 L130.718,164.785 L116.699,145.576 C121.485,143.891 125.259,139.779 125.259,133.174 C125.259,124.884 120.473,118.818 106.724,118.818 Z M146.772,118.818 L134.707,118.818 L134.707,164.785 L146.772,164.785 L146.772,118.818 Z M229.482,118.818 L218.092,118.818 L200.702,164.785 L212.632,164.785 L215.598,155.551 L230.561,155.551 L233.527,164.785 L245.657,164.785 L229.482,118.818 Z M29.457,132.341 C29.9054,134.1973 30.110125,135.203445 30.880537,137.5526 L31.007,137.935 L34.174,147.774 L24.335,147.774 L27.502,138.002 C28.1869231,135.949077 28.5267574,134.584627 28.9989249,132.797288 L29.12,132.341 L29.457,132.341 Z M222.945,132.097 L223.281,132.097 C223.7294,133.9533 223.934125,134.959445 224.704537,137.3086 L224.831,137.691 L227.998,147.53 L218.158,147.53 L221.326,137.758 C222.011846,135.705077 222.350899,134.340627 222.823728,132.553288 L222.945,132.097 L223.281,132.097 Z M107.129,128.187 C110.836,128.187 112.926,130.344 112.926,133.781 C112.926,137.202548 110.613196,139.083179 107.430418,139.170793 L107.196,139.174 L103.826,139.174 L103.826,128.187 L107.129,128.187 Z M99.582,58.8699493 C112.598,58.845 120.993,68.061 122.161,76.829 L109.195,76.829 C108.574,72.954 104.923,69.104 99.483,69.104 C91.882,69.104 87.808,75.612 87.808,83.411 C87.808,91.012 92.428,97.868 99.557,97.868 C105.792,97.868 108.723,93.248 109.543,89.397 L122.981,89.397 C120.82,99.309 112.722,108.127 99.309,108.127 C84.926,108.127 75.487,97.396 75.487,83.361 C75.487,69.302 85.473,58.8699493 99.582,58.8699493 Z M183.565,58.845 C198.841,58.845 207.932,70.644 207.932,83.486 C207.932,96.924 197.475,108.127 183.441,108.127 C166.4,108.127 158.874,94.887 158.874,83.486 C158.874,70.296 169.182,58.845 183.565,58.845 Z M302.993,85.945 C308.731,85.945 313.376,90.59 313.376,96.328 C313.376,101.947344 308.882047,106.557605 303.2743,106.707251 L302.993,106.711 C297.28,106.711 292.611,102.066 292.611,96.328 C292.611,90.614 297.255,85.945 302.993,85.945 Z M58.05,60.335 L74.345,106.611 L62.124,106.611 L59.143,97.321 L44.09,97.321 L41.11,106.611 L29.087,106.611 L46.574,60.335 L58.05,60.335 Z M263.101,60.335 L269.211,72.209 C270.23,74.171 271.099,76.406 271.646,78.245 L271.77,78.245 C272.391,76.332 273.186,74.37 274.204,72.283 L279.893,60.335 L292.66,60.335 L277.458,88.355 L277.458,106.611 L265.312,106.611 L265.312,88.429 L265.336,88.429 L250.01,60.335 L263.101,60.335 Z M29.112,60.335 L29.112,70.718 L12.221,70.718 L12.221,79.263 L28.441,79.263 L28.441,88.976 L12.221,88.976 L12.221,106.611 L9.76996262e-14,106.611 L9.76996262e-14,60.335 L29.112,60.335 Z M157.259,60.335 L157.259,70.718 L146.876,70.718 L146.876,106.611 L134.655,106.611 L134.655,70.718 L124.272,70.718 L124.272,60.335 L157.259,60.335 Z M229.368,60.335 C243.204,60.335 248.024,66.446 248.024,74.792 C248.024,81.449 244.223,85.572 239.404,87.286 L253.537,106.611 L239.429,106.611 L227.68,89.1 L226.462,89.1 L226.462,106.611 L214.316,106.611 L214.316,60.335 L229.368,60.335 Z M183.515,69.75 C176.584,69.75 171.243911,75.661 171.243911,83.461 C171.219,91.211 176.436,97.172 183.365,97.172 C190.346,97.172 195.587,91.211 195.587,83.461 C195.587,75.86 190.917,69.75 183.515,69.75 Z M51.791,73.699 L51.443,73.699 C50.896,75.736 50.549,77.152 49.803,79.387 L46.624,89.249 L56.535,89.249 L53.355,79.337 C52.461,76.68 52.262,75.661 51.791,73.699 Z M229.791,69.774 L226.462,69.774 L226.462,80.828 L229.865,80.828 C233.194,80.828 235.628,78.94 235.628,75.388 C235.628,71.936 233.517,69.774 229.791,69.774 Z M58.373,0.025 C73.649,0.025 82.74,11.824 82.74,24.666 C82.74,38.104 72.283,49.307 58.249,49.307 C41.209,49.307 33.6819547,36.067 33.6819547,24.666 C33.657,11.501 43.991,0.025 58.373,0.025 Z M100.575,1.515 L100.575,30.23 C100.575,36.191 102.737,39.048 106.487,39.048 C111.381,39.048 112.523,35.049 112.523,30.23 L112.523,1.515 L124.595,1.515 L124.595,29.41 C124.595,43.469 117.467,49.282 106.537,49.282 C96.03,49.282 88.429,44.065 88.429,29.534 L88.429,1.515 L100.575,1.515 Z M321.847,0 C331.335,0 337.396,5.688 337.396,15.127 L326.342,15.127 L326.342,15.152 C326.342,11.824 324.654,9.712 321.722,9.712 C319.686,9.712 317.922,11.004 317.922,13.389 C317.922,16.295 320.977,17.586 325.448,19.151 C334.415,22.281 338.067,27.771 338.067,34.626 C338.067,41.333 333.322,49.282 321.648,49.282 C311.538,49.282 305.03,43.047 305.03,32.863 L316.63,32.863 C316.63,36.862 318.12,39.569 321.847,39.569 C324.43,39.569 326.318,37.93 326.318,35.297 C326.318,32.242 324.206,30.677 318.915,28.839 C309.278,25.51 306.297,19.599 306.297,13.637 C306.297,4.943 313.426,0 321.847,0 Z M256.369,1.515 L256.369,11.898 L239.479,11.898 L239.479,19.102 L255.773,19.102 L255.773,28.814 L239.479,28.814 L239.479,37.433 L257.065,37.433 L257.065,47.816 L227.332,47.816 L227.332,1.515 L256.369,1.515 Z M195.363,1.515 C212.056,1.515 220.948,12.023 220.948,24.666 C220.948,37.21 211.509,47.816 195.239,47.816 L179.019,47.816 L179.019,1.515 L195.363,1.515 Z M280.115,1.515 C293.951,1.515 298.771,7.626 298.771,15.972 C298.771,22.629 294.97,26.752 290.152,28.466 L304.284,47.792 L290.176,47.792 L278.427,30.279 L277.21,30.279 L277.21,47.792 L265.063,47.792 L265.063,1.515 L280.115,1.515 Z M29.112,1.515 L29.112,11.898 L12.221,11.898 L12.221,20.443 L28.441,20.443 L28.441,30.155 L12.221,30.155 L12.221,47.792 L9.76996262e-14,47.792 L9.76996262e-14,1.515 L29.112,1.515 Z M170.251,1.49 L170.251,47.767 L160.066,47.767 L150.23,32.093 C145.411,24.417 144.119,21.511 142.753,19.325 L142.505,19.325 L142.505,19.375 C142.579,21.337 142.778,25.759 142.778,27.647 L142.778,47.792 L132.593,47.792 L132.593,1.515 L142.852,1.515 L154.378,19.971 C157.98,25.659 158.849,28.118 160.066,30.354 L160.265,30.354 C160.191,28.317 160.066,24.715 160.066,22.877 L160.066,1.49 L170.251,1.49 Z M58.323,10.954 C51.393,10.954 46.0519175,16.866 46.0519175,24.666 C46.028,32.391 51.244,38.377 58.174,38.377 C65.154,38.377 70.395,32.416 70.395,24.666 C70.395,17.065 65.725,10.954 58.323,10.954 Z M194.693,12.122 L191.165,12.122 L191.165,37.234 L194.693,37.234 L194.693,37.21 C204.454,37.21 208.603,31.522 208.603,24.666 C208.603,17.263 204.132,12.122 194.693,12.122 Z M280.538,10.954 L277.21,10.954 L277.21,22.008 L280.613,22.008 C283.942,22.008 286.375,20.12 286.375,16.568 C286.375,13.115 284.264,10.954 280.538,10.954 Z" id="Combined-Shape" fill="#000000"></path>
    </g>
</svg>