<?xml version="1.0" encoding="UTF-8"?>
<svg width="442px" height="101px" viewBox="0 0 442 101" version="1.1" xmlns="http://www.w3.org/2000/svg" xmlns:xlink="http://www.w3.org/1999/xlink">
    <!-- Generator: Sketch 53.1 (72631) - https://sketchapp.com -->
    <title>snap-logo-black</title>
    <desc>Created with Sketch.</desc>
    <g id="Projects" stroke="none" stroke-width="1" fill="none" fill-rule="evenodd">
        <g id="Index" transform="translate(-516.000000, -501.000000)" fill="#000000" fill-rule="nonzero">
            <path d="M663.141712,569.90288 C666.151366,569.90288 668.63948,569.402084 670.602731,568.403833 C672.565983,567.405581 673.545947,565.716231 673.545947,563.339123 C673.545947,562.203987 673.369886,561.229106 673.024407,560.421156 C672.672284,559.606529 672.094271,558.878707 671.287046,558.231011 C670.483142,557.579978 669.42013,556.96233 668.10133,556.368053 C666.78253,555.770437 665.158114,555.069324 663.221438,554.254697 C661.66346,553.61034 660.181886,552.949291 658.786682,552.271548 C657.388156,551.597144 656.152404,550.812564 655.076104,549.921149 C653.999804,549.029733 653.139428,547.964709 652.494977,546.719398 C651.853847,545.477425 651.5283,543.961685 651.5283,542.182193 C651.5283,538.773446 652.803915,536.019072 655.358467,533.912393 C657.913019,531.805715 661.42096,530.747367 665.885613,530.747367 C668.735815,530.747367 671.084409,530.991088 672.941359,531.478529 C674.798309,531.965969 676.100499,532.399992 676.854574,532.777258 L675.642075,537.478056 C674.997624,537.15087 673.911358,536.723524 672.376633,536.179327 C670.845231,535.641806 668.599617,535.371377 665.643113,535.371377 C664.45719,535.371377 663.344349,535.491568 662.294624,535.735288 C661.244899,535.979009 660.318085,536.359613 659.51086,536.870424 C658.703634,537.387913 658.059183,538.038946 657.577505,538.820187 C657.092506,539.608105 656.850006,540.569632 656.850006,541.704768 C656.850006,542.843242 657.065931,543.818124 657.494458,544.629412 C657.926306,545.444039 658.55747,546.161846 659.391271,546.782832 C660.225071,547.407156 661.244899,547.98474 662.457397,548.525599 C663.666574,549.06312 665.048491,549.654058 666.60979,550.298414 C668.224241,550.94611 669.768931,551.603821 671.247183,552.278225 C672.725434,552.949291 674.030947,553.760579 675.160398,554.705413 C676.286527,555.646908 677.203375,556.785382 677.900977,558.107482 C678.598579,559.43292 678.950702,561.09556 678.950702,563.095403 C678.950702,566.878076 677.538888,569.739287 674.715261,571.685711 C671.894956,573.632135 668.034892,574.607017 663.141712,574.607017 C659.484284,574.607017 656.687232,574.289846 654.753878,573.672199 C652.820524,573.051213 651.5283,572.580465 650.880526,572.253279 L652.252477,567.469015 C652.415251,567.57919 652.764052,567.752799 653.302202,567.999858 C653.840352,568.240239 654.564529,568.514008 655.478056,568.807807 C656.391582,569.108285 657.484492,569.365359 658.746819,569.579032 C660.009147,569.796043 661.474111,569.90288 663.141712,569.90288 Z M685.968246,533.031524 C687.565929,532.598206 689.715478,532.107784 692.420298,531.563618 C695.121712,531.019451 698.429496,530.747367 702.34365,530.747367 C705.596929,530.747367 708.311969,531.210917 710.492177,532.134657 C712.668978,533.058397 714.406331,534.375146 715.704236,536.091622 C716.995328,537.80474 717.921916,539.853763 718.473781,542.248769 C719.025646,544.640415 719.301579,547.277273 719.301579,550.1627 L719.301579,573.729824 L713.922598,573.729824 L713.922598,551.872459 C713.922598,548.8829 713.718203,546.353533 713.302601,544.291074 C712.890405,542.221896 712.202277,540.535651 711.23481,539.228979 C710.270749,537.925666 709.003504,536.98849 707.433073,536.417451 C705.859235,535.846412 703.886828,535.560892 701.515852,535.560892 C698.977954,535.560892 696.790933,535.695254 694.94457,535.970697 C693.0948,536.239421 691.895686,536.484632 691.34382,536.70297 L691.34382,573.729824 L685.968246,573.729824 L685.968246,533.031524 Z M742.028464,530.747367 C744.770047,530.747367 747.093423,531.142108 749.00523,531.924897 C750.907079,532.711033 752.453784,533.794895 753.632067,535.176486 C754.820308,536.554732 755.673319,538.193907 756.214334,540.087322 C756.752029,541.984082 757.020877,544.041414 757.020877,546.262664 L757.020877,572.740364 C756.479862,572.904281 755.703191,573.078235 754.684225,573.268914 C753.661939,573.459594 752.480337,573.660309 751.136098,573.877751 C749.791859,574.091847 748.304898,574.269146 746.661939,574.406301 C745.0223,574.540111 743.34615,574.607017 741.626852,574.607017 C739.426283,574.607017 737.394988,574.366158 735.542926,573.877751 C733.687544,573.389343 732.077776,572.616589 730.706984,571.562834 C729.339512,570.505733 728.26412,569.15425 727.48413,567.501693 C726.707459,565.849137 726.319123,563.835293 726.319123,561.450125 C726.319123,559.175351 726.747288,557.228413 727.603618,555.602618 C728.463267,553.980169 729.671422,552.638722 731.231404,551.584966 C732.788065,550.52452 734.640128,549.751766 736.794229,549.266704 C738.938374,548.781642 741.275026,548.537438 743.800868,548.537438 C744.557624,548.537438 745.347572,548.577581 746.180669,548.657867 C747.013765,548.738153 747.820308,548.848547 748.59698,548.982357 C749.37697,549.119512 750.04743,549.253323 750.611679,549.390478 C751.179246,549.524288 751.567582,549.648063 751.780005,549.751766 L751.780005,547.155847 C751.780005,545.69397 751.670474,544.272237 751.458051,542.890646 C751.242309,541.509055 750.777634,540.26462 750.04743,539.153995 C749.320545,538.046716 748.304898,537.153532 746.983893,536.474445 C745.672845,535.798704 743.936951,535.460833 741.786169,535.460833 C738.725951,535.460833 736.442404,535.678275 734.938848,536.113158 C733.435292,536.544696 732.333348,536.895948 731.633016,537.163568 L730.90945,532.537079 C731.822205,532.102196 733.236145,531.69742 735.141313,531.316061 C737.046482,530.938047 739.343305,530.747367 742.028464,530.747367 Z M742.513054,569.896896 C744.557624,569.896896 746.343305,569.829991 747.876733,569.692836 C749.406842,569.559026 750.704614,569.381727 751.780005,569.167631 L751.780005,554.384945 C751.192523,554.113979 750.253215,553.829633 748.962082,553.531905 C747.670948,553.234177 745.898544,553.083641 743.64155,553.083641 C742.357055,553.083641 741.009497,553.180653 739.612153,553.367987 C738.218127,553.562012 736.923675,553.963443 735.742072,554.58566 C734.560469,555.207878 733.594609,556.064264 732.841171,557.144781 C732.094372,558.228644 731.715993,559.667104 731.715993,561.450125 C731.715993,563.022396 731.971565,564.347117 732.479388,565.43098 C732.990531,566.514843 733.714097,567.381264 734.653404,568.033589 C735.59935,568.679223 736.724528,569.15425 738.045533,569.451977 C739.356581,569.749705 740.85018,569.896896 742.513054,569.896896 Z M771.959155,588.642104 L766.67,588.642104 L766.67,533.02471 C768.241998,532.482167 770.24638,531.966416 772.693201,531.480806 C775.129966,530.991847 778.220334,530.747367 781.964305,530.747367 C785.058025,530.747367 787.866841,531.249722 790.387402,532.251083 C792.914666,533.252444 795.079934,534.705925 796.899967,536.601477 C798.716647,538.500379 800.124407,540.804514 801.12995,543.510533 C802.132141,546.22325 802.634912,549.287615 802.634912,552.703629 C802.634912,555.901956 802.215936,558.845756 801.374632,561.524982 C800.533328,564.207558 799.299862,566.515042 797.677587,568.434038 C796.048607,570.363081 794.054281,571.863448 791.694607,572.948535 C789.331582,574.03697 786.630024,574.579514 783.596636,574.579514 C780.828042,574.579514 778.428147,574.184328 776.390247,573.397305 C774.35905,572.610282 772.877551,571.863448 771.959155,571.160151 L771.959155,588.642104 Z M771.959155,566.03613 C772.448519,566.414571 773.055196,566.823153 773.785891,567.258527 C774.523289,567.690553 775.374648,568.095786 776.353377,568.477575 C777.332105,568.856016 778.387925,569.170825 779.52754,569.411956 C780.667155,569.656435 781.853695,569.777 783.10392,569.777 C785.711628,569.777 787.893656,569.331579 789.656707,568.434038 C791.419759,567.543195 792.840926,566.320798 793.930264,564.776894 C795.01625,563.22964 795.800573,561.414464 796.289938,559.328017 C796.77595,557.241569 797.023984,555.031207 797.023984,552.703629 C797.023984,547.171026 795.636335,542.934499 792.871092,539.977303 C790.102498,537.020107 786.442322,535.546532 781.883862,535.546532 C779.282858,535.546532 777.181274,535.667097 775.575757,535.908228 C773.980296,536.152707 772.770293,536.410583 771.959155,536.681854 L771.959155,566.03613 Z M838.599825,572.011635 C837.997445,572.389084 837.286772,572.733131 836.464423,573.027074 C835.642073,573.324357 834.75204,573.594918 833.79094,573.838757 C832.836608,574.082596 831.848435,574.26965 830.836572,574.406601 C829.821325,574.540211 828.877146,574.607017 828.00065,574.607017 C821.86856,574.607017 817.127359,572.779895 813.783813,569.132332 C810.447036,565.484769 808.775263,560.277304 808.775263,553.5233 C808.775263,550.112895 809.211819,547.059898 810.088315,544.357629 C810.964812,541.655359 812.210181,539.357261 813.831191,537.459993 C815.442049,535.572747 817.415012,534.126415 819.746695,533.120997 C822.068226,532.125599 824.684178,531.62456 827.587783,531.62456 C829.889009,531.62456 831.861971,531.788233 833.506671,532.112238 C835.147986,532.432903 836.599789,532.920581 837.858695,533.571932 L837.039729,536.087147 C835.943263,535.48924 834.576064,535.031625 832.931364,534.70762 C831.290049,534.380274 829.506599,534.219942 827.587783,534.219942 C822.494629,534.219942 818.575777,535.893412 815.837995,539.243692 C813.100214,542.597312 811.733015,547.357182 811.733015,553.5233 C811.733015,559.57585 813.117135,564.172047 815.881989,567.30855 C818.646844,570.441713 822.687526,572.011635 828.00065,572.011635 C829.587819,572.011635 831.340811,571.767796 833.259627,571.280118 C835.175059,570.795781 836.735155,570.201215 837.943298,569.49976 L838.599825,572.011635 Z M849.272973,573.729824 L846.494561,573.729824 L846.494561,534.522426 C848.455595,533.557576 850.507449,532.831452 852.663577,532.350685 C854.809614,531.866602 856.979197,531.62456 859.155507,531.62456 C862.310652,531.62456 864.816604,531.976018 866.67,532.672301 L866.098172,535.086085 C865.280794,534.820834 864.244776,534.605317 862.993482,534.442851 C861.742188,534.283701 860.406801,534.204125 858.990686,534.204125 C857.35593,534.204125 855.680811,534.376538 853.96869,534.72468 C852.253206,535.076138 850.689088,535.570167 849.272973,536.213401 L849.272973,573.729824 Z M899.12614,572.743432 C897.101391,573.336845 894.907912,573.793574 892.532206,574.120284 C890.153125,574.443661 887.814539,574.607017 885.523198,574.607017 C880.17111,574.607017 876.131734,573.54354 873.398322,571.409919 C870.661536,569.276299 869.301579,566.105871 869.301579,561.895304 C869.301579,557.848093 870.722278,554.78768 873.563677,552.710734 C876.401701,550.633787 880.690795,549.593647 886.424211,549.593647 C888.064258,549.593647 889.808918,549.743668 891.668313,550.03704 C893.527708,550.337081 895.08339,550.700463 896.34211,551.130521 L896.34211,547.970095 C896.34211,543.119442 895.420849,539.612303 893.591825,537.452012 C891.762801,535.295055 888.610941,534.211576 884.13287,534.211576 C882.384836,534.211576 880.592932,534.3916 878.763909,534.741647 C876.934885,535.091694 875.473691,535.538421 874.380326,536.07516 L873.972001,533.488145 C876.756032,532.247978 880.306093,531.62456 884.622184,531.62456 C889.646938,531.62456 893.318484,532.908067 895.643571,535.468411 C897.961909,538.03209 899.12614,541.689249 899.12614,546.433222 L899.12614,572.743432 Z M896.34211,553.560848 C895.029397,553.07745 893.554704,552.694065 891.911283,552.427362 C890.277985,552.157326 888.475958,552.023975 886.508576,552.023975 C876.999002,552.023975 872.250964,555.311084 872.250964,561.895304 C872.250964,565.352437 873.354453,567.90278 875.568179,569.546335 C877.781905,571.193223 881.234103,572.013334 885.934897,572.013334 C887.568195,572.013334 889.306105,571.923322 891.138503,571.733296 C892.967527,571.543271 894.698688,571.233229 896.34211,570.803171 L896.34211,553.560848 Z M910.681419,573.729824 L907.89807,573.729824 L907.89807,526.607773 C907.89807,521.073663 909.080825,517.017775 911.453074,514.440107 C913.832062,511.862439 917.414024,510.571929 922.215806,510.571929 C923.738898,510.571929 925.204705,510.722768 926.596379,511.021093 C927.984684,511.319419 929.05961,511.657968 929.827895,512.036741 L929.170809,514.560778 C928.186865,514.128373 927.054655,513.789824 925.774179,513.54513 C924.493704,513.300436 923.30421,513.179765 922.215806,513.179765 C918.340683,513.179765 915.449505,514.195413 913.54564,516.230061 C911.631667,518.264709 910.681419,521.777578 910.681419,526.768667 L910.681419,531.977635 L928.348609,531.977635 L928.348609,534.582119 L910.681419,534.582119 L910.681419,573.729824 Z M957.89807,572.402464 C956.74369,573.001564 955.341458,573.519886 953.694769,573.954065 C952.041289,574.39161 950.421762,574.607017 948.829397,574.607017 C944.432567,574.607017 941.190117,573.489595 939.102048,571.254751 C937.013978,569.023273 935.968246,565.159417 935.968246,559.653085 L935.968246,519.119617 L938.77271,518.466666 L938.77271,532.195472 L956.000134,532.195472 L956.000134,534.645722 L938.77271,534.645722 L938.77271,560.063704 C938.77271,562.402885 938.990005,564.351642 939.431386,565.903243 C939.865976,567.454844 940.531442,568.683334 941.410808,569.581984 C942.290174,570.483999 943.349487,571.106659 944.581957,571.46006 C945.821218,571.813462 947.233636,571.991846 948.829397,571.991846 C950.476086,571.991846 952.058266,571.773073 953.569145,571.338894 C955.080025,570.904715 956.271752,570.440245 957.154514,569.948848 L957.89807,572.402464 Z M577.196316,524.607017 L600.880526,534.862658 L577.196316,557.94035 L577.196316,524.607017 Z M532.459474,601.799999 L561.109203,548.291227 L573.687544,560.740755 L532.459474,601.799999 Z M516.67,501.799999 L575.44193,522.853843 L575.44193,559.694736 L516.67,501.799999 Z M612.186946,522.852631 L621.933158,542.150876 L578.073509,522.852631 L612.186946,522.852631 Z" id="snap-logo-black"></path>
        </g>
    </g>
</svg>