<?xml version="1.0" encoding="UTF-8"?>
<svg width="484px" height="84px" viewBox="0 0 484 84" version="1.1" xmlns="http://www.w3.org/2000/svg" xmlns:xlink="http://www.w3.org/1999/xlink">
    <!-- Generator: Sketch 53.1 (72631) - https://sketchapp.com -->
    <title>tesco-logo-black</title>
    <desc>Created with Sketch.</desc>
    <g id="Projects" stroke="none" stroke-width="1" fill="none" fill-rule="evenodd">
        <g id="Index" transform="translate(-856.000000, -318.000000)" fill="#000000" fill-rule="nonzero">
            <path d="M875.295901,391 L905.018913,391 C905.275114,391 905.354414,391.209741 905.018913,391.334387 C901.689515,392.765417 896.835111,397.197538 896.835111,397.197538 C893.500834,400.130312 890.85952,402 885.241391,402 L856.822566,402 C856.631025,402 856.628585,401.850185 856.766446,401.775877 C859.910402,400.210612 864.553746,395.689802 864.553746,395.689802 C866.461835,393.744607 870.414656,391 875.295901,391 Z M924.11811,391 L953.898462,391 C954.153444,391 954.177844,391.209741 953.842342,391.334387 C950.515385,392.765417 945.714661,397.197538 945.714661,397.197538 C942.381604,400.130312 939.73785,402 934.120941,402 L905.645996,402 C905.453235,402 905.450795,401.850185 905.589875,401.775877 C908.733831,400.210612 913.375955,395.689802 913.375955,395.689802 C915.287705,393.744607 919.236865,391 924.11811,391 Z M972.99644,391 L1002.77801,391 C1003.03299,391 1003.05739,391.209741 1002.72067,391.334387 C999.392495,392.765417 994.53809,397.197538 994.53809,397.197538 C991.202593,400.130312 988.6174,402 983.000491,402 L954.525546,402 C954.334005,402 954.330345,401.850185 954.466985,401.775877 C957.610941,400.210612 962.254285,395.689802 962.254285,395.689802 C964.164815,393.744607 968.116415,391 972.99644,391 Z M1021.81865,391 L1051.60022,391 C1051.85398,391 1051.93816,391.209741 1051.60022,391.334387 C1048.27326,392.765417 1043.4152,397.197538 1043.4152,397.197538 C1040.08092,400.130312 1037.43839,402 1031.82026,402 L1003.34654,402 C1003.15499,402 1003.15133,401.850185 1003.28797,401.775877 C1006.43315,400.210612 1011.13262,395.689802 1011.13262,395.689802 C1013.04436,393.744607 1016.93984,391 1021.81865,391 Z M1070.69576,391 L1100.47611,391 C1100.73353,391 1100.75427,391.209741 1100.41877,391.334387 C1097.09547,392.765417 1092.29353,397.197538 1092.29353,397.197538 C1088.95559,400.130312 1086.3155,402 1080.69859,402 L1052.22121,402 C1052.03088,402 1052.026,401.850185 1052.16508,401.775877 C1055.30782,400.210612 1059.9536,395.689802 1059.9536,395.689802 C1061.86169,393.744607 1065.81573,391 1070.69576,391 Z M974.788196,337 C980.499845,337 987.979877,338.060565 993.613634,339.845686 L993.613634,349.407875 C989.260221,345.361112 981.335963,343.204549 973.995892,343.204549 C969.633959,343.204549 964.639157,344.465497 964.639157,348.156702 C964.639157,357.323012 995.766608,348.919136 995.766608,367.623198 C995.766608,378.212963 985.708849,381 974.958584,381 C967.257047,381 960.160387,380.164255 954.944081,378.437783 L954.944081,369.444975 C961.940942,373.656688 967.460296,374.852878 975.468531,374.852878 C979.926611,374.852878 985.445965,373.415984 985.445965,369.843298 C985.445965,358.883313 954.319731,368.346533 954.319731,350.433007 C954.319731,340.088834 964.424955,337 974.788196,337 Z M1029.78457,337.113632 C1034.39478,337.113632 1038.95753,337.497292 1042.59531,338.249951 L1042.59531,348.894699 C1039.09627,345.464969 1034.75016,343.485574 1029.32817,343.485574 C1019.37873,343.485574 1012.26382,349.998028 1012.26382,358.911416 C1012.26382,367.94821 1019.1268,374.223626 1029.16022,374.223626 C1034.33758,374.223626 1039.16199,372.495932 1043.22088,368.190136 L1043.22088,378.834884 C1037.4788,380.218017 1032.56676,380.942573 1027.06323,380.942573 C1010.07433,380.942573 998.714321,372.498375 998.714321,359.881564 C998.714321,346.134542 1011.09179,337.113632 1029.78457,337.113632 Z M1073.3832,337.113632 C1088.538,337.113632 1098.67365,345.755769 1098.67,358.687818 C1098.67,371.867901 1087.52419,380.943795 1071.34342,380.943795 C1056.11317,380.943795 1045.88502,372.406737 1045.88502,359.539446 C1045.88502,346.422899 1057.27545,337.113632 1073.3832,337.113632 Z M858.67,338.422232 L858.67,338.423454 L907.938903,338.423454 L907.938903,348.49882 C904.43743,345.770431 896.161442,344.515592 889.229085,344.4545 L889.229085,372.175807 C889.229085,376.173697 889.495621,377.31246 891.271307,379.405487 L875.452,379.405487 C877.141275,377.31246 877.493004,376.173697 877.493004,372.175807 L877.493004,344.684208 C869.494505,344.7453 862.171473,345.772875 858.67,348.497598 L858.67,338.422232 Z M912.192518,338.422232 L912.192518,338.428341 L948.082313,338.428341 L948.082313,348.44628 C944.84129,345.720335 936.207488,344.689095 931.243112,344.689095 L925.687246,344.689095 L925.687246,355.558663 L929.769256,355.558663 C932.527107,355.558663 937.568157,355.284968 940.428241,354.362473 L940.428241,362.899531 C937.526777,362.032018 932.535626,361.703341 929.769256,361.703341 L925.687246,361.703341 L925.687246,373.143512 L931.243112,373.143512 C935.298346,373.205826 945.276997,373.192386 950.520078,369.444975 L950.520078,379.405487 L912.305704,379.405487 C913.876925,377.374774 914.176321,376.173697 914.176321,372.175807 L914.176321,345.708117 C914.176321,341.706562 913.847715,340.514037 912.192518,338.422232 Z M1072.30976,343.318181 C1063.73559,343.318181 1058.24667,350.326706 1058.24545,358.971287 C1058.24545,367.617089 1063.73559,374.625614 1072.30976,374.625614 C1080.7464,374.625614 1086.31322,367.617089 1086.31322,358.971287 C1086.31322,350.325484 1080.7464,343.318181 1072.30976,343.318181 Z M1149.29126,348.110683 C1158.65035,348.110683 1165.67,353.966015 1165.67,365.292051 L1165.67,391 L1157.74281,391 L1157.74281,366.057342 C1157.74281,358.674072 1154.1019,355.11329 1147.34039,355.11329 C1139.66866,355.11329 1134.59988,359.820025 1134.59988,367.836411 L1134.59988,391 L1126.67,391 L1126.67,318 L1134.59988,318 L1134.59988,355.875937 C1137.71913,350.783252 1142.78925,348.110683 1149.29126,348.110683 Z M1200.7396,372.350809 L1200.7396,349 L1208.67,349 L1208.67,390.982154 L1200.7396,390.982154 L1200.7396,384.219048 C1197.87879,389.321529 1192.54973,392 1186.04973,392 C1176.29906,392 1169.67,386.261365 1169.67,374.774819 L1169.67,349 L1177.59906,349 L1177.59906,374.008784 C1177.59906,381.537926 1181.2396,384.987733 1187.99771,384.987733 C1195.66866,384.987733 1200.7396,380.388873 1200.7396,372.350809 Z M1233.98973,385.128694 C1242.45647,385.128694 1248.10273,378.895627 1248.10273,370.117534 C1248.10273,361.208621 1242.45647,354.976875 1233.98973,354.976875 C1225.52564,354.976875 1219.87937,361.208621 1219.87937,370.117534 C1219.87937,378.895627 1225.52564,385.128694 1233.98973,385.128694 Z M1247.84669,356.248067 L1247.84669,318 L1255.67,318 L1255.67,390.981197 L1247.84669,390.981197 L1247.84669,383.856181 C1244.76618,389.074409 1239.5073,392 1232.58081,392 C1220.77885,392 1211.67,382.58499 1211.67,370.117534 C1211.67,357.521901 1220.77885,348.104248 1232.58081,348.104248 C1239.5073,348.104248 1244.76618,351.03116 1247.84669,356.248067 Z M1285.19288,381.913474 L1291.67,383.503144 L1285.19288,385.086526 L1286.92378,391 L1282.17343,386.671166 L1277.4176,391 L1279.15124,385.086526 L1272.67,383.503144 L1279.15124,381.913474 L1277.4176,376 L1282.17343,380.328834 L1286.92378,376 L1285.19288,381.913474 Z M1261.67,391 L1261.67,318 L1269.67,318 L1269.67,391 L1261.67,391 Z M1306.51795,386.992114 L1339.67,386.992114 L1339.67,391 L1297.67,391 L1297.67,389.88567 L1297.81896,389.749518 L1318.28407,370.77022 C1325.18747,364.3962 1333.77949,356.465027 1333.77949,348.351436 C1333.77949,337.003249 1323.61126,336.121567 1320.49267,336.121567 C1313.30354,336.121567 1308.17271,340.122844 1305.65536,347.691827 L1305.50641,348.134651 L1301.44263,346.82072 L1301.57128,346.393758 C1304.26466,337.514809 1311.51473,332 1320.49267,332 C1332.84514,332 1338.37544,340.211408 1338.37544,348.351436 C1338.37544,357.884707 1328.70418,366.731931 1320.93548,373.840906 L1306.51795,386.992114 Z" id="tesco-logo-black"></path>
        </g>
    </g>
</svg>