<?xml version="1.0" encoding="UTF-8"?>
<svg width="241px" height="194px" viewBox="0 0 241 194" version="1.1" xmlns="http://www.w3.org/2000/svg" xmlns:xlink="http://www.w3.org/1999/xlink">
    <!-- Generator: Sketch 53.1 (72631) - https://sketchapp.com -->
    <title>tfl-logo-black</title>
    <desc>Created with Sketch.</desc>
    <g id="Projects" stroke="none" stroke-width="1" fill="none" fill-rule="evenodd">
        <g id="Index" transform="translate(-1054.000000, -455.000000)" fill="#000000" fill-rule="nonzero">
            <path d="M1079.47477,570.279998 L1054.67,570.279998 L1054.67,533.32 L1079.47477,533.32 C1088.11529,488.693327 1127.45654,455 1174.67,455 C1221.88346,455 1261.22471,488.693327 1269.86523,533.32 L1294.67,533.32 L1294.67,570.279998 L1269.86523,570.279998 C1261.22471,614.906671 1221.88346,648.599998 1174.67,648.599998 C1127.45654,648.599998 1088.11529,614.906671 1079.47477,570.279998 Z M1114.06183,570.279998 C1121.9848,596.164806 1146.11782,615 1174.67,615 C1203.22218,615 1227.3552,596.164806 1235.27817,570.279998 L1114.06183,570.279998 Z M1114.06183,533.32 L1235.27817,533.32 C1227.3552,507.435192 1203.22218,488.599998 1174.67,488.599998 C1146.11782,488.599998 1121.9848,507.435192 1114.06183,533.32 Z M1071.70673,553.219118 L1071.70675,553.219118 C1071.70675,558.147645 1075.44237,562.299472 1080.15437,562.299472 C1084.86635,562.299472 1088.63028,558.444205 1088.63028,553.275601 L1088.61612,541.949867 L1085.09274,541.949867 L1085.09274,553.600406 C1085.09274,556.453024 1082.88533,558.86786 1080.15436,558.86786 C1077.50505,558.826821 1075.3541,556.503055 1075.25842,553.600406 L1075.24426,541.949867 L1071.70673,541.949867 L1071.70673,553.219118 Z M1105.96414,561.593383 L1109.50167,561.593383 L1109.50167,541.949867 L1105.96414,541.949867 L1105.96414,555.408004 L1095.80437,541.949867 L1092.25269,541.949867 L1092.25269,561.593383 L1095.80437,561.593383 L1095.80437,548.389436 L1105.96414,561.593383 Z M1113.27538,541.955458 L1113.27538,561.588938 L1120.40449,561.573944 C1125.58343,561.573949 1129.74454,557.163213 1129.74454,551.712171 C1129.74454,546.303501 1125.68783,541.955472 1120.49474,541.955472 L1113.27538,541.955458 Z M1120.37441,545.557934 C1123.62894,545.557934 1126.24014,548.337034 1126.24014,551.712157 C1126.24014,555.129652 1123.5387,557.881393 1120.28417,557.881393 L1116.85498,557.896387 L1116.85498,545.572924 L1120.37441,545.557934 Z M1144.42414,561.593383 L1144.42414,557.653383 L1136.03312,557.653383 L1136.03312,553.063779 L1142.34407,553.063779 L1142.34407,549.279113 L1136.03312,549.279113 L1136.03312,545.833383 L1144.16943,545.833383 L1144.16943,541.949867 L1132.4956,541.949867 L1132.4956,561.593383 L1144.42414,561.593383 Z M1147.64252,541.985479 L1147.64252,561.618959 L1151.19204,561.618959 L1151.19204,553.798591 L1153.31273,553.798591 L1158.87765,561.618959 L1162.71294,561.618959 L1156.99761,553.093106 C1158.90788,552.104574 1160.2012,550.202289 1160.2012,547.914552 C1160.2012,544.652401 1157.54399,541.985479 1154.27531,541.985479 L1147.64252,541.985479 Z M1151.23716,545.452861 L1154.27531,545.467855 C1155.63372,545.467855 1156.72688,546.558835 1156.72688,547.914538 C1156.72688,549.256114 1155.63373,550.346207 1154.27531,550.346207 L1151.23716,550.346207 L1151.23716,545.452861 Z M1166.10211,551.21381 C1166.10211,546.398255 1171.8329,542.938394 1179.33246,546.793666 L1179.33246,542.938394 C1172.38475,539.859831 1162.62118,541.469724 1162.62118,551.369149 C1162.62118,561.268579 1173.27621,564.954385 1179.57301,559.503348 L1179.57301,550.154672 L1172.86586,550.154672 L1172.86586,553.543922 L1176.03548,553.543922 L1176.03548,557.893455 C1170.27639,560.223558 1166.10211,556.608363 1166.10211,551.21381 Z M1182.79177,541.985479 L1182.79177,561.618959 L1186.34129,561.618959 L1186.34129,553.798591 L1188.46198,553.798591 L1194.0269,561.618959 L1197.86218,561.618959 L1192.14686,553.093106 C1194.05712,552.104574 1195.35045,550.202289 1195.35045,547.914552 C1195.35045,544.652401 1192.69324,541.985479 1189.42456,541.985479 L1182.79177,541.985479 Z M1186.38641,545.452861 L1189.42456,545.467855 C1190.78297,545.467855 1191.87613,546.558835 1191.87613,547.914538 C1191.87613,549.256114 1190.78298,550.346207 1189.42456,550.346207 L1186.38641,550.346207 L1186.38641,545.452861 Z M1207.7888,541.520162 C1202.36931,541.520162 1197.9825,546.123453 1197.9825,551.7722 C1197.98251,557.435065 1202.36931,562.024239 1207.7888,562.024239 C1213.20828,562.024234 1217.59509,557.435065 1217.59509,551.7722 C1217.59508,546.123453 1213.20828,541.520162 1207.7888,541.520162 Z M1207.7888,545.392818 C1211.19897,545.392818 1213.95533,548.241738 1213.95533,551.7722 C1213.95533,555.316789 1211.19897,558.181599 1207.7888,558.181599 C1204.39277,558.181599 1201.6373,555.316789 1201.6373,551.7722 C1201.6373,548.241738 1204.39277,545.392818 1207.7888,545.392818 Z M1220.36777,553.219118 L1220.36779,553.219118 C1220.36779,558.147645 1224.10341,562.299472 1228.81541,562.299472 C1233.52739,562.299472 1237.29132,558.444205 1237.29132,553.275601 L1237.27716,541.949867 L1233.75378,541.949867 L1233.75378,553.600406 C1233.75378,556.453024 1231.54637,558.86786 1228.8154,558.86786 C1226.16609,558.826821 1224.01514,556.503055 1223.91946,553.600406 L1223.9053,541.949867 L1220.36777,541.949867 L1220.36777,553.219118 Z M1255.27609,561.593383 L1258.81362,561.593383 L1258.81362,541.949867 L1255.27609,541.949867 L1255.27609,555.408004 L1245.11632,541.949867 L1241.56464,541.949867 L1241.56464,561.593383 L1245.11632,561.593383 L1245.11632,548.389436 L1255.27609,561.593383 Z M1263.25753,541.955458 L1263.25753,561.588938 L1270.38665,561.573944 C1275.56558,561.573949 1279.72669,557.163213 1279.72669,551.712171 C1279.72669,546.303501 1275.66998,541.955472 1270.47689,541.955472 L1263.25753,541.955458 Z M1270.35656,545.557934 C1273.61109,545.557934 1276.22229,548.337034 1276.22229,551.712157 C1276.22229,555.129652 1273.52085,557.881393 1270.26632,557.881393 L1266.83713,557.896387 L1266.83713,545.572924 L1270.35656,545.557934 Z" id="tfl-logo-black"></path>
        </g>
    </g>
</svg>