<?xml version="1.0" encoding="UTF-8"?>
<svg width="489px" height="81px" viewBox="0 0 489 81" version="1.1" xmlns="http://www.w3.org/2000/svg" xmlns:xlink="http://www.w3.org/1999/xlink">
    <!-- Generator: Sketch 53.1 (72631) - https://sketchapp.com -->
    <title>w3w-logo-black</title>
    <desc>Created with Sketch.</desc>
    <g id="Projects" stroke="none" stroke-width="1" fill="none" fill-rule="evenodd">
        <g id="Index" transform="translate(-219.000000, -684.000000)" fill="#000000" fill-rule="nonzero">
            <path d="M221.67,687.33 L221.67,762 L296.37,762 L296.37,687.33 L221.67,687.33 Z M219,764.7 L219,684.7 L299,684.7 L299,764.7 L219,764.7 Z M239.09,741.49 L239.08,741.55 C237.644818,741.024504 236.90645,739.435893 237.43,738 L247.78,709.55 C248.320875,708.142844 249.887746,707.426586 251.305776,707.938274 C252.723806,708.449963 253.472283,710.001701 252.99,711.43 L242.67,739.84 C242.417947,740.536486 241.897453,741.103013 241.224771,741.413048 C240.552089,741.723083 239.783259,741.750797 239.09,741.49 Z M251.34,740.06 L251.32,740.12 C251.0087,739.453559 250.976303,738.690427 251.23,738 L261.59,709.54 C261.910963,708.589457 262.720817,707.886763 263.707117,707.703021 C264.693418,707.519279 265.701979,707.883212 266.343693,708.654415 C266.985407,709.425617 267.159957,710.483527 266.8,711.42 L256.44,739.83 C256.032594,740.916994 255.000713,741.643279 253.84,741.66 C252.767131,741.655822 251.793157,741.032479 251.34,740.06 Z M265.14,740.06 L265.15,740.12 C264.837596,739.453829 264.80518,738.690251 265.06,738 L275.46,709.54 C275.780963,708.589457 276.590817,707.886763 277.577117,707.703021 C278.563418,707.519279 279.571979,707.883212 280.213693,708.654415 C280.855407,709.425617 281.029957,710.483527 280.67,711.42 L270.28,739.83 C269.871271,740.920364 268.834385,741.647375 267.67,741.66 C266.586286,741.667509 265.597727,741.042333 265.14,740.06 Z M509.67,735.84 L509.76,735.92 C509.76,743.44 503.21,749.54 495.21,749.54 C490.61078,749.587239 486.249256,747.500651 483.4,743.89 L483.32,743.79 L483.38,743.73 L485.49,741.62 L486.49,740.62 C488.686191,743.253256 491.921505,744.797881 495.35,744.85 C500.84,744.85 505.29,740.85 505.29,735.85 C505.261002,733.014233 503.854806,730.369689 501.52,728.76 C500.89195,728.210888 500.15629,727.798783 499.36,727.55 C498.578228,727.238986 497.762646,727.020826 496.93,726.9 L492.63,726.9 L492.63,723.05 L492.89,722.69 L500.67,712 L486.02,712 L486.02,707.26 L507.02,707.26 L507.02,711 L498.5,722.68 C499.179386,722.830653 499.847625,723.027783 500.5,723.27 C503.79202,724.2264 506.526816,726.529004 508.03,729.61 C508.504165,730.421722 508.886519,731.283694 509.17,732.18 L509.17,732.25 L509.27,732.6 L509.34,732.85 L509.34,732.99 C509.380053,733.096317 509.40692,733.207144 509.42,733.32 C509.486667,733.646667 509.543333,733.98 509.59,734.32 L509.59,734.46 C509.638706,734.895041 509.665407,735.332265 509.67,735.77 L509.67,735.84 Z M320.46,707.74 L320.78,707.35 L325.92,707.4 L326.31,707.65 L334.69,732.93 L335.33,735.73 L335.9,733 L341.55,714.06 L341.55,707.86 L341.55,707.74 L341.87,707.35 L346.38,707.4 L346.69,707.72 L346.69,714.64 L351.97,733 L352.54,735.73 L353.11,732.93 L361.07,707.78 L361.39,707.4 L366.51,707.4 L366.89,707.65 L354.64,741.95 L354.32,742.26 L350.19,742.28 L349.87,741.96 L344.6,723.97 L343.96,721.18 L343.33,723.97 L337.94,741.95 L337.62,742.26 L333.53,742.28 L333.21,741.96 L320.46,707.74 Z M375.83,707.86 L376.14,707.35 L380.71,707.4 L381.03,707.72 L381.03,721.56 L399.58,721.56 L399.58,707.86 L399.89,707.35 L404.47,707.4 L404.79,707.77 L404.79,741.57 L404.47,741.89 L399.89,741.89 L399.58,741.57 L399.58,726.27 L381.03,726.27 L381.03,741.57 L380.71,741.89 L376.14,741.89 L375.83,741.57 L375.83,707.86 Z M427.21,707.71 L427.53,707.4 L432.59,707.4 L432.9,707.71 L445.73,741.61 L445.41,741.93 L440.41,741.93 L440.09,741.61 L437.27,733.67 L422.8,733.67 L419.98,741.61 L419.66,741.93 L414.66,741.93 L414.34,741.61 L427.21,707.71 Z M435.67,729.18 L430.61,714.8 L429.98,712.58 L429.41,714.8 L424.33,729.22 L435.67,729.18 Z M458.68,712.05 L448.64,712.05 L448.32,711.73 L448.32,707.67 L448.64,707.35 L474.02,707.35 L474.27,707.67 L474.25,711.73 L473.87,712.05 L463.88,712.05 L463.88,741.57 L463.56,741.89 L459,741.89 L458.68,741.57 L458.68,712.05 Z M520.09,707.74 L520.41,707.35 L525.55,707.4 L525.92,707.65 L534.31,732.93 L534.95,735.73 L535.52,733 L541.17,714.06 L541.17,707.86 L541.17,707.74 L541.49,707.35 L546,707.4 L546.32,707.72 L546.32,714.64 L551.59,733 L552.16,735.73 L552.73,732.93 L560.69,707.78 L561.01,707.4 L566.14,707.4 L566.52,707.65 L554.26,741.95 L553.94,742.26 L549.8,742.28 L549.49,741.96 L544.22,723.97 L543.59,721.18 L542.96,723.97 L537.55,741.95 L537.23,742.26 L533.15,742.28 L532.84,741.96 L520.09,707.74 Z M572.35,719.78 C572.35,711.52 578.2,707.08 586.9,707.08 C595.6,707.08 601.45,711.52 601.45,719.78 L601.45,730.07 C601.45,738.26 595.6,742.65 586.9,742.65 C578.2,742.65 572.35,738.26 572.35,730.07 L572.35,719.78 Z M586.9,737.94 C592.24,737.94 596.17,735.28 596.17,729.56 L596.17,720.15 C596.17,714.62 592.23,711.76 586.9,711.76 C581.57,711.76 577.63,714.58 577.63,720.15 L577.63,729.57 C577.63,735.29 581.57,737.95 586.9,737.95 L586.9,737.94 Z M613.67,708.16 L613.99,707.85 L623.89,707.85 C630.18,707.85 636.59,709.85 636.59,717.5 C636.59,727.28 626.23,727.73 626.23,727.73 L628.23,729.61 L633.57,735.46 C634.477445,736.641511 635.852876,737.371183 637.34,737.46 C637.744519,737.467068 638.148995,737.443669 638.55,737.39 L638.8,737.71 L638.1,741.71 L637.67,742 C637.208735,742.054166 636.744374,742.077551 636.28,742.07 C633.23,742.07 630.56,739.78 628.85,737.81 L620.53,728.39 L620.09,728.14 L618.82,728.14 L618.82,741.57 L618.5,741.89 L613.92,741.89 L613.6,741.57 L613.67,708.16 Z M623.83,723.59 C627.6,723.59 631.45,722.13 631.45,717.81 C631.45,713.49 627.68,712.28 623.83,712.28 L618.83,712.28 L618.83,723.58 L623.83,723.59 Z M649.4,708.16 L649.72,707.85 L662.1,707.85 C670.74,707.85 676.58,712.29 676.58,720.55 L676.58,729.32 C676.58,737.58 670.73,741.9 662.1,741.9 L649.67,741.9 L649.35,741.58 L649.4,708.16 Z M662.1,737.16 C667.44,737.16 671.31,734.5 671.31,728.84 L671.31,720.93 C671.31,715.4 667.44,712.55 662.1,712.55 L654.57,712.55 L654.57,737.19 L662.1,737.16 Z M684.39,739 L686.8,735.54 L687.37,735.47 C689.605783,736.952773 692.217719,737.767919 694.9,737.82 C698.58,737.82 701.7,736.43 701.7,732.48 C701.7,724.85 685.5,728.35 685.5,717.05 C685.5,710.83 690.65,707.05 696.62,707.05 C700.050514,706.966199 703.430187,707.891089 706.34,709.71 L706.41,710.15 L704,713.58 L703.49,713.65 C701.535434,712.368183 699.236678,711.712392 696.9,711.77 C692.77,711.77 690.9,713.87 690.9,716.77 C690.9,723.57 707.03,720.77 707.03,732.33 C707.03,740.08 700.44,742.49 694.79,742.49 C691.139703,742.363791 687.588513,741.26979 684.5,739.32 L684.39,739 Z" id="w3w-logo-black"></path>
        </g>
    </g>
</svg>