<svg width="375" height="132" viewBox="0 0 375 132" fill="none" xmlns="http://www.w3.org/2000/svg">
<g clip-path="url(#clip0_320_132)">
<path fill-rule="evenodd" clip-rule="evenodd" d="M0 21H375V132H0V21ZM27.4975 38.3H34.18L45.9025 68H38.725L36.565 62.0375H25.135L22.9525 68H15.7525L27.4975 38.3ZM27.385 56.1425H34.3375L30.895 46.4H30.8275L27.385 56.1425ZM48.5252 38.3H55.2527V68H48.5252V38.3ZM72.6072 68V49.5275H79.4472V68H72.6072ZM76.1172 45.725C75.0372 45.725 74.1222 45.35 73.3722 44.6C72.6222 43.835 72.2472 42.9275 72.2472 41.8775C72.2472 40.8275 72.6222 39.92 73.3722 39.155C74.1372 38.375 75.0522 37.985 76.1172 37.985C76.8222 37.985 77.4672 38.165 78.0522 38.525C78.6372 38.87 79.1097 39.335 79.4697 39.92C79.8297 40.505 80.0097 41.1575 80.0097 41.8775C80.0097 42.9275 79.6272 43.835 78.8622 44.6C78.0972 45.35 77.1822 45.725 76.1172 45.725ZM96.872 48.9875C98.162 48.9875 99.422 49.25 100.652 49.775C101.882 50.3 102.895 51.1325 103.69 52.2725C104.485 53.3975 104.882 54.8825 104.882 56.7275V68H98.0195V57.8525C98.0195 56.5325 97.7045 55.5425 97.0745 54.8825C96.4445 54.2075 95.6195 53.87 94.5995 53.87C93.9245 53.87 93.287 54.05 92.687 54.41C92.102 54.755 91.622 55.25 91.247 55.895C90.887 56.525 90.707 57.2525 90.707 58.0775V68H83.867V49.5275H90.707V52.25C90.887 51.755 91.262 51.26 91.832 50.765C92.417 50.255 93.1445 49.835 94.0145 49.505C94.8995 49.16 95.852 48.9875 96.872 48.9875ZM151.163 68H143.086L138.653 49.7753L134.221 68H126.098L119.326 38.3H127.043L130.586 58.9302L136.111 38.3H141.173L146.721 58.9307L150.263 38.3H157.981L151.163 68ZM165.938 60.215C165.983 60.875 166.193 61.46 166.568 61.97C166.943 62.48 167.46 62.885 168.12 63.185C168.795 63.47 169.59 63.6125 170.505 63.6125C171.375 63.6125 172.155 63.5225 172.845 63.3425C173.55 63.1625 174.158 62.9375 174.668 62.6675C175.193 62.3975 175.598 62.12 175.883 61.835L178.538 66.065C178.163 66.47 177.63 66.8675 176.94 67.2575C176.265 67.6325 175.373 67.94 174.263 68.18C173.153 68.42 171.75 68.54 170.055 68.54C168.015 68.54 166.2 68.1575 164.61 67.3925C163.02 66.6275 161.768 65.5025 160.853 64.0175C159.938 62.5325 159.48 60.7175 159.48 58.5725C159.48 56.7725 159.87 55.1525 160.65 53.7125C161.445 52.2575 162.593 51.11 164.093 50.27C165.593 49.415 167.4 48.9875 169.515 48.9875C171.525 48.9875 173.265 49.355 174.735 50.09C176.22 50.825 177.36 51.92 178.155 53.375C178.965 54.815 179.37 56.615 179.37 58.775C179.37 58.895 179.363 59.135 179.348 59.495C179.348 59.855 179.333 60.095 179.303 60.215H165.938ZM172.935 56.6375C172.92 56.1575 172.793 55.685 172.553 55.22C172.313 54.74 171.953 54.35 171.473 54.05C170.993 53.735 170.378 53.5775 169.628 53.5775C168.878 53.5775 168.24 53.7275 167.715 54.0275C167.205 54.3125 166.815 54.6875 166.545 55.1525C166.275 55.6175 166.125 56.1125 166.095 56.6375H172.935ZM182.792 68V37.04H189.632V52.2275C189.767 51.8075 190.112 51.35 190.667 50.855C191.237 50.345 191.98 49.91 192.895 49.55C193.825 49.175 194.875 48.9875 196.045 48.9875C197.845 48.9875 199.405 49.43 200.725 50.315C202.045 51.2 203.065 52.385 203.785 53.87C204.505 55.34 204.865 56.975 204.865 58.775C204.865 60.575 204.505 62.2175 203.785 63.7025C203.065 65.1725 202.045 66.35 200.725 67.235C199.405 68.105 197.845 68.54 196.045 68.54C195.055 68.54 194.117 68.36 193.232 68C192.362 67.655 191.605 67.2125 190.96 66.6725C190.33 66.1175 189.865 65.5625 189.565 65.0075V68H182.792ZM198.16 58.775C198.16 57.935 197.972 57.185 197.597 56.525C197.237 55.85 196.735 55.325 196.09 54.95C195.46 54.56 194.747 54.365 193.952 54.365C193.127 54.365 192.385 54.56 191.725 54.95C191.08 55.325 190.57 55.85 190.195 56.525C189.82 57.185 189.632 57.935 189.632 58.775C189.632 59.615 189.82 60.3725 190.195 61.0475C190.57 61.7075 191.08 62.225 191.725 62.6C192.385 62.975 193.127 63.1625 193.952 63.1625C194.747 63.1625 195.46 62.975 196.09 62.6C196.735 62.225 197.237 61.7075 197.597 61.0475C197.972 60.3725 198.16 59.615 198.16 58.775ZM219.996 38.3H228.928C232.093 38.3 234.711 38.9375 236.781 40.2125C238.866 41.4725 240.426 43.22 241.461 45.455C242.496 47.69 243.013 50.2475 243.013 53.1275C243.013 56.0225 242.496 58.5875 241.461 60.8225C240.426 63.0575 238.866 64.8125 236.781 66.0875C234.711 67.3625 232.093 68 228.928 68H219.996V38.3ZM226.701 44.2625V62.0375H228.321C230.016 62.0375 231.418 61.655 232.528 60.89C233.638 60.11 234.471 59.0525 235.026 57.7175C235.596 56.3675 235.881 54.8525 235.881 53.1725C235.881 51.4775 235.603 49.9625 235.048 48.6275C234.508 47.2775 233.676 46.2125 232.551 45.4325C231.426 44.6525 230.016 44.2625 228.321 44.2625H226.701ZM252.422 60.215C252.467 60.875 252.677 61.46 253.052 61.97C253.427 62.48 253.944 62.885 254.604 63.185C255.279 63.47 256.074 63.6125 256.989 63.6125C257.859 63.6125 258.639 63.5225 259.329 63.3425C260.034 63.1625 260.642 62.9375 261.152 62.6675C261.677 62.3975 262.082 62.12 262.367 61.835L265.022 66.065C264.647 66.47 264.114 66.8675 263.424 67.2575C262.749 67.6325 261.857 67.94 260.747 68.18C259.637 68.42 258.234 68.54 256.539 68.54C254.499 68.54 252.684 68.1575 251.094 67.3925C249.504 66.6275 248.252 65.5025 247.337 64.0175C246.422 62.5325 245.964 60.7175 245.964 58.5725C245.964 56.7725 246.354 55.1525 247.134 53.7125C247.929 52.2575 249.077 51.11 250.577 50.27C252.077 49.415 253.884 48.9875 255.999 48.9875C258.009 48.9875 259.749 49.355 261.219 50.09C262.704 50.825 263.844 51.92 264.639 53.375C265.449 54.815 265.854 56.615 265.854 58.775C265.854 58.895 265.847 59.135 265.832 59.495C265.832 59.855 265.817 60.095 265.787 60.215H252.422ZM259.419 56.6375C259.404 56.1575 259.277 55.685 259.037 55.22C258.797 54.74 258.437 54.35 257.957 54.05C257.477 53.735 256.862 53.5775 256.112 53.5775C255.362 53.5775 254.724 53.7275 254.199 54.0275C253.689 54.3125 253.299 54.6875 253.029 55.1525C252.759 55.6175 252.609 56.1125 252.579 56.6375H259.419ZM277.669 48.9875C278.884 48.9875 279.994 49.0925 280.999 49.3025C282.004 49.4975 282.844 49.7225 283.519 49.9775C284.209 50.2325 284.652 50.4425 284.847 50.6075L282.619 54.635C282.334 54.425 281.802 54.155 281.022 53.825C280.257 53.495 279.402 53.33 278.457 53.33C277.737 53.33 277.129 53.4425 276.634 53.6675C276.139 53.8775 275.892 54.215 275.892 54.68C275.892 55.145 276.162 55.52 276.702 55.805C277.257 56.075 278.052 56.315 279.087 56.525C279.987 56.705 280.902 56.99 281.832 57.38C282.762 57.77 283.534 58.3475 284.149 59.1125C284.779 59.8625 285.094 60.8675 285.094 62.1275C285.094 63.4175 284.817 64.4825 284.262 65.3225C283.707 66.1625 282.972 66.815 282.057 67.28C281.142 67.745 280.152 68.0675 279.087 68.2475C278.022 68.4425 276.987 68.54 275.982 68.54C274.572 68.54 273.342 68.4125 272.292 68.1575C271.257 67.9025 270.417 67.61 269.772 67.28C269.127 66.95 268.677 66.6875 268.422 66.4925L270.627 61.9925C271.017 62.3225 271.654 62.6975 272.539 63.1175C273.424 63.5225 274.362 63.725 275.352 63.725C276.312 63.725 277.054 63.5825 277.579 63.2975C278.104 63.0125 278.367 62.6375 278.367 62.1725C278.367 61.7975 278.239 61.4975 277.984 61.2725C277.729 61.0475 277.369 60.8525 276.904 60.6875C276.439 60.5225 275.877 60.3725 275.217 60.2375C274.617 60.1175 273.979 59.93 273.304 59.675C272.629 59.42 271.992 59.075 271.392 58.64C270.792 58.19 270.304 57.6275 269.929 56.9525C269.554 56.2775 269.367 55.46 269.367 54.5C269.367 53.27 269.764 52.25 270.559 51.44C271.354 50.63 272.382 50.0225 273.642 49.6175C274.902 49.1975 276.244 48.9875 277.669 48.9875ZM288.95 68V49.5275H295.79V68H288.95ZM292.46 45.725C291.38 45.725 290.465 45.35 289.715 44.6C288.965 43.835 288.59 42.9275 288.59 41.8775C288.59 40.8275 288.965 39.92 289.715 39.155C290.48 38.375 291.395 37.985 292.46 37.985C293.165 37.985 293.81 38.165 294.395 38.525C294.98 38.87 295.452 39.335 295.812 39.92C296.172 40.505 296.352 41.1575 296.352 41.8775C296.352 42.9275 295.97 43.835 295.205 44.6C294.44 45.35 293.525 45.725 292.46 45.725ZM310.2 77.8775C308.91 77.8775 307.627 77.765 306.352 77.54C305.092 77.315 303.915 76.9325 302.82 76.3925C301.725 75.8525 300.802 75.11 300.052 74.165L304.057 70.0025C304.402 70.4075 304.822 70.805 305.317 71.195C305.827 71.585 306.45 71.9075 307.185 72.1625C307.935 72.4175 308.842 72.545 309.907 72.545C310.897 72.545 311.76 72.3725 312.495 72.0275C313.23 71.6825 313.8 71.18 314.205 70.52C314.625 69.86 314.835 69.0575 314.835 68.1125V68V67.6625V65.0075C314.7 65.3075 314.355 65.7425 313.8 66.3125C313.26 66.8825 312.54 67.4 311.64 67.865C310.74 68.315 309.69 68.54 308.49 68.54C306.69 68.54 305.115 68.105 303.765 67.235C302.415 66.35 301.365 65.1725 300.615 63.7025C299.865 62.2175 299.49 60.575 299.49 58.775C299.49 56.975 299.865 55.34 300.615 53.87C301.365 52.385 302.415 51.2 303.765 50.315C305.115 49.43 306.69 48.9875 308.49 48.9875C309.645 48.9875 310.657 49.175 311.527 49.55C312.397 49.91 313.102 50.345 313.642 50.855C314.182 51.35 314.557 51.8075 314.767 52.2275V49.5275H321.562V67.6625V68V68.5175C321.562 70.5575 321.052 72.275 320.032 73.67C319.027 75.065 317.67 76.115 315.96 76.82C314.25 77.525 312.33 77.8775 310.2 77.8775ZM306.195 58.775C306.195 59.615 306.39 60.3725 306.78 61.0475C307.17 61.7075 307.687 62.225 308.332 62.6C308.992 62.975 309.72 63.1625 310.515 63.1625C311.34 63.1625 312.067 62.975 312.697 62.6C313.327 62.225 313.822 61.7075 314.182 61.0475C314.557 60.3725 314.745 59.615 314.745 58.775C314.745 57.935 314.557 57.185 314.182 56.525C313.822 55.85 313.327 55.325 312.697 54.95C312.067 54.56 311.34 54.365 310.515 54.365C309.72 54.365 308.992 54.56 308.332 54.95C307.687 55.325 307.17 55.85 306.78 56.525C306.39 57.185 306.195 57.935 306.195 58.775ZM338.659 48.9875C339.949 48.9875 341.209 49.25 342.439 49.775C343.669 50.3 344.682 51.1325 345.477 52.2725C346.272 53.3975 346.669 54.8825 346.669 56.7275V68H339.807V57.8525C339.807 56.5325 339.492 55.5425 338.862 54.8825C338.232 54.2075 337.407 53.87 336.387 53.87C335.712 53.87 335.074 54.05 334.474 54.41C333.889 54.755 333.409 55.25 333.034 55.895C332.674 56.525 332.494 57.2525 332.494 58.0775V68H325.654V49.5275H332.494V52.25C332.674 51.755 333.049 51.26 333.619 50.765C334.204 50.255 334.932 49.835 335.802 49.505C336.687 49.16 337.639 48.9875 338.659 48.9875ZM37.3525 110.272C36.2275 110.677 34.975 110.88 33.595 110.88C32.065 110.88 30.73 110.647 29.59 110.183C28.45 109.702 27.4975 109.05 26.7325 108.225C25.9675 107.4 25.3975 106.47 25.0225 105.435C24.6475 104.385 24.46 103.283 24.46 102.128C24.46 100.987 24.6475 99.9 25.0225 98.865C25.3975 97.83 25.9675 96.9 26.7325 96.075C27.4975 95.25 28.45 94.605 29.59 94.14C30.73 93.66 32.065 93.42 33.595 93.42C34.975 93.42 36.2275 93.6225 37.3525 94.0275C38.4925 94.4175 39.34 94.815 39.895 95.22L42.775 89.505C42.07 88.905 40.8625 88.2975 39.1525 87.6825C37.4575 87.0675 35.44 86.76 33.1 86.76C30.91 86.76 28.8475 87.15 26.9125 87.93C24.9925 88.695 23.2975 89.775 21.8275 91.17C20.3725 92.565 19.2325 94.2075 18.4075 96.0975C17.5825 97.9725 17.17 100.005 17.17 102.195C17.17 104.385 17.5825 106.417 18.4075 108.292C19.2475 110.152 20.395 111.78 21.85 113.175C23.32 114.555 25.015 115.628 26.935 116.393C28.855 117.158 30.91 117.54 33.1 117.54C35.44 117.54 37.4575 117.232 39.1525 116.618C40.8625 116.003 42.07 115.395 42.775 114.795L39.895 109.08C39.34 109.47 38.4925 109.868 37.3525 110.272ZM50.8989 116.302C52.4739 117.128 54.2739 117.54 56.2989 117.54C58.3239 117.54 60.1089 117.128 61.6539 116.302C63.1989 115.463 64.4064 114.315 65.2764 112.86C66.1464 111.39 66.5814 109.71 66.5814 107.82C66.5814 105.93 66.1464 104.25 65.2764 102.78C64.4064 101.295 63.1989 100.125 61.6539 99.27C60.1089 98.415 58.3239 97.9875 56.2989 97.9875C54.2739 97.9875 52.4739 98.415 50.8989 99.27C49.3389 100.125 48.1089 101.295 47.2089 102.78C46.3239 104.25 45.8814 105.93 45.8814 107.82C45.8814 109.71 46.3239 111.39 47.2089 112.86C48.1089 114.315 49.3389 115.463 50.8989 116.302ZM58.3239 111.397C57.7539 111.743 57.0789 111.915 56.2989 111.915C55.5189 111.915 54.8364 111.743 54.2514 111.397C53.6814 111.052 53.2314 110.565 52.9014 109.935C52.5864 109.305 52.4289 108.592 52.4289 107.798C52.4289 106.988 52.5864 106.268 52.9014 105.637C53.2314 105.007 53.6814 104.512 54.2514 104.152C54.8364 103.792 55.5189 103.613 56.2989 103.613C57.0789 103.613 57.7539 103.792 58.3239 104.152C58.8939 104.512 59.3364 105.007 59.6514 105.637C59.9664 106.268 60.1239 106.988 60.1239 107.798C60.1239 108.592 59.9664 109.305 59.6514 109.935C59.3364 110.565 58.8939 111.052 58.3239 111.397ZM86.6335 98.775C85.4035 98.25 84.1435 97.9875 82.8535 97.9875C81.8335 97.9875 80.881 98.16 79.996 98.505C79.126 98.835 78.3985 99.255 77.8135 99.765C77.2435 100.26 76.8685 100.755 76.6885 101.25V98.5275H69.8485V117H76.6885V107.077C76.6885 106.253 76.8685 105.525 77.2285 104.895C77.6035 104.25 78.0835 103.755 78.6685 103.41C79.2685 103.05 79.906 102.87 80.581 102.87C81.601 102.87 82.426 103.207 83.056 103.882C83.686 104.542 84.001 105.533 84.001 106.853V117H90.8635V105.728C90.8635 103.882 90.466 102.397 89.671 101.272C88.876 100.132 87.8635 99.3 86.6335 98.775ZM96.4807 98.5275H93.4207V104.152H96.4807V117H103.298V104.152H107.866V98.5275H103.298V94.2525C103.298 93.4425 103.396 92.8275 103.591 92.4075C103.801 91.9875 104.063 91.695 104.378 91.53C104.693 91.365 105.008 91.2825 105.323 91.2825C105.818 91.2825 106.216 91.395 106.516 91.62C106.816 91.845 107.003 92.0175 107.078 92.1375L109.688 87.12C109.463 86.91 108.923 86.5875 108.068 86.1525C107.228 85.7175 105.998 85.5 104.378 85.5C103.073 85.5 101.813 85.8075 100.598 86.4225C99.3832 87.0375 98.3932 87.945 97.6282 89.145C96.8632 90.345 96.4807 91.845 96.4807 93.645V98.5275ZM116.777 110.97C116.403 110.46 116.192 109.875 116.147 109.215H129.512C129.542 109.095 129.557 108.855 129.557 108.495C129.572 108.135 129.58 107.895 129.58 107.775C129.58 105.615 129.175 103.815 128.365 102.375C127.57 100.92 126.43 99.825 124.945 99.09C123.475 98.355 121.735 97.9875 119.725 97.9875C117.61 97.9875 115.802 98.415 114.302 99.27C112.802 100.11 111.655 101.257 110.86 102.713C110.08 104.152 109.69 105.772 109.69 107.573C109.69 109.717 110.147 111.533 111.062 113.018C111.978 114.503 113.23 115.628 114.82 116.393C116.41 117.158 118.225 117.54 120.265 117.54C121.96 117.54 123.363 117.42 124.473 117.18C125.583 116.94 126.475 116.632 127.15 116.257C127.84 115.868 128.372 115.47 128.747 115.065L126.092 110.835C125.808 111.12 125.403 111.397 124.878 111.668C124.368 111.938 123.76 112.162 123.055 112.342C122.365 112.522 121.585 112.613 120.715 112.613C119.8 112.613 119.005 112.47 118.33 112.185C117.67 111.885 117.152 111.48 116.777 110.97ZM122.762 104.22C123.003 104.685 123.13 105.158 123.145 105.637H116.305C116.335 105.113 116.485 104.618 116.755 104.152C117.025 103.688 117.415 103.312 117.925 103.027C118.45 102.728 119.088 102.577 119.838 102.577C120.588 102.577 121.202 102.735 121.683 103.05C122.162 103.35 122.522 103.74 122.762 104.22ZM132.53 117H139.37V107.73C139.37 107.145 139.505 106.522 139.775 105.862C140.06 105.202 140.495 104.64 141.08 104.175C141.68 103.71 142.437 103.478 143.352 103.478C144.147 103.478 144.807 103.62 145.332 103.905C145.872 104.175 146.247 104.438 146.457 104.692L149.112 99.135C148.782 98.895 148.257 98.6475 147.537 98.3925C146.817 98.1225 146.03 97.9875 145.175 97.9875C143.96 97.9875 142.932 98.205 142.092 98.64C141.252 99.06 140.6 99.54 140.135 100.08C139.778 100.482 139.523 100.832 139.37 101.128V98.5275H132.53V117ZM156.548 110.97C156.173 110.46 155.963 109.875 155.918 109.215H169.283C169.313 109.095 169.328 108.855 169.328 108.495C169.343 108.135 169.351 107.895 169.351 107.775C169.351 105.615 168.946 103.815 168.136 102.375C167.341 100.92 166.201 99.825 164.716 99.09C163.246 98.355 161.506 97.9875 159.496 97.9875C157.381 97.9875 155.573 98.415 154.073 99.27C152.573 100.11 151.426 101.257 150.631 102.713C149.851 104.152 149.461 105.772 149.461 107.573C149.461 109.717 149.918 111.533 150.833 113.018C151.748 114.503 153.001 115.628 154.591 116.393C156.181 117.158 157.996 117.54 160.036 117.54C161.731 117.54 163.133 117.42 164.243 117.18C165.353 116.94 166.246 116.632 166.921 116.257C167.611 115.868 168.143 115.47 168.518 115.065L165.863 110.835C165.578 111.12 165.173 111.397 164.648 111.668C164.138 111.938 163.531 112.162 162.826 112.342C162.136 112.522 161.356 112.613 160.486 112.613C159.571 112.613 158.776 112.47 158.101 112.185C157.441 111.885 156.923 111.48 156.548 110.97ZM162.533 104.22C162.773 104.685 162.901 105.158 162.916 105.637H156.076C156.106 105.113 156.256 104.618 156.526 104.152C156.796 103.688 157.186 103.312 157.696 103.027C158.221 102.728 158.858 102.577 159.608 102.577C160.358 102.577 160.973 102.735 161.453 103.05C161.933 103.35 162.293 103.74 162.533 104.22ZM189.378 98.775C188.148 98.25 186.888 97.9875 185.598 97.9875C184.578 97.9875 183.625 98.16 182.74 98.505C181.87 98.835 181.143 99.255 180.558 99.765C179.988 100.26 179.613 100.755 179.433 101.25V98.5275H172.593V117H179.433V107.077C179.433 106.253 179.613 105.525 179.973 104.895C180.348 104.25 180.828 103.755 181.413 103.41C182.013 103.05 182.65 102.87 183.325 102.87C184.345 102.87 185.17 103.207 185.8 103.882C186.43 104.542 186.745 105.533 186.745 106.853V117H193.608V105.728C193.608 103.882 193.21 102.397 192.415 101.272C191.62 100.132 190.608 99.3 189.378 98.775ZM209.71 111.735C209.155 112.02 208.45 112.162 207.595 112.162C206.86 112.162 206.17 111.975 205.525 111.6C204.895 111.225 204.385 110.707 203.995 110.048C203.605 109.372 203.41 108.607 203.41 107.753C203.41 106.897 203.605 106.14 203.995 105.48C204.385 104.82 204.895 104.302 205.525 103.927C206.17 103.552 206.86 103.365 207.595 103.365C208.195 103.365 208.712 103.44 209.147 103.59C209.582 103.74 209.935 103.912 210.205 104.107C210.49 104.302 210.685 104.452 210.79 104.558L213.985 99.8775C213.745 99.6675 213.325 99.42 212.725 99.135C212.125 98.835 211.382 98.5725 210.497 98.3475C209.627 98.1075 208.637 97.9875 207.527 97.9875C205.412 97.9875 203.552 98.3925 201.947 99.2025C200.342 99.9975 199.09 101.122 198.19 102.577C197.305 104.033 196.862 105.757 196.862 107.753C196.862 109.732 197.305 111.457 198.19 112.927C199.09 114.397 200.342 115.537 201.947 116.348C203.552 117.143 205.412 117.54 207.527 117.54C208.652 117.54 209.65 117.427 210.52 117.202C211.405 116.978 212.14 116.715 212.725 116.415C213.31 116.1 213.722 115.845 213.962 115.65L210.835 111.015C210.64 111.195 210.265 111.435 209.71 111.735ZM222.818 110.97C222.443 110.46 222.233 109.875 222.188 109.215H235.553C235.583 109.095 235.598 108.855 235.598 108.495C235.613 108.135 235.62 107.895 235.62 107.775C235.62 105.615 235.215 103.815 234.405 102.375C233.61 100.92 232.47 99.825 230.985 99.09C229.515 98.355 227.775 97.9875 225.765 97.9875C223.65 97.9875 221.843 98.415 220.343 99.27C218.843 100.11 217.695 101.257 216.9 102.713C216.12 104.152 215.73 105.772 215.73 107.573C215.73 109.717 216.188 111.533 217.103 113.018C218.018 114.503 219.27 115.628 220.86 116.393C222.45 117.158 224.265 117.54 226.305 117.54C228 117.54 229.403 117.42 230.513 117.18C231.623 116.94 232.515 116.632 233.19 116.257C233.88 115.868 234.413 115.47 234.788 115.065L232.133 110.835C231.848 111.12 231.443 111.397 230.918 111.668C230.408 111.938 229.8 112.162 229.095 112.342C228.405 112.522 227.625 112.613 226.755 112.613C225.84 112.613 225.045 112.47 224.37 112.185C223.71 111.885 223.193 111.48 222.818 110.97ZM228.803 104.22C229.043 104.685 229.17 105.158 229.185 105.637H222.345C222.375 105.113 222.525 104.618 222.795 104.152C223.065 103.688 223.455 103.312 223.965 103.027C224.49 102.728 225.128 102.577 225.878 102.577C226.628 102.577 227.243 102.735 227.723 103.05C228.203 103.35 228.563 103.74 228.803 104.22ZM238.997 98.3475L240.617 99.765C241.577 99.33 242.47 98.7375 243.295 97.9875C244.135 97.2225 244.817 96.3 245.342 95.22C245.882 94.14 246.152 92.91 246.152 91.53C246.152 89.925 245.755 88.71 244.96 87.885C244.18 87.045 243.197 86.625 242.012 86.625C240.857 86.625 239.882 87.0075 239.087 87.7725C238.292 88.5375 237.895 89.5725 237.895 90.8775C237.895 92.0925 238.217 92.9925 238.862 93.5775C239.522 94.1475 240.22 94.4325 240.955 94.4325C241.315 94.4325 241.667 94.3875 242.012 94.2975C242.357 94.2075 242.605 94.0875 242.755 93.9375C242.74 94.6125 242.492 95.2575 242.012 95.8725C241.547 96.4725 241.015 96.9975 240.415 97.4475C239.83 97.8825 239.357 98.1825 238.997 98.3475ZM258.108 93.195C258.873 92.715 259.751 92.475 260.741 92.475C262.016 92.475 262.998 92.7675 263.688 93.3525C264.393 93.9225 264.746 94.905 264.746 96.3C264.746 97.185 264.416 98.1525 263.756 99.2025C263.096 100.253 262.241 101.325 261.191 102.42C260.156 103.515 259.031 104.58 257.816 105.615C256.616 106.635 255.453 107.573 254.328 108.427C253.218 109.283 252.266 109.995 251.471 110.565C250.676 111.135 250.166 111.503 249.941 111.668V117H271.248V111.15H260.066C260.186 111.06 260.546 110.82 261.146 110.43C261.746 110.04 262.473 109.515 263.328 108.855C264.198 108.18 265.106 107.4 266.051 106.515C266.996 105.615 267.881 104.632 268.706 103.567C269.531 102.488 270.198 101.347 270.708 100.147C271.233 98.9325 271.496 97.68 271.496 96.39C271.496 95.355 271.323 94.275 270.978 93.15C270.633 92.025 270.056 90.9825 269.246 90.0225C268.451 89.0475 267.356 88.26 265.961 87.66C264.581 87.06 262.841 86.76 260.741 86.76C258.926 86.76 257.351 87.0075 256.016 87.5025C254.681 87.9825 253.556 88.59 252.641 89.325C251.741 90.06 251.013 90.8175 250.458 91.5975C249.903 92.3775 249.498 93.0675 249.243 93.6675C248.988 94.2525 248.846 94.6425 248.816 94.8375L254.576 97.47C254.606 97.38 254.756 97.08 255.026 96.57C255.296 96.045 255.686 95.4675 256.196 94.8375C256.721 94.2075 257.358 93.66 258.108 93.195ZM276.258 91.215C275.778 91.965 275.456 92.64 275.291 93.24L280.736 95.8275C280.796 95.5275 280.931 95.175 281.141 94.77C281.366 94.35 281.666 93.945 282.041 93.555C282.416 93.15 282.881 92.82 283.436 92.565C284.006 92.295 284.666 92.16 285.416 92.16C286.646 92.16 287.583 92.4975 288.228 93.1725C288.873 93.8325 289.196 94.635 289.196 95.58C289.196 96.285 289.031 96.9 288.701 97.425C288.386 97.935 287.951 98.3325 287.396 98.6175C286.841 98.8875 286.218 99.0225 285.528 99.0225H284.763V103.838H285.348C286.143 103.838 286.871 103.972 287.531 104.243C288.191 104.512 288.716 104.925 289.106 105.48C289.511 106.035 289.713 106.732 289.713 107.573C289.713 108.382 289.533 109.103 289.173 109.732C288.828 110.347 288.333 110.835 287.688 111.195C287.043 111.555 286.263 111.735 285.348 111.735C284.463 111.735 283.683 111.495 283.008 111.015C282.333 110.52 281.778 109.92 281.343 109.215C280.923 108.51 280.623 107.835 280.443 107.19L274.278 110.25C274.578 111.3 275.178 112.387 276.078 113.512C276.993 114.637 278.216 115.59 279.746 116.37C281.291 117.15 283.166 117.54 285.371 117.54C287.501 117.54 289.391 117.12 291.041 116.28C292.691 115.44 293.988 114.293 294.933 112.838C295.893 111.368 296.373 109.688 296.373 107.798C296.373 106.478 296.111 105.33 295.586 104.355C295.076 103.38 294.446 102.6 293.696 102.015C292.961 101.43 292.226 101.092 291.491 101.003C292.121 100.838 292.721 100.478 293.291 99.9225C293.861 99.3675 294.326 98.6775 294.686 97.8525C295.046 97.0125 295.226 96.09 295.226 95.085C295.226 93.42 294.806 91.965 293.966 90.72C293.126 89.475 291.971 88.5075 290.501 87.8175C289.046 87.1125 287.373 86.76 285.483 86.76C283.893 86.76 282.491 86.9775 281.276 87.4125C280.076 87.8475 279.056 88.4025 278.216 89.0775C277.391 89.7525 276.738 90.465 276.258 91.215Z" fill="white"/>
<rect width="93.0021" height="21.58" transform="matrix(0.849375 0.527789 -0.520809 0.853673 297.205 0.131409)" fill="#73F9BC"/>
<path d="M301.696 7.35163L299.983 6.28702L293.765 16.4792L295.478 17.5439L301.696 7.35163ZM302.294 17.634C302.703 16.9633 302.908 16.3097 302.908 15.6733C302.923 15.0336 302.781 14.4526 302.481 13.9302C302.191 13.4133 301.791 12.9966 301.281 12.6799C300.903 12.4452 300.511 12.3036 300.104 12.2551C299.703 12.1979 299.301 12.2307 298.899 12.3533C298.506 12.4814 298.129 12.7033 297.766 13.0188C297.41 13.3257 297.082 13.723 296.785 14.2109C296.487 14.6987 296.28 15.1769 296.164 15.6453C296.053 16.105 296.03 16.5409 296.093 16.9529C296.166 17.3703 296.315 17.7514 296.541 18.096C296.772 18.432 297.077 18.7173 297.455 18.9521C297.964 19.2687 298.513 19.4416 299.101 19.4706C299.698 19.5052 300.276 19.3718 300.836 19.0707C301.404 18.775 301.89 18.2961 302.294 17.634ZM300.501 16.5203C300.283 16.8774 300.02 17.1403 299.711 17.3088C299.408 17.4686 299.09 17.5418 298.759 17.5283C298.428 17.5148 298.113 17.4153 297.815 17.2296C297.63 17.115 297.47 16.9611 297.333 16.7681C297.196 16.575 297.096 16.3624 297.031 16.1302C296.972 15.8893 296.961 15.6299 296.997 15.3521C297.042 15.0797 297.15 14.8041 297.32 14.5254C297.485 14.2553 297.675 14.0431 297.89 13.8886C298.12 13.7309 298.352 13.6287 298.586 13.5822C298.826 13.5269 299.062 13.5174 299.294 13.5536C299.526 13.5899 299.735 13.6653 299.919 13.78C300.218 13.9656 300.448 14.2045 300.609 14.4968C300.77 14.789 300.845 15.1122 300.835 15.4664C300.83 15.8118 300.719 16.1631 300.501 16.5203Z" fill="#000E1B"/>
<path d="M310.992 18.8946L309.2 17.7808L304.374 21.3415L305.202 21.8918L306.182 15.9055L304.271 14.718L303.501 21.7001L299.852 24.2259L301.618 25.3233L310.992 18.8946Z" fill="#000E1B"/>
<path d="M313.462 23.911L314.43 22.3237L321.008 23.1283L319.86 25.0101L316.331 24.5372L318.338 27.504L317.135 29.4763L313.462 23.911Z" fill="#171716"/>
<path d="M367.674 55.4067L366.706 56.994L360.128 56.1892L361.276 54.3076L364.805 54.7806L362.798 51.8137L364.001 49.8414L367.674 55.4067Z" fill="#171716"/>
<path d="M322.098 36.8595C320.047 35.5853 319.213 34.3789 319.766 33.4719C320.07 32.973 320.716 32.8426 321.482 33.1312C321.174 32.5804 321.138 31.9953 321.408 31.5533C321.768 30.9637 322.436 30.7694 323.336 30.9689C323.171 30.6253 323.095 30.2467 323.115 29.8682C323.135 29.4896 323.249 29.1233 323.448 28.8031C323.619 28.5114 323.857 28.2649 324.142 28.0837C324.428 27.9025 324.752 27.7914 325.09 27.7596C325.822 27.6671 326.584 27.8595 327.359 28.3407C328.179 28.8504 328.728 29.5201 328.942 30.278C329.51 30.0681 330.105 30.1727 330.8 30.6045L329.915 32.0557C329.609 31.8515 329.274 31.696 328.922 31.5951C328.869 31.7617 328.797 31.9218 328.709 32.0726C328.538 32.3669 328.299 32.6157 328.013 32.7989C327.726 32.9821 327.4 33.0946 327.06 33.1272C326.329 33.2195 325.585 33.0231 324.799 32.5348C324.524 32.3613 324.268 32.1601 324.034 31.9344C323.712 31.844 323.502 31.8539 323.412 32.0012C323.28 32.2165 323.375 32.3697 323.706 32.575L325.95 33.9692C327.259 34.7831 327.634 35.8441 327.004 36.8761C326.168 38.2473 324.319 38.2397 322.098 36.8595ZM322.874 35.6381C324.093 36.3954 324.791 36.5637 325.034 36.1668C325.165 35.9514 325.047 35.7063 324.729 35.5082L323.043 34.4605C322.279 33.9863 321.884 33.9128 321.691 34.2301C321.49 34.5593 321.872 35.0152 322.874 35.6381ZM326.608 29.5948C326.073 29.2622 325.579 29.3771 325.247 29.9213C324.922 30.454 325.051 30.9882 325.564 31.3067C326.076 31.6252 326.589 31.506 326.921 30.9618C327.253 30.4175 327.144 29.9271 326.608 29.5944L326.608 29.5948Z" fill="#171716"/>
<path d="M328.864 36.5276C328.657 35.6323 328.833 34.7256 329.4 33.7961C329.939 32.912 330.666 32.3635 331.571 32.1431C332.481 31.9117 333.372 32.0743 334.249 32.619C335.058 33.1215 335.566 33.7813 335.745 34.596C335.935 35.4176 335.777 36.2422 335.259 37.0921C335.093 37.3642 334.918 37.5995 334.789 37.7851L330.996 35.4285C330.672 36.243 330.856 36.8425 331.665 37.345C332.199 37.6492 332.826 37.7366 333.417 37.5891L333.741 39.323C332.723 39.6281 331.727 39.4314 330.577 38.7167C329.654 38.1437 329.079 37.4116 328.864 36.5276ZM331.735 34.294L333.66 35.4901C334.037 34.8484 333.918 34.3211 333.372 33.9813C332.825 33.6415 332.259 33.7441 331.735 34.294Z" fill="#171716"/>
<path d="M335.312 40.5347C335.104 39.6395 335.28 38.7328 335.847 37.8033C336.386 36.9191 337.114 36.3706 338.018 36.1502C338.929 35.9189 339.819 36.0814 340.696 36.6262C341.505 37.1287 342.013 37.7885 342.192 38.6032C342.382 39.4248 342.225 40.2495 341.706 41.0993C341.54 41.3714 341.365 41.6067 341.236 41.7924L337.443 39.4354C337.119 40.25 337.303 40.8494 338.112 41.352C338.646 41.6561 339.273 41.7436 339.864 41.5961L340.188 43.33C339.17 43.6351 338.174 43.4384 337.024 42.7237C336.101 42.1507 335.526 41.4187 335.312 40.5347ZM338.183 38.3011L340.108 39.4973C340.484 38.8553 340.365 38.3283 339.818 37.9886C339.272 37.6489 338.706 37.7512 338.182 38.301L338.183 38.3011Z" fill="#171716"/>
<path d="M346.694 43.684L346.833 48.632L344.554 47.2162L344.548 44.0859L343.857 44.266L342.744 46.0911L340.83 44.9019L345.878 36.6268L347.792 37.8161L345.171 42.1124L347.993 41.3489L350.294 42.7785L346.694 43.684Z" fill="#171716"/>
<path d="M347.461 49.0208L352.509 40.7458L354.423 41.935L349.374 50.2101L347.461 49.0208Z" fill="#171716"/>
<path d="M351.625 50.6714C351.417 49.7762 351.593 48.8695 352.16 47.94C352.699 47.0559 353.427 46.5074 354.331 46.287C355.242 46.0556 356.133 46.2181 357.009 46.7629C357.818 47.2655 358.326 47.9253 358.505 48.74C358.695 49.5615 358.538 50.3862 358.019 51.2361C357.853 51.5082 357.678 51.7435 357.549 51.9292L353.756 49.5721C353.432 50.3866 353.616 50.9861 354.425 51.4886C354.958 51.7928 355.586 51.8802 356.177 51.7328L356.501 53.4666C355.483 53.7718 354.487 53.5751 353.337 52.8604C352.414 52.2873 351.84 51.5554 351.625 50.6714ZM354.496 48.4379L356.421 49.634C356.797 48.992 356.678 48.465 356.131 48.1253C355.585 47.7856 355.02 47.888 354.496 48.4379Z" fill="#171716"/>
</g>
<defs>
<clipPath id="clip0_320_132">
<rect width="375" height="132" fill="white"/>
</clipPath>
</defs>
</svg>
