<?xml version="1.0" encoding="UTF-8"?>
<svg width="487px" height="82px" viewBox="0 0 487 82" version="1.1" xmlns="http://www.w3.org/2000/svg" xmlns:xlink="http://www.w3.org/1999/xlink">
    <!-- Generator: Sketch 53.1 (72631) - https://sketchapp.com -->
    <title>Barclays_logo Copy</title>
    <desc>Created with Sketch.</desc>
    <g id="Page-1" stroke="none" stroke-width="1" fill="none" fill-rule="evenodd">
        <g id="barclays" transform="translate(-77.000000, -70.000000)" fill="#FFFFFF" fill-rule="nonzero">
            <g id="Barclays_logo-Copy" transform="translate(77.000000, 70.000000)">
                <path d="M485.375351,24.180567 C482.769633,19.4385759 477.152689,15.8420186 471.051751,15.8420186 C465.68596,15.8420186 460.966367,18.0488178 460.966367,23.7707329 C460.966367,28.5889111 466.907718,31.8570756 473.092373,35.863467 C479.842124,40.1115555 486.843029,45.3369408 486.843029,54.4110889 C486.843029,66.2594989 475.371068,73.5288005 462.107023,73.5288005 C456.654898,73.5288005 450.962085,72.4674352 444.534124,70.0163118 L445.588446,54.245579 C448.68339,60.540211 454.462537,65.521272 462.999141,65.521272 C469.591921,65.521272 474.471102,62.337176 474.471102,56.7781437 C474.471102,52.0387798 470.481423,49.099008 465.604859,46.1592362 C455.349423,39.9512998 448.845593,34.9623574 448.845593,25.9775321 C448.845593,12.4924127 460.071633,8 471.705797,8 C478.455548,8 482.691147,9.22687527 487,9.22687527 L485.375351,24.180567 M428.504774,38.3119633 C427.034479,40.7657138 425.171757,44.1100655 424.025869,46.5664432 C423.052649,51.2217386 422.563423,57.4349292 422.563423,64.2943967 C422.563423,67.1553543 423.052649,70.9936086 424.352892,72.3019253 L407.350321,72.3019253 C410.356315,69.4435949 411.580688,51.8811512 411.421101,46.322119 C409.142406,38.398659 406.044846,30.7983375 401.327869,21.5639337 C398.324491,15.7658315 394.821423,10.2856135 392.623829,9.22687527 C396.446072,8.90373682 401.327869,8.65678548 403.690282,8.65678548 C407.918033,8.65678548 409.061305,9.22687527 411.667022,14.9487903 C415.727338,24.1831941 418.738564,31.1214759 420.530649,36.2733012 C424.844734,29.4900208 427.853344,24.8347253 431.759305,18.4612791 C432.735141,16.9086382 433.548774,14.9487903 433.548774,13.0677567 C433.548774,11.5939301 433.302852,9.962475 432.654039,9.22687527 L449.497023,9.22687527 C446.242491,9.962475 431.594485,33.086578 428.504774,38.3119633 M369.352885,24.0203113 L359.267501,45.9937262 L375.699744,45.9937262 L369.352885,24.0203113 M389.125993,72.8720151 C383.752354,72.8720151 383.349462,72.7117594 379.035377,57.8421362 L377.491829,52.3671725 C374.891344,53.5914206 370.24762,54.1641376 362.846439,54.1641376 L355.361541,54.1641376 L354.058682,56.9410265 C352.188111,61.1129279 349.666111,66.0072933 349.666111,69.446222 C349.666111,70.2632631 349.747213,71.1591185 350.074236,72.3045524 L305.648839,72.3045524 C308.173456,69.446222 308.987088,60.2144454 310.206229,43.4611614 L310.449534,39.4600243 C311.100964,29.8998549 311.595422,22.5464847 311.509088,17.4025409 C311.427987,13.1544524 311.019862,10.4563777 309.881823,9.23212955 L327.051829,9.23212955 C324.608315,11.1131632 323.710964,21.2407952 322.575541,37.9940791 L322.248518,41.9952162 C321.840393,48.2057797 321.029377,54.5765988 321.029377,60.7871623 C321.029377,63.6428655 322.167416,64.2970239 325.100157,64.2970239 C335.509947,64.2970239 338.118281,64.0526997 342.832642,60.8659766 C345.760151,55.4724542 349.101016,48.6891738 352.350315,41.6641964 L356.750734,32.2695369 C360.897383,23.4449673 364.962931,14.4548877 364.962931,12.7419911 C364.962931,11.5124887 364.638524,10.3723091 364.15453,9.22687527 L377.821468,9.22687527 C377.821468,9.22687527 383.352078,29.8184135 384.573836,34.2267576 L387.255423,44.1967612 C391.891298,60.947418 394.824039,69.1152021 398.73,72.3019253 C395.470236,72.7117594 390.83436,72.8720151 389.125993,72.8720151 M278.396065,73.5288005 C262.204511,73.5288005 252.846426,60.1303768 252.846426,45.0978708 C252.846426,24.1831941 264.153567,8 285.716144,8 C292.468511,8 295.644557,9.22687527 301.091449,9.22687527 L299.4668,25.3233737 C296.374472,19.6855272 291.327856,15.8446457 284.578105,15.8446457 C271.154472,15.8446457 265.702347,30.3911305 265.702347,42.8910716 C265.702347,56.4523782 273.270964,63.8845626 283.356347,63.8845626 C288.808472,63.8845626 293.606551,62.4133631 301.664393,56.7781437 C298.409862,67.2394228 290.841246,73.5288005 278.396065,73.5288005 M222.258019,16.9086382 C220.711855,16.9086382 218.836053,16.9086382 217.376223,17.071521 C216.886997,19.7669686 216.478872,24.4248912 215.908544,31.938517 L215.581521,36.3547426 C216.400387,36.5202525 217.454708,36.6043211 218.43316,36.6043211 C226.239849,36.6043211 231.613488,31.8597028 231.613488,24.6744697 C231.613488,19.7669686 228.196754,16.9086382 222.258019,16.9086382 M244.953403,75 C240.317528,75 239.176872,74.2617731 237.633324,72.1364153 L220.05781,47.6251814 C218.673849,45.7467749 217.616911,44.194134 215.421934,44.194134 L215.01381,44.194134 L214.692019,48.933498 C214.281279,55.3883857 214.037974,60.540211 214.037974,64.3784653 C214.119075,68.6265537 214.608301,71.2379328 215.748957,72.3019253 L198.74377,72.3019253 C201.182052,70.0951261 202.074171,62.7417559 203.460747,43.4585343 L203.706669,39.4573972 C204.358098,29.9812963 204.847324,22.625299 204.763606,17.4813551 C204.679889,12.9863153 204.195895,10.2067992 202.971521,9.22687527 C212.654013,9.22687527 226.158748,9.22687527 226.158748,9.22687527 C233.724748,9.22687527 244.139771,10.5378191 244.139771,22.8722503 C244.139771,32.9998824 237.384787,38.5589146 229.00777,41.1702937 C229.821403,41.9085206 231.283849,43.786927 232.1812,44.9323609 L244.953403,61.9273419 C252.927528,72.4674352 253.576341,72.9560836 256.42798,74.4272831 C252.846426,74.8344901 248.048347,75 244.953403,75 M165.714465,24.0203113 L155.537515,45.9937262 L172.053476,45.9937262 L165.714465,24.0203113 M185.479725,72.8720151 C180.113934,72.8720151 179.70581,72.7117594 175.394341,57.8421362 L173.848177,52.3671725 C171.239843,53.5914206 166.603967,54.1641376 159.200171,54.1641376 L151.715272,54.1641376 L150.415029,56.9410265 C149.11217,59.8860526 145.938741,65.9337333 146.019843,69.446222 C146.019843,70.2632631 146.100944,71.0803043 146.427967,72.3045524 L131.377069,72.3045524 C135.688538,67.9750225 141.140662,57.9262048 148.706662,41.6668235 L153.101849,32.2721641 C157.086295,23.7759871 161.319278,14.1343763 161.319278,12.7446183 C161.319278,11.5151159 160.997488,10.3749363 160.505646,9.22950241 L174.177816,9.22950241 C174.177816,9.22950241 177.751521,22.8748775 180.927567,34.2293848 L183.61177,44.1993883 C188.250262,60.9500451 191.17777,69.1178293 195.083731,72.3045524 C191.585895,72.7117594 187.190708,72.8720151 185.479725,72.8720151 M108.022407,16.8271968 C106.800649,16.8271968 105.176,16.8271968 103.629836,16.9927067 C102.978407,21.403678 102.570282,25.6517665 102.248492,30.3070619 C102.248492,30.3070619 102.002571,34.308199 102.002571,34.1453162 L103.629836,34.1453162 C111.603961,34.1453162 118.929272,31.3684272 118.929272,24.0203113 C118.929272,19.7669686 115.42882,16.8271968 108.022407,16.8271968 M105.992249,41.8270792 L101.518577,41.8270792 L100.867147,51.1402972 C100.542741,55.22813 100.377921,58.6565502 100.29682,62.7417559 C100.29682,63.3170999 102.086288,64.5413481 106.31404,64.5413481 C115.101797,64.5413481 120.880944,60.1303768 120.880944,52.8558209 C120.880944,44.766851 114.288164,41.8270792 105.992249,41.8270792 M106.968085,72.3019253 L85,72.3019253 C87.7679212,69.8481747 88.5004523,60.2906325 89.7195934,43.4585343 L89.9628984,39.5388386 C90.616944,29.9786692 91.103554,22.625299 91.0224523,17.4813551 C90.9413507,13.0677567 90.4521245,10.2067992 89.2303672,9.22687527 L113.801554,9.22687527 C119.659187,9.22687527 131.377069,9.55526801 131.377069,21.8082579 C131.377069,29.9786692 123.808452,35.0437988 116.893882,36.8460181 C126.657475,37.825942 133.98017,42.5626789 133.98017,52.6929381 C133.977554,63.6402384 123.727351,72.3019253 106.968085,72.3019253" id="path21"></path>
                <g id="path4050-Clipped">
                    <path d="M35.6590107,0.149914891 C33.4745638,0.149914891 33.0229714,0.52691334 32.3140763,1.30951012 C32.0357694,1.2913102 31.7443347,1.28611022 31.4397724,1.28611022 C29.7594286,1.28611022 27.601237,1.53050921 25.7607354,2.7499042 C23.9832467,3.91209942 23.1378237,5.96869096 24.0856427,7.47408476 C24.0856427,7.47408476 24.7210227,6.55108856 26.8109503,6.55108856 C27.1050105,6.55108856 27.4305771,6.58228843 27.777148,6.61088831 C30.6652389,6.94888692 32.8024262,8.45428073 32.5424981,12.4296644 C32.3114508,16.402448 30.807018,20.8328298 24.6527587,20.8848296 C24.6527587,20.8848296 23.8598465,20.8848296 23.0144235,20.8068299 C20.1499624,20.4974312 19.2494031,18.7164385 19.2494031,18.7164385 C19.2494031,18.7164385 21.7252847,18.0508413 21.746289,14.9386541 C21.7252847,12.8222628 19.8637788,10.8852707 17.1778543,10.102674 C16.2982993,9.847875 15.3321016,9.72307551 14.3265208,9.72307551 C11.160123,9.72307551 7.60514558,11.0360701 5.2080301,14.1352574 C-0.226831937,21.2410281 -0.667922189,31.5993855 0.657974105,41.2323459 C1.99174701,50.8861062 8.17488715,59.8274694 8.35604922,60.0718684 C8.48732608,60.2434677 8.60547526,60.3370673 8.73937765,60.3370673 C8.80764162,60.3370673 8.87853113,60.3058674 8.95204617,60.2460677 C11.6222175,57.6798782 14.1689886,54.1724927 15.2585866,51.8273023 C16.4243251,52.7476985 15.8152005,54.7054905 15.1745694,56.7958819 C14.5654447,58.9330731 13.0846417,61.7696614 12.5490322,62.6848577 C12.0318013,63.579254 11.3386595,64.6192497 12.2707252,65.1626475 C12.3652445,65.2198472 12.4860193,65.2510471 12.6304238,65.2510471 C13.8276688,65.2510471 16.6448702,63.1840556 19.7876383,59.0344727 C23.3058581,54.3648919 25.0912234,50.2205089 25.0912234,50.2205089 C25.3485261,50.2777087 25.7791142,50.7093069 25.7082247,51.8845021 C25.660965,53.0778972 24.4217114,57.5186789 22.0088427,61.6526619 C19.5697187,65.7840449 17.3170077,68.3684343 16.8627898,68.9560319 C16.5818573,69.2966305 16.8207812,69.5098296 17.0019433,69.647629 C17.1804798,69.7672285 21.4942374,73.7556121 27.7613948,77.1251983 C35.186414,81.0433821 38.4788377,81.7479792 38.4788377,81.7479792 C38.4788377,81.7479792 41.7633848,81.0615821 49.188404,77.1459982 C55.4529358,73.7712121 59.7850722,69.7646285 59.94523,69.6294291 C60.126392,69.5072296 60.3574393,69.3148304 60.0843834,68.9404319 C59.6564209,68.3788342 57.3958333,65.7814449 54.9619603,61.6500619 C52.5569682,57.5446788 51.270455,53.0752972 51.2520762,51.897502 C51.202191,50.7093069 51.6065238,50.3167085 51.8533243,50.2179089 C51.8533243,50.2179089 53.6570683,54.3882918 57.1752882,59.0318727 C60.3338095,63.1866556 63.1247555,65.2484471 64.3272516,65.2484471 C64.4795327,65.2484471 64.6003075,65.2172472 64.7000779,65.1600475 C65.6032627,64.6166497 64.9311251,63.5610541 64.4007666,62.6770577 C63.9071656,61.7670614 62.4053583,58.948673 61.7673528,56.7932819 C61.1556026,54.6794906 60.5202226,52.7242986 61.7069654,51.8247023 C62.7991889,54.1698927 65.3275813,57.6954782 68.0056292,60.2252678 C68.0765187,60.2980675 68.1579104,60.3344673 68.2366765,60.3344673 C68.3548257,60.3344673 68.4808515,60.2434677 68.591124,60.0848684 C68.7880393,59.8248694 74.9816816,50.8991061 76.3049524,41.2297459 C77.6334742,31.5759856 77.1950095,21.2410281 71.7548964,14.1326574 C69.3735341,11.0256702 65.7923013,9.70487559 62.6048992,9.70487559 C61.6098206,9.70487559 60.6593761,9.83227506 59.7903233,10.079274 C57.0833944,10.8852707 55.2297651,12.8404627 55.2455184,14.9360541 C55.2455184,18.0482413 57.7345276,18.7138385 57.7345276,18.7138385 C57.7345276,18.7138385 56.9022323,20.4506314 53.9353753,20.8042299 C53.3813869,20.8718297 52.8431518,20.9030295 52.3285465,20.9030295 C50.0968399,20.9030295 48.2169552,20.2010324 46.4841007,17.7778424 C44.8037568,15.445652 44.8588931,10.6434717 44.7617483,9.04187831 C44.6856077,7.416885 44.3337857,3.77169999 42.6088077,2.28450611 C40.8890809,0.758312388 38.7939022,0.246114495 36.1814926,0.144714912 C35.9898284,0.149914891 35.8191685,0.149914891 35.6590107,0.149914891" id="path4050"></path>
                </g>
            </g>
        </g>
    </g>
</svg>