<?xml version="1.0" encoding="UTF-8"?>
<svg width="800px" height="168px" viewBox="0 0 800 168" version="1.1" xmlns="http://www.w3.org/2000/svg" xmlns:xlink="http://www.w3.org/1999/xlink">
    <!-- Generator: Sketch 53.1 (72631) - https://sketchapp.com -->
    <title>Artboard</title>
    <desc>Created with Sketch.</desc>
    <g id="Artboard" stroke="none" stroke-width="1" fill="none" fill-rule="evenodd">
        <path d="M130.62,151.03 C153.47,151.03 173.66,139.63 185.85,122.23 L188.47,132.05 C187.6,133.16 186.68,134.23 185.73,135.29 C168.38,154.54 137.84,167.32 103.08,167.32 C68.315,167.32 37.766,154.55 20.427,135.29 C7.623,121.06 0,103.15 0,83.667 C0,64.198 7.623,46.301 20.427,32.081 C37.721,12.845 68.732,0 104.08,0 C128.86,0 151.27,5.969 167.38,15.614 C180.04,23.219 190.51,33.241 197.81,44.872 L130.62,83.668 L166.31,26.553 C155.97,20.072 143.73,16.333 130.62,16.333 C93.425,16.333 63.281,46.464 63.281,83.668 C63.281,120.87 93.425,151.03 130.62,151.03 Z M353.38,163.27 L304.4,163.27 L298.21,140.14 C286.7,156.01 268.04,166.34 246.94,166.34 C217.63,166.34 193.9,146.67 193.9,122.44 C193.9,98.212 217.63,78.571 246.94,78.571 C261.7,78.571 275.18,83.991 285.53,92.899 L274.86,53.051 L212.42,53.051 L273.13,30.975 C277.38,29.429 281.96,28.575 286.74,28.575 C305.17,28.575 320.65,41.07 325.18,58.07 L353.38,163.27 Z M267.36,146.93 C280.88,146.93 291.85,135.98 291.85,122.44 C291.85,108.92 280.88,97.96 267.36,97.96 C253.84,97.96 242.88,108.92 242.88,122.44 C242.88,135.98 253.84,146.93 267.36,146.93 Z M468.36,28.593 L468.36,28.594 C481.88,28.594 492.85,39.534 492.85,53.051 L492.85,163.271 L443.89,163.271 L443.89,65.313 C443.89,58.554 438.38,53.052 431.64,53.052 C424.86,53.052 419.39,58.554 419.39,65.313 L419.39,163.271 L370.41,163.271 L370.41,53.051 L336.95,53.051 L384.54,30.876 C387.7,29.411 391.21,28.593 394.89,28.593 C407.05,28.593 417.13,37.438 419.06,49.042 L458.04,30.876 C461.16,29.411 464.66,28.593 468.36,28.593 Z M652.01,97.959 C652.01,136.27 620.96,167.32 582.66,167.32 C544.33,167.32 513.26,136.27 513.26,97.959 C513.26,59.658 544.33,28.593 582.66,28.593 C620.96,28.593 652.01,59.659 652.01,97.959 Z M585.53,49.645 C583.35,41.483 574.96,36.638 566.8,38.832 C558.65,41.017 553.78,49.412 555.97,57.573 L579.76,146.27 C581.96,154.44 590.33,159.28 598.49,157.12 C606.65,154.91 611.5,146.52 609.31,138.36 L585.53,49.645 Z M775.52,28.593 L775.52,28.594 C789.02,28.594 800,39.534 800,53.051 L800,163.271 L751,163.271 L751,65.313 C751,58.554 745.53,53.052 738.77,53.052 C731.99,53.052 726.51,58.554 726.51,65.313 L726.51,163.271 L677.54,163.271 L677.54,53.051 L644.09,53.051 L691.66,30.876 C694.83,29.411 698.34,28.593 702.02,28.593 C714.18,28.593 724.26,37.438 726.18,49.042 L765.12,30.876 C768.29,29.411 771.81,28.593 775.52,28.593 Z" id="Combined-Shape" fill="#BF1920" fill-rule="nonzero"></path>
    </g>
</svg>