<?xml version="1.0" encoding="UTF-8"?>
<svg width="342px" height="44px" viewBox="0 0 342 44" version="1.1" xmlns="http://www.w3.org/2000/svg" xmlns:xlink="http://www.w3.org/1999/xlink">
    <!-- Generator: Sketch 53.1 (72631) - https://sketchapp.com -->
    <title>Combined Shape</title>
    <desc>Created with Sketch.</desc>
    <g id="Page-1" stroke="none" stroke-width="1" fill="none" fill-rule="evenodd">
        <g id="snapcraft" transform="translate(-1518.000000, -108.000000)" fill="#FFFFFF" fill-rule="nonzero">
            <path d="M1538.03346,152 C1535.04238,152 1532.31858,151.513935 1529.86025,150.541804 C1527.40237,149.56923 1525.29158,148.141191 1523.53102,146.257245 C1521.76866,144.373298 1520.40631,142.074244 1519.44441,139.359197 C1518.48117,136.64548 1518,133.525082 1518,129.999778 C1518,126.474918 1518.53229,123.345207 1519.59778,120.610202 C1520.66237,117.875641 1522.1171,115.576588 1523.96062,113.712598 C1525.80414,111.849496 1527.93377,110.43077 1530.35174,109.457753 C1532.76881,108.486509 1535.32983,108 1538.03346,108 C1539.87698,108 1541.52588,108.121073 1542.98016,108.364549 C1544.43399,108.607582 1545.69365,108.891415 1546.75958,109.215163 C1547.82417,109.539798 1548.68472,109.86399 1549.34034,110.187737 C1549.9955,110.512372 1550.44663,110.754962 1550.69282,110.916835 L1548.91029,115.779263 C1548.54167,115.535787 1548.00893,115.272797 1547.31295,114.988963 C1546.61564,114.706016 1545.80755,114.422183 1544.88557,114.137905 C1543.96358,113.855402 1542.95011,113.621683 1541.84382,113.438965 C1540.73798,113.257134 1539.57025,113.165775 1538.34108,113.165775 C1536.25182,113.165775 1534.34686,113.551611 1532.62621,114.320623 C1530.90511,115.090966 1529.43065,116.20457 1528.20148,117.663209 C1526.97277,119.122292 1526.02029,120.894923 1525.34405,122.981101 C1524.66825,125.068166 1524.33013,127.408021 1524.33013,130.000222 C1524.33013,132.513038 1524.627,134.801891 1525.22117,136.868112 C1525.81401,138.934333 1526.71581,140.706964 1527.9248,142.18556 C1529.13244,143.665044 1530.62842,144.809249 1532.41051,145.619506 C1534.19305,146.430206 1536.29173,146.834669 1538.7097,146.834669 C1541.41332,146.834669 1543.6564,146.551279 1545.43849,145.983611 C1547.22102,145.41683 1548.56185,144.910808 1549.46366,144.464213 L1551,149.326197 C1550.713,149.529316 1550.20133,149.782105 1549.46366,150.085896 C1548.72598,150.389687 1547.80444,150.684608 1546.69815,150.966668 C1545.5923,151.250058 1544.3017,151.493091 1542.82679,151.696653 C1541.35189,151.898884 1539.75411,152 1538.03346,152 Z M1575.75112,109 C1577.23496,112.03039 1578.65699,115.090411 1580.01721,118.181833 C1581.37743,121.272371 1582.74713,124.514605 1584.1281,127.908536 C1585.50863,131.302466 1586.91983,134.889224 1588.36352,138.666154 C1589.8054,142.444854 1591.35104,146.555694 1593,150.999558 L1586.44657,150.999558 C1585.74503,149.181855 1585.08635,147.384053 1584.46827,145.606154 C1583.84974,143.828254 1583.21046,142.030453 1582.55178,140.212308 L1563.13918,140.212308 L1559.24439,151 L1553,151 C1554.64806,146.556136 1556.1937,142.445296 1557.63648,138.666596 C1559.07882,134.889666 1560.49002,131.303351 1561.8719,127.908978 C1563.25242,124.515047 1564.62302,121.272813 1565.98279,118.182276 C1567.34301,115.090854 1568.76504,112.030832 1570.24843,109.000442 L1575.75112,109.000442 L1575.75112,109 Z M1572.84571,115.726829 C1571.40247,118.757218 1570.03323,121.908788 1568.73436,125.181539 C1567.4364,128.453847 1566.14791,131.869448 1564.8707,135.42392 L1580.82116,135.42392 C1579.50155,131.909252 1578.19366,128.505149 1576.89524,125.211613 C1575.59638,121.91896 1574.24608,118.757218 1572.84571,115.726829 Z M1628.04704,151 C1627.14963,149.505576 1626.12101,147.828495 1624.95897,145.969641 C1623.79693,144.111673 1622.5434,142.182057 1621.19751,140.181677 C1619.85205,138.182183 1618.45573,136.15173 1617.00853,134.091202 C1615.56133,132.030232 1614.1244,130.040025 1612.69728,128.121024 C1611.27017,126.202022 1609.88455,124.393145 1608.53955,122.696162 C1607.19454,120.999179 1605.94949,119.504754 1604.80932,118.21112 L1604.80932,150.999115 L1599,150.999115 L1599,109 L1603.70841,109 C1605.62462,111.020281 1607.67292,113.37359 1609.85421,116.06037 C1612.0346,118.747591 1614.1958,121.514863 1616.33603,124.363071 C1618.47626,127.211278 1620.49421,130.009951 1622.38989,132.757321 C1624.28558,135.505576 1625.88539,137.94955 1627.19068,140.09057 L1627.19068,109 L1633,109 L1633,150.999558 L1628.04704,150.999558 L1628.04704,151 Z M1722.04711,151 C1721.14926,149.505576 1720.1211,147.828495 1718.95908,145.969641 C1717.79705,144.111673 1716.5431,142.182057 1715.19811,140.181677 C1713.85223,138.182183 1712.45592,136.15173 1711.00919,134.091202 C1709.56156,132.030232 1708.1242,130.040025 1706.69755,128.121024 C1705.2709,126.202022 1703.88486,124.393145 1702.53942,122.696162 C1701.19443,120.999179 1699.94985,119.504754 1698.80924,118.21112 L1698.80924,150.999115 L1693,150.999115 L1693,109 L1697.70835,109 C1699.62498,111.020281 1701.67326,113.37359 1703.85451,116.06037 C1706.03532,118.747591 1708.19605,121.514863 1710.33625,124.363071 C1712.47645,127.211278 1714.49438,130.009951 1716.39003,132.757321 C1718.28569,135.505576 1719.88504,137.94955 1721.19076,140.09057 L1721.19076,109 L1727,109 L1727,150.999558 L1722.04711,150.999558 L1722.04711,151 Z M1738,109 L1744,109 L1744,151 L1738,151 L1738,109 Z M1773.03346,152 C1770.04238,152 1767.31858,151.513935 1764.8598,150.541804 C1762.40237,149.56923 1760.29113,148.141191 1758.53102,146.257245 C1756.76866,144.373298 1755.40586,142.074244 1754.44441,139.359197 C1753.48207,136.64548 1753,133.525082 1753,129.999778 C1753,126.474918 1753.53274,123.345207 1754.59733,120.610202 C1755.66237,117.875641 1757.1171,115.576588 1758.96062,113.712598 C1760.80414,111.849496 1762.93422,110.43077 1765.35174,109.457753 C1767.76881,108.486509 1770.32983,108 1773.03346,108 C1774.87698,108 1776.52543,108.121073 1777.98016,108.364549 C1779.43399,108.607582 1780.69365,108.891415 1781.75958,109.215163 C1782.82462,109.539798 1783.68472,109.86399 1784.34078,110.187737 C1784.99505,110.512372 1785.44708,110.754962 1785.69237,110.916835 L1783.91073,115.779263 C1783.54212,115.535787 1783.00848,115.272797 1782.31251,114.988963 C1781.61519,114.706016 1780.8071,114.422183 1779.88557,114.137905 C1778.96403,113.855402 1777.95011,113.621683 1776.84382,113.438965 C1775.73753,113.257134 1774.57025,113.165775 1773.34108,113.165775 C1771.25227,113.165775 1769.34641,113.551611 1767.62621,114.320623 C1765.90511,115.090966 1764.4311,116.20457 1763.20148,117.663209 C1761.97277,119.122292 1761.01984,120.894923 1760.34449,122.981101 C1759.66825,125.068166 1759.33013,127.408021 1759.33013,130.000222 C1759.33013,132.513038 1759.627,134.801891 1760.22073,136.868112 C1760.81446,138.934333 1761.71581,140.706964 1762.92435,142.18556 C1764.13199,143.665044 1765.62797,144.809249 1767.41051,145.619506 C1769.19305,146.430206 1771.29218,146.834669 1773.7097,146.834669 C1776.41332,146.834669 1778.6564,146.551279 1780.43894,145.983611 C1782.22058,145.41683 1783.5623,144.910808 1784.46366,144.464213 L1786,149.326197 C1785.71255,149.529316 1785.20133,149.782105 1784.46366,150.085896 C1783.72598,150.389687 1782.80489,150.684608 1781.6986,150.966668 C1780.5923,151.250058 1779.30215,151.493091 1777.82724,151.696653 C1776.35234,151.898884 1774.75456,152 1773.03346,152 Z M1810.75087,109 C1812.23469,112.03039 1813.6567,115.090411 1815.01736,118.181833 C1816.37711,121.272371 1817.74725,124.514605 1819.12775,127.908536 C1820.50871,131.302466 1821.9199,134.889224 1823.36357,138.666154 C1824.80498,142.444854 1826.35061,146.555694 1828,150.999558 L1821.4462,150.999558 C1820.74466,149.181855 1820.08644,147.384053 1819.46792,145.606154 C1818.8494,143.828254 1818.21057,142.030453 1817.55145,140.212308 L1798.13952,140.212308 L1794.24387,151 L1788,151 C1789.64759,146.556136 1791.19321,142.445296 1792.63643,138.666596 C1794.07875,134.889666 1795.49038,131.303351 1796.87134,127.908978 C1798.2523,124.515047 1799.62244,121.272813 1800.98264,118.182276 C1802.3424,115.090854 1803.76441,112.030832 1805.24823,109.000442 L1810.75087,109.000442 L1810.75087,109 Z M1807.84548,115.726829 C1806.40226,118.757218 1805.03213,121.908788 1803.73418,125.181539 C1802.43624,128.453847 1801.14731,131.869448 1799.87057,135.42392 L1815.82085,135.42392 C1814.5008,131.909252 1813.19337,128.505149 1811.89452,125.211613 C1810.59657,121.91896 1809.24584,118.757218 1807.84548,115.726829 Z M1860,146.090823 L1860,151 L1834,151 L1834,109 L1840.0483,109 L1840.0483,146.090823 L1860,146.090823 Z M1663,144 C1655.26802,144 1649,137.733652 1649,129.999778 C1649,122.267234 1655.26802,116 1663,116 C1670.73242,116 1677,122.267234 1677,129.999778 C1677,137.733652 1670.73242,144 1663,144 Z M1686,130.000222 C1686,142.150326 1675.92612,152 1663.5,152 C1651.07298,152 1641,142.149883 1641,130.000222 C1641,117.849674 1651.07298,108 1663.5,108 C1675.92612,107.999557 1686,117.84923 1686,130.000222 Z M1663.49955,113.351261 C1654.09514,113.351261 1646.47283,120.805596 1646.47283,130.000222 C1646.47283,139.196178 1654.09514,146.648295 1663.49955,146.648295 C1672.90395,146.648295 1680.52627,139.196178 1680.52627,130.000222 C1680.52627,120.805153 1672.90395,113.351261 1663.49955,113.351261 Z" id="Combined-Shape"></path>
        </g>
    </g>
</svg>