<?xml version="1.0" encoding="UTF-8"?>
<svg width="170px" height="86px" viewBox="0 0 170 86" version="1.1" xmlns="http://www.w3.org/2000/svg" xmlns:xlink="http://www.w3.org/1999/xlink">
    <!-- Generator: Sketch 57.1 (83088) - https://sketch.com -->
    <title>Group</title>
    <desc>Created with Sketch.</desc>
    <g id="Symbols" stroke="none" stroke-width="1" fill="none" fill-rule="evenodd">
        <g id="FFA---Logo---Primary">
            <g id="Group">
                <polygon id="Fill-1" fill="#F5DB40" points="0.03 85.4345 126.7685 85.4345 126.7685 56.326 0.03 56.326"></polygon>
                <path d="M17.087,73.887 L15.5035,68.9675 C15.0655,67.6535 14.9645,67.1475 14.7285,66.1705 L14.56,66.1705 C14.2905,67.181 14.122,67.889 13.751,69.001 L12.1675,73.887 L17.087,73.887 Z M17.8285,59.5315 L25.917,82.5145 L19.851,82.5145 L18.368,77.8975 L10.887,77.8975 L9.404,82.5145 L3.4395,82.5145 L12.134,59.5315 L17.8285,59.5315 L17.8285,59.5315 Z" id="Fill-4" fill="#000000"></path>
                <polyline id="Fill-5" fill="#000000" points="34.084 64.5655 34.084 68.8115 42.1385 68.8115 42.1385 73.6305 34.084 73.6305 34.084 82.3925 28.0185 82.3925 28.0185 59.409 42.475 59.409 42.475 64.5655 34.084 64.5655"></polyline>
                <path d="M53.5645,64.0935 L51.913,64.0935 L51.913,69.587 L53.598,69.587 C55.2495,69.587 56.463,68.643 56.463,66.8905 C56.463,65.172 55.418,64.0935 53.5645,64.0935 Z M58.3495,82.3925 L52.5195,73.698 L51.913,73.698 L51.913,82.3925 L45.8805,82.3925 L45.8805,59.409 L53.362,59.409 C60.2365,59.409 62.6295,62.442 62.6295,66.587 C62.6295,69.8895 60.7425,71.9455 58.3495,72.788 L65.359,82.3925 L58.3495,82.3925 L58.3495,82.3925 Z" id="Fill-6" fill="#000000"></path>
                <polygon id="Fill-7" fill="#000000" points="67.3535 82.3925 73.386 82.3925 73.386 59.409 67.3535 59.409"></polygon>
                <path d="M99.54,67.5985 L93.103,67.5985 C92.8,65.678 90.9805,63.7565 88.2845,63.7565 C84.51,63.7565 82.488,66.9915 82.488,70.867 C82.488,74.6415 84.7795,78.0455 88.3175,78.0455 C91.4185,78.0455 92.8675,75.7535 93.2715,73.833 L99.9445,73.833 C98.866,78.753 94.8555,83.134 88.183,83.134 C81.039,83.134 76.3545,77.8095 76.3545,70.8335 C76.3545,63.858 81.3085,58.668 88.3175,58.668 C94.788,58.668 98.967,63.251 99.54,67.5985" id="Fill-8" fill="#000000"></path>
                <path d="M113.999,73.765 L112.4155,68.8455 C111.9775,67.5315 111.8765,67.0255 111.6405,66.0485 L111.4725,66.0485 C111.2025,67.059 111.0345,67.767 110.663,68.879 L109.079,73.765 L113.999,73.765 Z M114.741,59.409 L122.8285,82.3925 L116.7635,82.3925 L115.2805,77.7755 L107.799,77.7755 L106.316,82.3925 L100.351,82.3925 L109.046,59.409 L114.741,59.409 L114.741,59.409 Z" id="Fill-9" fill="#000000"></path>
                <path d="M49.791,29.4349746 C56.299,29.4225 60.4965,34.0305 61.0805,38.4145 L54.5975,38.4145 C54.287,36.477 52.4615,34.552 49.7415,34.552 C45.941,34.552 43.904,37.806 43.904,41.7055 C43.904,45.506 46.214,48.934 49.7785,48.934 C52.896,48.934 54.3615,46.624 54.7715,44.6985 L61.4905,44.6985 C60.41,49.6545 56.361,54.0635 49.6545,54.0635 C42.463,54.0635 37.7435,48.698 37.7435,41.6805 C37.7435,34.651 42.7365,29.4349746 49.791,29.4349746 Z M91.7825,29.4225 C99.4205,29.4225 103.966,35.322 103.966,41.743 C103.966,48.462 98.7375,54.0635 91.7205,54.0635 C83.2,54.0635 79.437,47.4435 79.437,41.743 C79.437,35.148 84.591,29.4225 91.7825,29.4225 Z M131.5505,30.1675 L134.6055,36.1045 C135.115,37.0855 135.5495,38.203 135.823,39.1225 L135.885,39.1225 C136.1955,38.166 136.593,37.185 137.102,36.1415 L139.9465,30.1675 L146.33,30.1675 L138.729,44.1775 L138.729,53.3055 L132.656,53.3055 L132.656,44.2145 L132.668,44.2145 L125.005,30.1675 L131.5505,30.1675 Z M14.556,30.1675 L14.556,35.359 L6.1105,35.359 L6.1105,39.6315 L14.2205,39.6315 L14.2205,44.488 L6.1105,44.488 L6.1105,53.3055 L2.66453526e-14,53.3055 L2.66453526e-14,30.1675 L14.556,30.1675 Z M29.025,30.1675 L37.1725,53.3055 L31.062,53.3055 L29.5715,48.6605 L22.045,48.6605 L20.555,53.3055 L14.5435,53.3055 L23.287,30.1675 L29.025,30.1675 Z M78.6295,30.1675 L78.6295,35.359 L73.438,35.359 L73.438,53.3055 L67.3275,53.3055 L67.3275,35.359 L62.136,35.359 L62.136,30.1675 L78.6295,30.1675 Z M114.684,30.1675 C121.602,30.1675 124.012,33.223 124.012,37.396 C124.012,40.7245 122.1115,42.786 119.702,43.643 L126.7685,53.3055 L119.7145,53.3055 L113.84,44.55 L113.231,44.55 L113.231,53.3055 L107.158,53.3055 L107.158,30.1675 L114.684,30.1675 Z M91.7575,34.875 C88.292,34.875 85.6219553,37.8305 85.6219553,41.7305 C85.6095,45.6055 88.218,48.586 91.6825,48.586 C95.173,48.586 97.7935,45.6055 97.7935,41.7305 C97.7935,37.93 95.4585,34.875 91.7575,34.875 Z M25.8955,36.8495 L25.7215,36.8495 C25.448,37.868 25.2745,38.576 24.9015,39.6935 L23.312,44.6245 L28.2675,44.6245 L26.6775,39.6685 C26.2305,38.34 26.131,37.8305 25.8955,36.8495 Z M114.8955,34.887 L113.231,34.887 L113.231,40.414 L114.9325,40.414 C116.597,40.414 117.814,39.47 117.814,37.694 C117.814,35.968 116.7585,34.887 114.8955,34.887 Z M29.1865,0.0125 C36.8245,0.0125 41.37,5.912 41.37,12.333 C41.37,19.052 36.1415,24.6535 29.1245,24.6535 C20.6045,24.6535 16.8409774,18.0335 16.8409774,12.333 C16.8285,5.7505 21.9955,0.0125 29.1865,0.0125 Z M50.2875,0.7575 L50.2875,15.115 C50.2875,18.0955 51.3685,19.524 53.2435,19.524 C55.6905,19.524 56.2615,17.5245 56.2615,15.115 L56.2615,0.7575 L62.2975,0.7575 L62.2975,14.705 C62.2975,21.7345 58.7335,24.641 53.2685,24.641 C48.015,24.641 44.2145,22.0325 44.2145,14.767 L44.2145,0.7575 L50.2875,0.7575 Z M160.9235,0 C165.6675,0 168.698,2.844 168.698,7.5635 L163.171,7.5635 L163.171,7.576 C163.171,5.912 162.327,4.856 160.861,4.856 C159.843,4.856 158.961,5.502 158.961,6.6945 C158.961,8.1475 160.4885,8.793 162.724,9.5755 C167.2075,11.1405 169.0335,13.8855 169.0335,17.313 C169.0335,20.6665 166.661,24.641 160.824,24.641 C155.769,24.641 152.515,21.5235 152.515,16.4315 L158.315,16.4315 C158.315,18.431 159.06,19.7845 160.9235,19.7845 C162.215,19.7845 163.159,18.965 163.159,17.6485 C163.159,16.121 162.103,15.3385 159.4575,14.4195 C154.639,12.755 153.1485,9.7995 153.1485,6.8185 C153.1485,2.4715 156.713,0 160.9235,0 Z M128.1845,0.7575 L128.1845,5.949 L119.7395,5.949 L119.7395,9.551 L127.8865,9.551 L127.8865,14.407 L119.7395,14.407 L119.7395,18.7165 L128.5325,18.7165 L128.5325,23.908 L113.666,23.908 L113.666,0.7575 L128.1845,0.7575 Z M97.6815,0.7575 C106.028,0.7575 110.474,6.0115 110.474,12.333 C110.474,18.605 105.7545,23.908 97.6195,23.908 L89.5095,23.908 L89.5095,0.7575 L97.6815,0.7575 Z M14.556,0.7575 L14.556,5.949 L6.1105,5.949 L6.1105,10.2215 L14.2205,10.2215 L14.2205,15.0775 L6.1105,15.0775 L6.1105,23.896 L2.66453526e-14,23.896 L2.66453526e-14,0.7575 L14.556,0.7575 Z M85.1255,0.745 L85.1255,23.8835 L80.033,23.8835 L75.115,16.0465 C72.7055,12.2085 72.0595,10.7555 71.3765,9.6625 L71.2525,9.6625 L71.2525,9.6875 C71.2895,10.6685 71.389,12.8795 71.389,13.8235 L71.389,23.896 L66.2965,23.896 L66.2965,0.7575 L71.426,0.7575 L77.189,9.9855 C78.99,12.8295 79.4245,14.059 80.033,15.177 L80.1325,15.177 C80.0955,14.1585 80.033,12.3575 80.033,11.4385 L80.033,0.745 L85.1255,0.745 Z M140.0575,0.7575 C146.9755,0.7575 149.3855,3.813 149.3855,7.986 C149.3855,11.3145 147.485,13.376 145.076,14.233 L152.142,23.896 L145.088,23.896 L139.2135,15.1395 L138.605,15.1395 L138.605,23.896 L132.5315,23.896 L132.5315,0.7575 L140.0575,0.7575 Z M29.1615,5.477 C25.6965,5.477 23.0259588,8.433 23.0259588,12.333 C23.014,16.1955 25.622,19.1885 29.087,19.1885 C32.577,19.1885 35.1975,16.208 35.1975,12.333 C35.1975,8.5325 32.8625,5.477 29.1615,5.477 Z M97.3465,6.061 L95.5825,6.061 L95.5825,18.617 L97.3465,18.617 L97.3465,18.605 C102.227,18.605 104.3015,15.761 104.3015,12.333 C104.3015,8.6315 102.066,6.061 97.3465,6.061 Z M140.269,5.477 L138.605,5.477 L138.605,11.004 L140.3065,11.004 C141.971,11.004 143.1875,10.06 143.1875,8.284 C143.1875,6.5575 142.132,5.477 140.269,5.477 Z" id="Combined-Shape" fill="#000000"></path>
                <path d="M151.4965,53.3555 C148.64,53.3555 146.3055,51.033 146.3055,48.164 C146.3055,45.307 148.6275,42.9725 151.4965,42.9725 C154.3655,42.9725 156.688,45.295 156.688,48.164 C156.688,51.0205 154.3655,53.3555 151.4965,53.3555 L151.4965,53.3555 Z" id="Clip-31"></path>
                <path d="M151.4965,53.3555 C148.64,53.3555 146.3055,51.033 146.3055,48.164 C146.3055,45.307 148.6275,42.9725 151.4965,42.9725 C154.3655,42.9725 156.688,45.295 156.688,48.164 C156.688,51.0205 154.3655,53.3555 151.4965,53.3555" id="Fill-29" fill="#F5DB40"></path>
            </g>
        </g>
    </g>
</svg>