<?xml version="1.0" encoding="UTF-8"?>
<svg width="1934px" height="400px" viewBox="0 0 1934 400" version="1.1" xmlns="http://www.w3.org/2000/svg" xmlns:xlink="http://www.w3.org/1999/xlink">
    <!-- Generator: Sketch 63.1 (92452) - https://sketch.com -->
    <title>Floatpays logo blue</title>
    <desc>Created with Sketch.</desc>
    <g id="Floatpays-logo-blue" stroke="none" stroke-width="1" fill="none" fill-rule="evenodd">
        <circle id="Oval-Copy-9" fill="#005580" fill-rule="nonzero" cx="130.027397" cy="97.260274" r="33.9041096"></circle>
        <path d="M1253.78519,114.779736 C1300.02402,114.779736 1335.02424,152.405286 1335.02424,200 C1335.02424,247.594714 1300.02402,285.220264 1253.78519,285.220264 C1233.47925,285.220264 1215.05433,277.998847 1200.9886,265.72767 L1200.4821,265.281938 L1200.4821,328.312775 C1200.4821,338.281938 1192.77563,346 1182.82144,346 C1172.97909,346 1165.33424,338.454404 1165.16368,328.647954 L1165.16077,328.312775 L1165.16077,132.788546 C1165.16077,122.819383 1172.86724,115.101322 1182.82144,115.101322 C1192.66378,115.101322 1200.30864,122.646918 1200.47919,132.453367 L1200.4821,132.788546 L1200.4821,135.039648 C1214.61063,122.176211 1233.2346,114.779736 1253.78519,114.779736 Z M1711.0358,115.101322 C1720.34779,115.101322 1727.73316,121.854626 1727.73316,131.180617 C1727.73316,134.911013 1726.833,138.340906 1724.16253,141.470294 L1723.87992,141.792952 L1557.86969,340.211454 C1554.33756,344.070485 1550.48432,346 1545.66778,346 C1536.03469,346 1528.64932,339.246696 1528.64932,329.920705 C1528.64932,326.204601 1529.84035,322.786703 1532.22242,319.667011 L1532.50256,319.30837 L1578.42028,264.638767 L1578.42028,132.788546 C1578.42028,122.819383 1586.12675,115.101322 1596.08094,115.101322 C1605.92329,115.101322 1613.56814,122.646918 1613.73869,132.453367 L1613.74161,132.788546 L1613.74161,222.511013 L1698.83389,120.889868 C1702.36602,117.030837 1705.89815,115.101322 1711.0358,115.101322 Z M713.442147,114.836154 C713.924186,114.836154 714.401365,114.856998 714.872833,114.897835 L714.348831,114.871794 C761.318446,116.944535 795.250167,153.769297 795.250167,200 C795.250167,247.594714 759.286636,285.220264 710.157883,285.220264 C661.350233,285.220264 625.065599,247.594714 625.065599,200 C625.065599,198.099801 625.123436,196.215492 625.237597,194.348834 C625.252057,193.901908 625.282573,193.458668 625.328937,193.020165 C625.332279,192.971316 625.33605,192.922097 625.339861,192.872891 L625.344093,192.881949 C626.355069,183.980943 633.900509,177.065847 643.058632,177.065847 C652.905683,177.065847 660.888296,185.060466 660.888296,194.922328 C660.888296,194.972058 660.888093,195.02174 660.887688,195.071374 L660.917412,195.043039 L660.876525,195.577285 C660.863638,195.93524 660.840231,196.290509 660.806604,196.642791 C660.74022,197.75225 660.708028,198.871973 660.708028,200 C660.708028,228.621145 681.900823,252.418502 710.157883,252.418502 C738.414943,252.418502 759.607738,228.621145 759.607738,200 C759.607738,171.802103 739.491691,148.793405 712.325173,147.627833 C703.795575,147.047999 697.054629,139.936559 697.054629,131.248319 C697.054629,122.184131 704.391571,114.836154 713.442147,114.836154 Z M904.104069,114.779736 C924.412887,114.779736 942.840152,122.0032 956.906644,134.587917 L957.40716,135.039648 L957.40716,132.788546 C957.40716,122.819383 965.113631,115.101322 975.067823,115.101322 C984.91017,115.101322 992.555023,122.646918 992.725575,132.453367 L992.728486,132.788546 L992.728486,266.889868 C992.728486,276.859031 985.022015,284.898678 975.067823,284.898678 C965.225476,284.898678 957.580623,277.038682 957.410071,267.225168 L957.40716,266.889868 L957.40716,265.281938 C943.27863,277.823789 924.654659,285.220264 904.104069,285.220264 C857.865243,285.220264 822.865021,247.594714 822.865021,200 C822.865021,152.405286 857.865243,114.779736 904.104069,114.779736 Z M1443.87814,114.779736 C1464.18696,114.779736 1482.61422,122.0032 1496.68072,134.587917 L1497.18123,135.039648 L1497.18123,132.788546 C1497.18123,122.819383 1504.8877,115.101322 1514.84189,115.101322 C1524.68424,115.101322 1532.32909,122.646918 1532.49965,132.453367 L1532.50256,132.788546 L1532.50256,266.889868 C1532.50256,276.859031 1524.79609,284.898678 1514.84189,284.898678 C1504.99955,284.898678 1497.35469,277.038682 1497.18414,267.225168 L1497.18123,266.889868 L1497.18123,265.281938 C1483.0527,277.823789 1464.42873,285.220264 1443.87814,285.220264 C1397.63932,285.220264 1362.63909,247.594714 1362.63909,200 C1362.63909,152.405286 1397.63932,114.779736 1443.87814,114.779736 Z M1798.37581,114.779736 C1825.66956,114.779736 1850.71559,131.502203 1850.71559,151.762115 C1850.71559,160.76652 1843.33022,167.519824 1834.33934,167.519824 C1830.8072,167.519824 1826.31176,166.23348 1824.06404,161.731278 L1821.2607,158.602808 C1816.01592,152.875574 1808.89514,146.295154 1798.37581,146.295154 C1787.45831,146.295154 1780.39404,154.334802 1780.39404,163.660793 C1780.39404,176.845815 1793.88036,181.026432 1810.25662,186.493392 L1812.48369,187.203915 C1831.4845,193.411324 1852,204.107805 1852,235.052863 C1852,262.066079 1828.55948,285.220264 1798.37581,285.220264 C1769.79764,285.220264 1744.75161,266.568282 1744.75161,246.629956 C1744.75161,237.625551 1751.81588,230.229075 1760.80676,230.229075 C1765.57743,230.229075 1769.79437,232.170076 1772.42919,235.794597 L1773.00867,236.660793 C1777.82522,243.735683 1784.56838,253.38326 1798.37581,253.38326 C1808.9722,253.38326 1816.67867,245.343612 1816.67867,236.017621 C1816.67867,223.232145 1805.20507,218.006448 1790.74869,213.009835 L1787.12792,211.747974 C1767.49795,204.790262 1746.35713,195.55735 1746.35713,163.660793 C1746.35713,136.325991 1768.83433,114.779736 1798.37581,114.779736 Z M508.826329,54 C517.817211,54 525.202579,61.3964758 525.202579,70.4008811 C525.202579,79.2993522 517.989963,86.6275048 509.142978,86.7987003 L508.826329,86.8017621 L507.36546,86.8237982 C489.644862,87.3617758 476.242735,97.7449497 472.336064,117.397234 L472.220592,117.995595 L508.826329,117.995595 C517.817211,117.995595 525.202579,125.070485 525.202579,134.396476 C525.202579,143.294947 517.989963,150.6231 509.142978,150.794295 L508.826329,150.797357 L471.257283,150.797357 L471.257283,266.889868 C471.257283,276.859031 463.229709,284.898678 453.59662,284.898678 C443.754273,284.898678 436.10942,277.038682 435.938868,267.225168 L435.935957,266.889868 L435.935957,150.797357 L424.376251,150.797357 C415.064265,150.797357 408,143.400881 408,134.396476 C408,125.180202 414.899025,118.162374 424.048534,117.998525 L424.376251,117.995595 L436.578163,117.995595 C441.394708,78.4405286 470.93618,54 508.826329,54 Z M573.04692,54 C582.889267,54 590.53412,61.5455965 590.704672,71.3520458 L590.707583,71.6872247 L590.707583,266.889868 C590.707583,276.859031 583.001112,284.898678 573.04692,284.898678 C563.204573,284.898678 555.55972,277.038682 555.389169,267.225168 L555.386258,266.889868 L555.386258,71.6872247 C555.386258,61.7180617 563.092728,54 573.04692,54 Z M1063.05003,76.1894273 C1072.89238,76.1894273 1080.53723,83.7350238 1080.70779,93.5414731 L1080.7107,93.876652 L1080.7107,117.995595 L1118.27974,117.995595 C1127.27062,117.995595 1134.65599,125.070485 1134.65599,134.396476 C1134.65599,143.294947 1127.44338,150.6231 1118.59639,150.794295 L1118.27974,150.797357 L1080.7107,150.797357 L1080.7107,209.004405 C1080.7107,237.303965 1096.44474,251.77533 1118.27974,251.77533 C1127.27062,251.77533 1134.65599,259.171806 1134.65599,268.176211 C1134.65599,277.502203 1127.27062,284.898678 1118.27974,284.898678 C1077.27168,284.898678 1046.01973,256.216721 1045.39879,210.398082 L1045.38937,209.004405 L1045.38937,150.797357 L1033.82966,150.797357 C1024.83878,150.797357 1017.45341,143.400881 1017.45341,134.396476 C1017.45341,125.180202 1024.66603,118.162374 1033.51302,117.998525 L1033.82966,117.995595 L1045.38937,117.995595 L1045.38937,93.876652 C1045.38937,83.907489 1053.09584,76.1894273 1063.05003,76.1894273 Z M907.957305,147.581498 C880.342451,147.581498 858.507449,170.092511 858.507449,200 C858.507449,229.907489 880.342451,252.418502 907.957305,252.418502 C935.296011,252.418502 956.969882,230.355458 957.400626,200.894991 L957.40716,200 L957.40716,197.748899 C956.122748,169.127753 934.929953,147.581498 907.957305,147.581498 Z M1249.93195,147.581498 C1223.22903,147.581498 1201.87623,168.698983 1200.51715,196.892401 L1200.4821,197.748899 L1200.4821,200 C1200.4821,229.907489 1222.3171,252.418502 1249.93195,252.418502 C1277.54681,252.418502 1299.38181,229.907489 1299.38181,200 C1299.38181,170.092511 1277.54681,147.581498 1249.93195,147.581498 Z M1447.73138,147.581498 C1420.11652,147.581498 1398.28152,170.092511 1398.28152,200 C1398.28152,229.907489 1420.11652,252.418502 1447.73138,252.418502 C1475.07008,252.418502 1496.74395,230.355458 1497.1747,200.894991 L1497.18123,200 L1497.18123,197.748899 C1495.89682,169.127753 1474.70402,147.581498 1447.73138,147.581498 Z M662.40931,122.339825 C674.854241,122.339825 684.942851,132.443609 684.942851,144.907257 C684.942851,157.370906 674.854241,167.474689 662.40931,167.474689 C649.964379,167.474689 639.875769,157.370906 639.875769,144.907257 C639.875769,132.443609 649.964379,122.339825 662.40931,122.339825 Z" id="Combined-Shape-Copy-12" fill="#005580" fill-rule="nonzero"></path>
        <path d="M204,50 C204.144774,50 204.28926,50.0012306 204.433449,50.0036819 L204,50 C286.842712,50 354,117.157288 354,200 C354,282.842712 286.842712,350 204,350 C121.157288,350 54,282.842712 54,200 C54,186.2576 55.8480328,172.946832 59.3091381,160.302655 L59.4670457,160.354134 C62.7970313,150.459657 72.149628,143.333333 83.1666667,143.333333 C96.9737854,143.333333 108.166667,154.526215 108.166667,168.333333 C108.166667,171.272491 107.659464,174.093185 106.727811,176.712664 L106.907009,175.965833 C105.007622,183.664641 104,191.714649 104,200 C104,255.228475 148.771525,300 204,300 C259.228475,300 304,255.228475 304,200 C304,145.32381 260.119428,100.896476 205.653683,100.013397 L204,100 L203.586579,99.9966507 C189.970143,99.775881 179,88.6690476 179,75 C179,61.1928813 190.192881,50 204,50 Z" id="Combined-Shape" fill="#9BA100" fill-rule="nonzero"></path>
    </g>
</svg>