<?xml version="1.0" encoding="UTF-8"?>
<svg width="100px" height="66px" viewBox="0 0 100 66" version="1.1" xmlns="http://www.w3.org/2000/svg" xmlns:xlink="http://www.w3.org/1999/xlink">
    <!-- Generator: Sketch 57.1 (83088) - https://sketch.com -->
    <title>Combined Shape</title>
    <desc>Created with Sketch.</desc>
    <g id="Page-1" stroke="none" stroke-width="1" fill="none" fill-rule="evenodd">
        <path d="M23.814,37 C26.6045641,37 28.8805667,39.2035003 28.9954501,41.9667183 L29,42.186 L29,60.814 C29,63.6055385 26.7955503,65.8806167 24.0332087,65.995452 L23.814,66 L5.186,66 C2.3954359,66 0.119433268,63.7964997 0.00454987441,61.0342067 L0,60.815 L0,42.186 C0,39.3944615 2.2044497,37.1193833 4.96679135,37.004548 L5.186,37 L23.814,37 Z M41.186,37 L59.814,37 C62.6055385,37 64.8806167,39.2035003 64.995452,41.9667183 L65,42.186 L65,60.814 C65,63.6055385 62.7964997,65.8806167 60.0342067,65.995452 L59.815,66 L41.186,66 C38.3954359,66 36.1194333,63.7964997 36.0045499,61.0342067 L36,60.815 L36,42.186 C36,39.3944615 38.2044497,37.1193833 40.9667913,37.004548 L41.186,37 L59.814,37 Z M94.814,37 C97.679,37 100,39.321 100.001,42.186 L100.001,42.186 L100.001,60.814 C100.001,63.679 97.679,66 94.815,66 L94.815,66 L76.186,66 C73.321,66 71,63.679 71,60.815 L71,60.815 L71,42.186 C71,39.321 73.321,37 76.186,37 L76.186,37 Z M23.814,0 C26.6045641,0 28.8805667,2.2044497 28.9954501,4.96679135 L29,5.186 L29,23.814 C29,26.6045641 26.7955503,28.8805667 24.0332087,28.9954501 L23.814,29 L5.186,29 C2.3954359,29 0.119433268,26.7955503 0.00454987441,24.0341337 L0,23.815 L0,5.186 C0,2.3954359 2.2044497,0.119433268 4.96679135,0.00454987441 L5.186,0 L23.814,0 Z M59.814,0 C62.6055385,0 64.8806167,2.2044497 64.995452,4.96679135 L65,5.186 L65,23.814 C65,26.6045641 62.7964997,28.8805667 60.0342067,28.9954501 L59.815,29 L41.186,29 C38.3954359,29 36.1194333,26.7955503 36.0045499,24.0341337 L36,23.815 L36,5.186 C36,2.3954359 38.2044497,0.119433268 40.9667913,0.00454987441 L41.186,0 L59.814,0 Z M94.814,0 C97.6055385,0 99.8806167,2.2044497 99.9963771,4.96679135 L100.001,5.186 L100.001,23.814 C100.001,26.6045641 97.7965503,28.8805667 95.0342087,28.9954501 L94.815,29 L76.186,29 C73.3944615,29 71.1193833,26.7955503 71.004548,24.0341337 L71,23.815 L71,5.186 C71,2.3954359 73.2035003,0.119433268 75.9667183,0.00454987441 L76.186,0 L94.814,0 Z" id="Combined-Shape" fill="#000000" fill-rule="nonzero"></path>
    </g>
</svg>