<?xml version="1.0" encoding="UTF-8"?>
<svg width="68px" height="61px" viewBox="0 0 68 61" version="1.1" xmlns="http://www.w3.org/2000/svg" xmlns:xlink="http://www.w3.org/1999/xlink">
    <!-- Generator: Sketch 53.1 (72631) - https://sketchapp.com -->
    <title>Combined Shape</title>
    <desc>Created with Sketch.</desc>
    <g id="Projects" stroke="none" stroke-width="1" fill="none" fill-rule="evenodd">
        <g id="how-to-bkg" transform="translate(-875.000000, -921.000000)" fill="#000000">
            <path d="M936.121427,949.52522 L938.487245,974.957761 C938.794171,978.257225 936.368241,981.180782 933.068777,981.487709 C932.884029,981.504895 932.698583,981.513501 932.513037,981.513501 L885.333298,981.513501 C882.01959,981.513501 879.333298,978.82721 879.333298,975.513501 C879.333298,975.327956 879.341905,975.14251 879.359091,974.957761 L881.724909,949.52522 L880,949.52522 C877.238576,949.52522 875,947.286644 875,944.52522 C875,942.820934 875.868098,941.234023 877.303245,940.314815 L906.226413,921.789595 C907.870124,920.736802 909.976212,920.736802 911.619922,921.789595 L940.54309,940.314815 C942.868433,941.804191 943.546118,944.896632 942.056741,947.221975 C941.137533,948.657122 939.550622,949.52522 937.846336,949.52522 L936.121427,949.52522 Z M906.637147,952 C904.574915,952 902.850684,953.567821 902.655165,955.620764 L901.41707,968.620764 C901.405065,968.746819 901.399052,968.873374 901.399052,969 C901.399052,971.209139 903.189913,973 905.399052,973 L913.600948,973 C913.727574,973 913.854129,972.993987 913.980184,972.981982 C916.179372,972.772535 917.792376,970.819952 917.58293,968.620764 L916.344835,955.620764 C916.149316,953.567821 914.425085,952 912.362853,952 L906.637147,952 Z" id="Combined-Shape"></path>
        </g>
    </g>
</svg>