<?xml version="1.0" encoding="UTF-8"?>
<svg width="484px" height="85px" viewBox="0 0 484 85" version="1.1" xmlns="http://www.w3.org/2000/svg" xmlns:xlink="http://www.w3.org/1999/xlink">
    <!-- Generator: Sketch 53.1 (72631) - https://sketchapp.com -->
    <title>Group</title>
    <desc>Created with Sketch.</desc>
    <defs>
        <path d="M292.621264,30.1106826 C301.98035,30.1106826 309,35.9660148 309,47.2920514 L309,73 L301.07281,73 L301.07281,48.057342 C301.07281,40.6740721 297.431896,37.1132899 290.67039,37.1132899 C282.998655,37.1132899 277.929879,41.8200253 277.929879,49.8364114 L277.929879,73 L270,73 L270,0 L277.929879,0 L277.929879,37.875937 C281.049126,32.7832519 286.119247,30.1106826 292.621264,30.1106826 Z M344.069597,54.3508091 L344.069597,31 L352,31 L352,72.9821544 L344.069597,72.9821544 L344.069597,66.2190476 C341.20879,71.3215287 335.879731,74 329.379731,74 C319.629059,74 313,68.2613654 313,56.7748189 L313,31 L320.929059,31 L320.929059,56.0087841 C320.929059,63.5379257 324.569597,66.9877331 331.327715,66.9877331 C338.998656,66.9877331 344.069597,62.3888735 344.069597,54.3508091 Z M377.319725,67.1286941 C385.786468,67.1286941 391.432732,60.8956269 391.432732,52.1175336 C391.432732,43.2086213 385.786468,36.9768754 377.319725,36.9768754 C368.855635,36.9768754 363.209371,43.2086213 363.209371,52.1175336 C363.209371,60.8956269 368.855635,67.1286941 377.319725,67.1286941 Z M391.176687,38.248067 L391.176687,0 L399,0 L399,72.9811968 L391.176687,72.9811968 L391.176687,65.8561811 C388.096183,71.0744094 382.837303,74 375.910812,74 C364.108846,74 355,64.5849896 355,52.1175336 C355,39.5219014 364.108846,30.1042481 375.910812,30.1042481 C382.837303,30.1042481 388.096183,33.0311602 391.176687,38.248067 Z M428.522883,63.9134736 L435,65.5031441 L428.522883,67.0865264 L430.253778,73 L425.503434,68.6711663 L420.747596,73 L422.481238,67.0865264 L416,65.5031441 L422.481238,63.9134736 L420.747596,58 L425.503434,62.3288337 L430.253778,58 L428.522883,63.9134736 Z M405,73 L405,0 L413,0 L413,73 L405,73 Z M449.847949,68.9921136 L483,68.9921136 L483,73 L441,73 L441,71.8856701 L441.148955,71.7495183 L461.61407,52.77022 C468.517475,46.3962002 477.109492,38.4650267 477.109492,30.3514361 C477.109492,19.0032486 466.941256,18.1215665 463.822672,18.1215665 C456.633544,18.1215665 451.502708,22.1228436 448.985362,29.6918269 L448.836407,30.1346507 L444.772633,28.8207196 L444.901277,28.3937581 C447.594661,19.5148093 454.844725,14 463.822672,14 C476.175135,14 481.705442,22.2114083 481.705442,30.3514361 C481.705442,39.8847067 472.034176,48.7319308 464.265476,55.840906 L449.847949,68.9921136 Z" id="path-1"></path>
    </defs>
    <g id="Projects" stroke="none" stroke-width="1" fill="none" fill-rule="evenodd">
        <g id="hudl2-1-copy" transform="translate(-79.000000, -60.000000)">
            <g id="Group" transform="translate(80.000000, 60.000000)">
                <path d="M18.6259006,73 L48.3489125,73 C48.6051138,73 48.6844142,73.2097407 48.3489125,73.3343866 C45.0195155,74.7654173 40.1651107,79.1975376 40.1651107,79.1975376 C36.8308336,82.1303116 34.1895201,84 28.5713914,84 L0.152566107,84 C-0.0389748722,84 -0.0414148846,83.8501852 0.0964458202,83.7758771 C3.24040189,82.2106123 7.88374563,77.6898017 7.88374563,77.6898017 C9.79183539,75.7446067 13.7446556,73 18.6259006,73 Z M67.4481101,73 L97.2284624,73 C97.4834437,73 97.5078438,73.2097407 97.1723421,73.3343866 C93.8453851,74.7654173 89.0446606,79.1975376 89.0446606,79.1975376 C85.7116035,82.1303116 83.06785,84 77.4509413,84 L48.9759957,84 C48.7832347,84 48.7807947,83.8501852 48.9198754,83.7758771 C52.0638315,82.2106123 56.7059552,77.6898017 56.7059552,77.6898017 C58.617705,75.7446067 62.5668652,73 67.4481101,73 Z M116.32644,73 L146.108012,73 C146.362994,73 146.387394,73.2097407 146.050672,73.3343866 C142.722495,74.7654173 137.86809,79.1975376 137.86809,79.1975376 C134.532593,82.1303116 131.9474,84 126.330491,84 L97.8555456,84 C97.6640046,84 97.6603446,83.8501852 97.7969853,83.7758771 C100.940941,82.2106123 105.584285,77.6898017 105.584285,77.6898017 C107.494815,75.7446067 111.446415,73 116.32644,73 Z M165.14865,73 L194.930222,73 C195.183983,73 195.268164,73.2097407 194.930222,73.3343866 C191.603265,74.7654173 186.7452,79.1975376 186.7452,79.1975376 C183.410923,82.1303116 180.768389,84 175.150261,84 L146.676535,84 C146.484994,84 146.481334,83.8501852 146.617975,83.7758771 C149.763151,82.2106123 154.462615,77.6898017 154.462615,77.6898017 C156.374365,75.7446067 160.269845,73 165.14865,73 Z M214.02576,73 L243.806112,73 C244.063533,73 244.084273,73.2097407 243.748771,73.3343866 C240.425474,74.7654173 235.62353,79.1975376 235.62353,79.1975376 C232.285593,82.1303116 229.645499,84 224.028591,84 L195.551205,84 C195.360884,84 195.356004,83.8501852 195.495085,83.7758771 C198.637821,82.2106123 203.283605,77.6898017 203.283605,77.6898017 C205.191694,75.7446067 209.145735,73 214.02576,73 Z M118.118196,19 C123.829845,19 131.309877,20.0605648 136.943634,21.845686 L136.943634,31.4078754 C132.590221,27.3611119 124.665963,25.2045486 117.325892,25.2045486 C112.963959,25.2045486 107.969157,26.4654967 107.969157,30.1567021 C107.969157,39.3230124 139.096608,30.9191358 139.096608,49.6231985 C139.096608,60.2129627 129.038849,63 118.288584,63 C110.587047,63 103.490387,62.1642554 98.2740809,60.4377829 L98.2740809,51.4449751 C105.270942,55.6566882 110.790296,56.8528783 118.798531,56.8528783 C123.256611,56.8528783 128.775965,55.415984 128.775965,51.8432979 C128.775965,40.8833134 97.6497306,50.346533 97.6497306,32.4330066 C97.6497306,22.088834 107.754955,19 118.118196,19 Z M173.11457,19.1136319 C177.724782,19.1136319 182.287529,19.4972925 185.925313,20.2499514 L185.925313,30.8946988 C182.426273,27.464969 178.080163,25.4855739 172.658174,25.4855739 C162.708732,25.4855739 155.593817,31.9980284 155.593817,40.911416 C155.593817,49.9482103 162.456801,56.2236261 172.49022,56.2236261 C177.66758,56.2236261 182.491995,54.4959318 186.55088,50.1901363 L186.55088,60.8348838 C180.808805,62.2180167 175.896762,62.9425731 170.39323,62.9425731 C153.404331,62.9425731 142.044321,54.4983755 142.044321,41.881564 C142.044321,28.1345422 154.421791,19.1136319 173.11457,19.1136319 Z M216.713205,19.1136319 C231.867999,19.1136319 242.00365,27.7557691 241.999999,40.6878176 C241.999999,53.8679015 230.854191,62.943795 214.673417,62.943795 C199.443165,62.943795 189.215018,54.4067368 189.215018,41.5394463 C189.215018,28.4228986 200.605455,19.1136319 216.713205,19.1136319 Z M2,20.4222321 L2,20.4234539 L51.2689035,20.4234539 L51.2689035,30.4988198 C47.7674304,27.7704313 39.4914424,26.5155925 32.5590855,26.4545 L32.5590855,54.1758074 C32.5590855,58.1736969 32.825621,59.3124601 34.6013072,61.4054872 L18.7819997,61.4054872 C20.4712748,59.3124601 20.8230043,58.1736969 20.8230043,54.1758074 L20.8230043,26.6842076 C12.8245054,26.7453 5.50147313,27.772875 2,30.497598 L2,20.4222321 Z M55.5225179,20.4222321 L55.5225179,20.4283413 L91.4123132,20.4283413 L91.4123132,30.4462803 C88.1712903,27.7203355 79.5374876,26.689095 74.5731119,26.689095 L69.0172464,26.689095 L69.0172464,37.5586626 L73.0992558,37.5586626 C75.8571071,37.5586626 80.8981574,37.2849685 83.7582414,36.3624726 L83.7582414,44.8995307 C80.8567774,44.032018 75.8656265,43.7033406 73.0992558,43.7033406 L69.0172464,43.7033406 L69.0172464,55.1435117 L74.5731119,55.1435117 C78.628346,55.205826 88.6069967,55.1923857 93.8500785,51.4449751 L93.8500785,61.4054872 L55.6357042,61.4054872 C57.2069248,59.3747744 57.5063209,58.1736969 57.5063209,54.1758074 L57.5063209,27.708117 C57.5063209,23.7065619 57.1777155,22.5140374 55.5225179,20.4222321 Z M215.63976,25.3181806 C207.065593,25.3181806 201.576666,32.3267057 201.575449,40.9712866 C201.575449,49.6170892 207.065593,56.6256144 215.63976,56.6256144 C224.0764,56.6256144 229.643219,49.6170892 229.643219,40.9712866 C229.643219,32.3254839 224.0764,25.3181806 215.63976,25.3181806 Z" id="Combined-Shape" stroke="#FFFFFF" stroke-width="0.5" fill="#FFFFFF" fill-rule="nonzero"></path>
                <mask id="mask-2" fill="white">
                    <use xlink:href="#path-1"></use>
                </mask>
                <use id="Combined-Shape" fill="#FEFEFE" xlink:href="#path-1"></use>
            </g>
        </g>
    </g>
</svg>