<?xml version="1.0" encoding="UTF-8"?>
<svg width="186px" height="84px" viewBox="0 0 186 84" version="1.1" xmlns="http://www.w3.org/2000/svg" xmlns:xlink="http://www.w3.org/1999/xlink">
    <!-- Generator: Sketch 57.1 (83088) - https://sketch.com -->
    <title>Combined Shape</title>
    <desc>Created with Sketch.</desc>
    <g id="Page-1" stroke="none" stroke-width="1" fill="none" fill-rule="evenodd">
        <g id="ffa-2" transform="translate(-1688.000000, -599.000000)" fill="#991B1E">
            <g id="ffa-overview-3" transform="translate(970.000000, 550.000000)">
                <path d="M810.578967,75.2624049 C806.769475,76.5734556 802.301387,78.230097 799.914285,81.6466083 C797.280397,85.4161907 795.954728,89.8949074 794.40371,94.1721542 C794.158419,94.8478764 793.904652,95.5056459 793.639917,96.1459612 C791.928861,100.281082 789.739189,103.708564 786.26124,106.783474 C782.641201,109.983555 778.455297,112.295473 773.729454,113.52025 C767.971094,115.012325 761.974922,114.875684 756.07547,115.013821 C750.209422,115.151459 744.529336,115.921932 738.864207,117.452904 C730.082085,119.826658 723.366991,125.819392 718,133 C719.053954,131.58971 719.518113,129.093278 720.263459,127.485508 C722.26318,123.17485 724.654769,119.033745 727.44371,115.185369 C732.318622,108.458567 738.651821,102.553603 746.24787,99.0513174 C753.922691,95.5131262 761.630916,95.6043861 769.858141,96.6516308 C774.001667,97.178744 778.237925,95.7031263 781.589739,93.2096864 C786.160531,89.8091331 787.996725,84.5355078 792.004144,80.7434844 C796.275301,76.7016184 803.57371,75.3860795 810.578967,75.2624049 Z M805.844149,93.37176 C808.583732,93.37176 810.021079,93.7512616 811.322817,94.8638344 C812.705821,96.0302656 813.438204,97.7661985 813.438204,99.8008454 C813.438204,102.833976 811.900056,104.995077 808.499845,105.9354 L808.20383,106.013002 L813.628155,113.419017 L809.044401,113.419017 L803.783105,105.741715 L803.783105,113.419017 L800.067842,113.419017 L800.067842,93.37176 L805.844149,93.37176 Z M826.56527,93.37176 L826.56527,96.9259092 L819.514645,96.9259092 L819.514645,101.645492 L826.26763,101.645492 L826.26763,105.199143 L819.514645,105.199143 L819.514645,109.865366 L826.56527,109.865366 L826.56527,113.419017 L815.799381,113.419017 L815.799381,93.37176 L826.56527,93.37176 Z M834.485881,93.37176 C837.63179,93.37176 840.018393,93.8599755 841.591348,94.8094774 C844.384775,96.4910533 845.95773,99.6382731 845.95773,103.435782 C845.95773,107.478147 844.140481,110.78744 841.048915,112.306444 C839.492847,113.084917 837.762073,113.392068 834.956474,113.417305 L834.567146,113.419017 L829.902625,113.419017 L829.902625,93.37176 L834.485881,93.37176 Z M853.010848,93.37176 C855.994226,93.37176 857.241622,93.5886893 858.434674,94.3486898 C859.872519,95.2707638 860.71309,96.8436257 860.71309,98.7157004 C860.71309,100.587276 860.089392,101.645492 858.489516,102.486779 C861.038649,103.544496 861.906142,105.0635 861.906142,107.450719 C861.906142,111.036784 859.488406,113.322347 854.549965,113.416023 L854.231321,113.419017 L848.88876,113.419017 L848.88876,93.37176 L853.010848,93.37176 Z M868.335064,93.37176 L868.335064,113.419017 L864.6198,113.419017 L864.6198,93.37176 L868.335064,93.37176 Z M872.213855,93.37176 L877.990661,93.37176 C880.729746,93.37176 882.167092,93.7512616 883.468831,94.8638344 C884.851834,96.0302656 885.583719,97.7661985 885.583719,99.8008454 C885.583719,102.833976 884.046043,104.995077 880.645857,105.9354 L880.349844,106.013002 L885.77367,113.419017 L881.190913,113.419017 L875.929119,105.741715 L875.929119,113.419017 L872.213855,113.419017 L872.213855,93.37176 L877.990661,93.37176 Z M892.528151,93.37176 C895.67406,93.37176 898.060663,93.8599755 899.633618,94.8094774 C902.427046,96.4910533 904,99.6382731 904,103.435782 C904,107.478147 902.182751,110.78744 899.091185,112.306444 C897.463888,113.120303 895.646639,113.419017 892.609416,113.419017 L892.609416,113.419017 L887.944896,113.419017 L887.944896,93.37176 Z M834.350273,96.9259092 L833.617889,96.9259092 L833.617889,109.865366 L834.431538,109.865366 C836.655611,109.865366 838.201145,109.59408 839.31343,108.970221 C841.103258,107.993291 842.215045,105.850429 842.215045,103.435782 C842.215045,100.858563 841.048915,98.7157004 839.1509,97.7392693 C837.984271,97.1423398 836.709455,96.9259092 834.350273,96.9259092 Z M854.366929,104.737856 L852.604023,104.737856 L852.604023,109.865366 L854.448194,109.865366 C857.051671,109.865366 858.163458,109.105366 858.163458,107.369433 C858.163458,105.579143 856.943483,104.737856 854.366929,104.737856 Z M897.252997,98.372603 L894.292054,98.372603 L894.292054,101.902815 L890.781199,101.902815 L890.781199,104.864523 L894.292054,104.864523 L894.292054,108.376284 L897.252997,108.376284 L897.252997,104.864523 L900.782797,104.864523 L900.782797,101.902815 L897.252997,101.902815 L897.252997,98.372603 Z M805.437325,96.9259092 L803.783105,96.9259092 L803.783105,102.948065 L805.600354,102.948065 C808.475047,102.948065 809.69552,102.025492 809.69552,99.9095594 C809.69552,98.1187709 808.963136,96.9259092 805.437325,96.9259092 Z M877.583338,96.9259092 L875.929119,96.9259092 L875.929119,102.948065 L877.746367,102.948065 C880.62106,102.948065 881.841533,102.025492 881.841533,99.9095594 C881.841533,98.1187709 881.10915,96.9259092 877.583338,96.9259092 Z M854.123133,97.0071954 L852.604023,97.0071954 L852.604023,101.10292 L853.797574,101.10292 C856.048071,101.10292 856.997328,100.479061 856.997328,99.0413436 C856.997328,97.6574845 856.048071,97.0071954 854.123133,97.0071954 Z M729.738079,66.5209033 C733.054392,66.9256925 738.908265,68.3046401 739.390331,68.4188496 L739.422095,68.4263901 C745.797671,75.8683108 751.573978,82.8404673 759.82314,86.702307 C763.046326,88.2113368 766.649414,89.2461144 770.810389,89.6475582 C772.224802,91.5844623 772.888384,92.818715 772.888384,92.818715 C765.002174,92.9309198 758.872886,91.4672706 753.968559,89.1713112 C747.016648,85.9168735 742.530113,80.9893376 739.01178,76.5146104 C735.492451,72.0398832 732.939827,68.0184633 729.851751,66.5722682 C729.814359,66.5548141 729.775471,66.5383574 729.738079,66.5209033 Z M720.583534,49 C767.241702,63.7681457 774.804348,88.7234894 774.804348,88.7234894 C747.971888,88.4237779 743.223609,63.7028176 720.583534,49 Z M807.750141,72.0189383 C800.867531,72.8796737 797.812858,68.2857601 791.229383,68.7246055 C783.524648,69.2392515 779.965932,80.0388383 774.446881,81.6914902 C779.923056,78.385189 781.093174,68.4398547 790.112112,66.5927144 C798.263556,64.9236058 802.846811,71.0499875 807.750141,72.0189383 Z M791.151608,71.5646335 C791.485642,71.5691217 791.822668,71.6414315 792.144738,71.7920352 C793.362718,72.3625343 793.887701,73.8107242 793.31685,75.030515 C792.746997,76.248311 791.298683,76.7734294 790.080702,76.2034291 C788.862722,75.63293 788.337739,74.1837428 788.907592,72.9664454 C789.01927,72.7270752 789.164849,72.5171276 789.335855,72.3341091 C789.266555,72.8228233 789.513342,73.3190178 789.982985,73.5389392 C790.559818,73.8092281 791.245835,73.5618789 791.516054,72.9843982 C791.753867,72.4757365 791.588844,71.8832951 791.151608,71.5646335 Z" id="Combined-Shape"></path>
            </g>
        </g>
    </g>
</svg>