<?xml version="1.0" encoding="UTF-8"?>
<svg width="115px" height="174px" viewBox="0 0 115 174" version="1.1" xmlns="http://www.w3.org/2000/svg" xmlns:xlink="http://www.w3.org/1999/xlink">
    <!-- Generator: Sketch 53.1 (72631) - https://sketchapp.com -->
    <title>Combined Shape</title>
    <desc>Created with Sketch.</desc>
    <g id="Page-1" stroke="none" stroke-width="1" fill="none" fill-rule="evenodd">
        <g id="Artboard" fill="#FFFFFF" fill-rule="nonzero">
            <path d="M53,133.82 C58.2719166,133.777354 63.3427146,135.841096 67.0865697,139.553032 C70.8304247,143.264969 72.9375071,148.317912 72.94,153.59 C72.9395971,164.486451 64.122587,173.328225 53.22618,173.359189 C42.329773,173.390153 33.4626545,164.598632 33.4003235,153.70236 C33.3379924,142.806087 42.1039519,133.913697 53,133.82 Z M53,168.02 L53,168 C56.8034727,168.011701 60.4505859,166.487382 63.1145242,163.772612 C65.7784625,161.057843 67.2335816,157.382572 67.15,153.58 C67.1488168,147.713428 63.5984171,142.430664 58.1668718,140.213688 C52.7353265,137.996713 46.5023422,139.286226 42.3963384,143.476381 C38.2903347,147.666536 37.1275212,153.924395 39.4542181,159.309852 C41.780915,164.695309 47.1346113,168.137819 53,168.02 Z M82.98,134.28 L82.98,167.79 L102.41,167.79 L102.41,172.89 L77.3,172.89 L77.3,134.28 L82.98,134.28 Z M106.67,134.28 L112.35,134.28 L112.35,172.89 L106.67,172.89 L106.67,134.28 Z M21.09,158.05 L32.57,172.89 L25,172.89 L9.81,153.26 L16.17,153.26 C16.6786004,153.258517 17.1864856,153.221762 17.69,153.15 C21.49,152.62 23.99,150.11 23.99,146.48 C23.99,142.34 20.82,139.65 16.18,139.65 L8.37,139.65 L8.37,172.89 L2.37,172.89 L2.37,134.28 L16.57,134.28 C25,134.28 30,139.66 30,146.49 C30.1146726,151.958064 26.4070042,156.768462 21.09,158.05 Z M114.08,57.39 C114.08,88.6990225 88.6990225,114.08 57.39,114.08 C26.0809775,114.08 0.7,88.6990225 0.7,57.39 C0.7,26.0809775 26.0809775,0.7 57.39,0.7 C88.6990225,0.7 114.08,26.0809775 114.08,57.39 Z M77.42,81.48 C77.0097153,80.7895731 76.339726,80.2924843 75.56,80.1 C72.07,79.22 68.95,76.24 66.1,73.1 C64.89,71.79 63.39,70.15 61.84,68.72 L61.54,68.44 L61.93,68.3 C69.7197374,65.4827745 74.9150015,58.0935103 74.93,49.81 C74.93,39.09 66.32,30.69 55.33,30.69 L44.36,30.69 C42.7031458,30.69 41.36,32.0331458 41.36,33.69 C41.36,35.3468542 42.7031458,36.69 44.36,36.69 L55.3,36.69 C62.9,36.69 68.85,42.42 68.85,49.74 C68.8445069,57.224423 62.7844068,63.2934679 55.3,63.31 L44.36,63.31 C42.6838158,63.31 41.325,64.6688158 41.325,66.345 C41.325,68.0211842 42.6838158,69.38 44.36,69.38 L50.25,69.38 C54.52,69.38 57.98,73.15 61.65,77.14 C65.04,80.82 68.78,84.53 74.08,85.87 C75.2772446,86.2054636 76.5573457,85.7676401 77.2983793,84.7692415 C78.0394129,83.7708429 78.0877872,82.4188045 77.42,81.37 L77.42,81.48 Z" id="Combined-Shape"></path>
        </g>
    </g>
</svg>