<svg width="690" height="75" viewBox="0 0 690 75" fill="none" xmlns="http://www.w3.org/2000/svg">
<path d="M20.52 60.01C17.55 60.01 14.8 59.9 12.27 59.68C9.75 59.46 7.47 59.15 5.45 58.76C3.43 58.37 1.66 57.92 0.16 57.42L1.34 45.5C2.88 46.26 4.64 46.92 6.63 47.49C8.62 48.05 10.64 48.49 12.7 48.79C14.76 49.09 16.7 49.24 18.53 49.24C19.71 49.24 20.74 49.16 21.62 49C22.5 48.84 23.18 48.57 23.66 48.17C24.14 47.78 24.39 47.23 24.39 46.52C24.39 45.89 24.09 45.39 23.48 45.01C22.87 44.63 21.86 44.28 20.44 43.95C19.02 43.62 17.1 43.24 14.66 42.79C11.22 42.16 8.43 41.35 6.28 40.35C4.13 39.35 2.55 38.11 1.53 36.63C0.51 35.15 0 33.34 0 31.22C0 27.21 1.83 24.07 5.48 21.8C9.13 19.53 14.24 18.4 20.79 18.4C23.73 18.4 26.5 18.53 29.12 18.79C31.73 19.05 34.11 19.39 36.24 19.81C38.37 20.23 40.15 20.65 41.59 21.07L40.35 33.15C38.7 32.36 36.91 31.71 34.98 31.2C33.05 30.69 31.21 30.31 29.47 30.06C27.73 29.81 26.34 29.69 25.31 29.69C24.38 29.69 23.55 29.78 22.84 29.95C22.12 30.12 21.57 30.39 21.17 30.76C20.78 31.13 20.58 31.6 20.58 32.18C20.58 32.76 20.78 33.22 21.17 33.66C21.56 34.09 22.3 34.49 23.37 34.86C24.44 35.23 26 35.61 28.04 36C32.09 36.79 35.34 37.64 37.79 38.56C40.24 39.48 42.02 40.61 43.11 41.94C44.2 43.28 44.75 44.98 44.75 47.06C44.75 49.66 43.93 51.93 42.28 53.87C40.63 55.81 38.02 57.33 34.44 58.41C30.86 59.5 26.22 60.04 20.53 60.04L20.52 60.01Z" fill="#FF5059"/>
<path d="M50.55 58.86V1.14L70.59 0V24.36H72.2C73.27 23.23 74.53 22.21 75.96 21.29C77.39 20.37 79.03 19.64 80.88 19.11C82.72 18.57 84.79 18.3 87.08 18.3C92.31 18.3 96.34 19.45 99.17 21.74C102 24.04 103.41 27.52 103.41 32.19V58.87H83.37V37.15C83.37 35.31 82.99 33.93 82.24 33C81.49 32.07 80.13 31.6 78.16 31.6C77.09 31.6 76.09 31.76 75.18 32.07C74.27 32.38 73.42 32.82 72.65 33.37C71.88 33.92 71.19 34.52 70.58 35.18V58.87H50.54L50.55 58.86Z" fill="#FF5059"/>
<path d="M123.77 59.8901C120.62 59.8901 117.95 59.4001 115.77 58.4101C113.58 57.4301 111.93 56.0801 110.8 54.3801C109.67 52.6801 109.11 50.7601 109.11 48.6401C109.11 46.3601 109.66 44.4601 110.78 42.9501C111.89 41.4401 113.31 40.2201 115.05 39.2901C116.79 38.3601 118.62 37.6501 120.56 37.1701C122.49 36.6801 124.28 36.3401 125.93 36.1301L140.27 34.3601C140.34 33.3901 140.02 32.6001 139.3 32.0001C138.58 31.4001 137.49 30.9501 136.02 30.6601C134.55 30.3701 132.74 30.2301 130.59 30.2301C129.37 30.2301 128.04 30.3001 126.59 30.4501C125.14 30.5901 123.62 30.8001 122.02 31.0801C120.43 31.3601 118.82 31.7001 117.21 32.1201C115.6 32.5401 113.99 33.0401 112.37 33.6201L111.51 21.3801C112.87 21.0701 114.43 20.7201 116.18 20.3601C117.93 19.9901 119.87 19.6601 121.98 19.3601C124.09 19.0601 126.35 18.8101 128.75 18.6101C131.15 18.4101 133.66 18.3101 136.27 18.3101C140.89 18.3101 144.85 18.8001 148.14 19.7901C151.43 20.7701 153.95 22.3201 155.69 24.4101C157.43 26.5101 158.3 29.2401 158.3 32.5901V58.8701H141.75L140.41 53.3601H139.07C138.14 54.5101 136.96 55.5801 135.52 56.5701C134.09 57.5501 132.39 58.3501 130.44 58.9701C128.49 59.5901 126.26 59.8901 123.75 59.8901H123.77ZM132.63 48.7201C133.49 48.7201 134.36 48.5701 135.24 48.2701C136.12 47.9701 136.94 47.5401 137.71 46.9901C138.48 46.4401 139.15 45.8001 139.72 45.0601V39.2801C139.36 39.5201 138.94 39.7301 138.46 39.9301C137.98 40.1301 137.3 40.3301 136.42 40.5401C135.54 40.7501 134.35 41.0001 132.85 41.2901C131.95 41.4501 131.14 41.7001 130.41 42.0601C129.68 42.4101 129.09 42.8601 128.66 43.4001C128.23 43.9401 128.02 44.6001 128.02 45.3901C128.02 46.5701 128.5 47.4201 129.47 47.9501C130.44 48.4801 131.49 48.7401 132.64 48.7401L132.63 48.7201Z" fill="#FF5059"/>
<path d="M166.27 74.4101V19.48L183.94 18.81L184.53 24.32H186.09C187.16 22.98 188.42 21.87 189.85 20.98C191.28 20.09 192.91 19.42 194.74 18.97C196.57 18.52 198.59 18.3 200.81 18.3C205.47 18.3 209.35 19.22 212.47 21.07C215.59 22.92 217.92 25.42 219.48 28.57C221.04 31.72 221.82 35.2501 221.82 39.1501C221.82 42.8001 221.08 46.2101 219.59 49.3801C218.1 52.55 215.82 55.12 212.74 57.07C209.66 59.0201 205.74 60 200.97 60C198.93 60 197.08 59.8 195.41 59.39C193.74 58.98 192.26 58.41 190.95 57.66C189.64 56.91 188.45 56.01 187.38 54.96H186.31V73.9701L166.27 74.4001V74.4101ZM192.97 47.69C194.83 47.69 196.38 47.2801 197.62 46.4701C198.86 45.6601 199.78 44.6101 200.39 43.32C201 42.04 201.3 40.68 201.3 39.2701C201.3 37.75 200.99 36.3501 200.36 35.0801C199.73 33.8101 198.8 32.78 197.57 32.01C196.33 31.24 194.78 30.85 192.92 30.85C192.06 30.85 191.22 30.95 190.4 31.15C189.58 31.35 188.82 31.62 188.12 31.98C187.42 32.33 186.82 32.76 186.32 33.26V44.43C186.75 45.06 187.27 45.62 187.88 46.1C188.49 46.59 189.22 46.97 190.08 47.26C190.94 47.55 191.91 47.69 192.98 47.69H192.97Z" fill="#FF5059"/>
<path d="M274.01 26.0301C272.09 23.4201 269.34 21.48 265.74 20.21C262.14 18.94 257.78 18.3 252.66 18.3C246.64 18.3 241.66 19.19 237.72 20.96C233.78 22.73 230.83 25.18 228.88 28.32C226.93 31.45 225.95 35.06 225.95 39.12C225.95 43.18 227.01 46.83 229.12 49.96C231.23 53.09 234.55 55.55 239.09 57.34C243.62 59.12 249.5 60.0201 256.74 60.0201C259.6 60.0201 262.24 59.91 264.64 59.69C267.04 59.47 269.19 59.17 271.09 58.8C272.99 58.43 274.64 58.0301 276.03 57.5801L275.39 45.42C273.71 46.02 271.86 46.52 269.86 46.92C267.85 47.31 265.91 47.6101 264.03 47.8101C262.15 48.0101 260.56 48.1101 259.28 48.1101C255.95 48.1101 253.24 47.7701 251.17 47.09C249.09 46.41 247.56 45.42 246.58 44.12C245.99 43.34 245.58 42.45 245.34 41.46H276.37C276.55 40.65 276.68 39.82 276.77 38.98C276.86 38.14 276.9 37.18 276.9 36.1101C276.9 32.0201 275.94 28.67 274.03 26.06L274.01 26.0301ZM248.92 29.0201C250.08 28.35 251.4 28.0201 252.87 28.0201C254.84 28.0201 256.45 28.66 257.71 29.93C258.85 31.08 259.46 32.6201 259.57 34.5401L245.23 34.8301C245.39 33.7501 245.69 32.8 246.14 31.98C246.84 30.68 247.77 29.7001 248.93 29.0301L248.92 29.0201Z" fill="#FF5059"/>
<path d="M302.35 60.01C299.38 60.01 296.63 59.9 294.1 59.68C291.58 59.46 289.3 59.15 287.28 58.76C285.26 58.37 283.49 57.92 281.99 57.42L283.17 45.5C284.71 46.26 286.47 46.92 288.46 47.49C290.45 48.05 292.47 48.49 294.53 48.79C296.59 49.09 298.53 49.24 300.36 49.24C301.54 49.24 302.57 49.16 303.45 49C304.33 48.84 305.01 48.57 305.49 48.17C305.97 47.78 306.22 47.23 306.22 46.52C306.22 45.89 305.92 45.39 305.31 45.01C304.7 44.63 303.69 44.28 302.27 43.95C300.85 43.62 298.93 43.24 296.49 42.79C293.05 42.16 290.26 41.35 288.11 40.35C285.96 39.35 284.38 38.11 283.36 36.63C282.34 35.15 281.83 33.34 281.83 31.22C281.83 27.21 283.66 24.07 287.31 21.8C290.96 19.53 296.07 18.4 302.62 18.4C305.56 18.4 308.33 18.53 310.95 18.79C313.56 19.05 315.94 19.39 318.07 19.81C320.2 20.23 321.98 20.65 323.42 21.07L322.18 33.15C320.53 32.36 318.74 31.71 316.81 31.2C314.88 30.69 313.04 30.31 311.3 30.06C309.56 29.81 308.17 29.69 307.14 29.69C306.21 29.69 305.38 29.78 304.67 29.95C303.95 30.12 303.4 30.39 303 30.76C302.61 31.13 302.41 31.6 302.41 32.18C302.41 32.76 302.61 33.22 303 33.66C303.39 34.09 304.13 34.49 305.2 34.86C306.27 35.23 307.83 35.61 309.87 36C313.92 36.79 317.17 37.64 319.62 38.56C322.07 39.48 323.85 40.61 324.94 41.94C326.03 43.28 326.58 44.98 326.58 47.06C326.58 49.66 325.76 51.93 324.11 53.87C322.46 55.81 319.85 57.33 316.27 58.41C312.69 59.5 308.05 60.04 302.36 60.04L302.35 60.01Z" fill="#FF5059"/>
<path d="M332.38 58.86V1.14L352.42 0V24.36H354.03C355.1 23.23 356.36 22.21 357.79 21.29C359.22 20.37 360.86 19.64 362.71 19.11C364.55 18.57 366.62 18.3 368.91 18.3C374.14 18.3 378.17 19.45 381 21.74C383.83 24.04 385.24 27.52 385.24 32.19V58.87H365.2V37.15C365.2 35.31 364.82 33.93 364.07 33C363.32 32.07 361.96 31.6 359.99 31.6C358.92 31.6 357.92 31.76 357.01 32.07C356.1 32.38 355.25 32.82 354.48 33.37C353.71 33.92 353.02 34.52 352.41 35.18V58.87H332.37L332.38 58.86Z" fill="#FF5059"/>
<path d="M393.62 58.86V19.48L413.66 19.09V58.86H393.62Z" fill="#FF5059"/>
<path d="M501.22 46.43C499.93 47.03 498.67 47.48 497.43 47.77C496.19 48.06 495.06 48.2 494.02 48.2C491.69 48.2 490.04 47.63 489.08 46.49C488.11 45.35 487.63 43.72 487.63 41.59V30.38H502.08V19.48H487.63V4.21L467.86 6.69V19.48H446.59V16.69C446.59 15.01 447.2 13.8 448.42 13.07C449.64 12.34 451.34 11.97 453.52 11.97C454.74 11.97 456.03 12.08 457.39 12.3C458.75 12.52 460.09 12.82 461.42 13.19V1.02C460.7 0.86 459.78 0.71 458.65 0.55C457.52 0.39 456.24 0.26 454.81 0.16C453.38 0.06 451.84 0 450.19 0C447.25 0 444.42 0.24 441.7 0.71C438.98 1.18 436.54 2.02 434.39 3.21C432.24 4.4 430.54 6.06 429.29 8.19C428.04 10.31 427.41 13.02 427.41 16.3V19.49H419.24V30.39H427.41V58.88H447.5V30.38H467.86V46.51C467.86 49.84 468.66 52.5 470.25 54.48C471.84 56.46 474.15 57.88 477.18 58.73C480.21 59.58 483.81 60.01 488.01 60.01C489.73 60.01 491.49 59.94 493.3 59.81C495.11 59.68 496.79 59.47 498.35 59.18C499.91 58.89 501.21 58.54 502.24 58.12L501.22 46.43Z" fill="#FF5059"/>
<path d="M403.6 17.41C400.36 17.41 397.8 16.81 395.93 15.62C394.06 14.43 393.12 12.44 393.12 9.68003C393.12 7.29003 394.06 5.44003 395.93 4.13003C397.8 2.82003 400.39 2.16003 403.69 2.16003C406.99 2.16003 409.52 2.85003 411.38 4.22003C413.24 5.59003 414.17 7.41003 414.17 9.68003C414.17 12.45 413.23 14.43 411.36 15.62C409.49 16.81 406.9 17.41 403.6 17.41Z" fill="#FF5059"/>
<path d="M523.06 45.17V38.63H541.94V45.17H523.06ZM526.41 58.77V37.35C526.41 35.58 526.7 34.14 527.29 33.02C527.88 31.9 528.68 31.02 529.68 30.39C530.68 29.76 531.82 29.33 533.09 29.09C534.36 28.85 535.67 28.73 537.02 28.73C537.93 28.73 538.78 28.77 539.57 28.84C540.36 28.91 541.06 29.01 541.67 29.13C542.28 29.25 542.77 29.37 543.14 29.49L542.38 36.59C541.76 36.39 541.14 36.23 540.54 36.1C539.93 35.97 539.37 35.91 538.84 35.91C538.17 35.91 537.62 36.03 537.19 36.28C536.76 36.53 536.54 36.97 536.54 37.59V38.63L537.02 39.91V58.77H526.41Z" fill="#FF5059"/>
<path d="M557.29 59.42C553.94 59.42 551.23 58.97 549.16 58.06C547.09 57.15 545.57 55.89 544.62 54.28C543.66 52.67 543.19 50.81 543.19 48.71C543.19 46.61 543.62 44.75 544.48 43.14C545.34 41.53 546.67 40.27 548.46 39.36C550.25 38.45 552.56 38 555.38 38C557.74 38 559.75 38.32 561.4 38.96C563.06 39.6 564.32 40.6 565.2 41.96C566.08 43.32 566.51 45.07 566.51 47.23C566.51 47.8 566.49 48.31 566.45 48.74C566.41 49.17 566.35 49.61 566.27 50.03L557.33 47.58C557.36 47.42 557.39 47.25 557.4 47.08C557.42 46.91 557.42 46.75 557.42 46.62C557.42 45.71 557.24 44.99 556.87 44.45C556.5 43.91 556.03 43.65 555.46 43.65C555.06 43.65 554.68 43.77 554.32 44.01C553.96 44.25 553.67 44.63 553.45 45.16C553.23 45.69 553.12 46.39 553.12 47.26V48.82C553.12 49.58 553.31 50.21 553.68 50.72C554.05 51.23 554.65 51.6 555.46 51.85C556.27 52.1 557.34 52.23 558.66 52.23C559.17 52.23 559.84 52.18 560.68 52.08C561.52 51.98 562.39 51.83 563.31 51.64C564.23 51.45 565.07 51.2 565.83 50.91L566.16 58.21C565.52 58.41 564.77 58.6 563.91 58.79C563.05 58.98 562.07 59.13 560.96 59.24C559.85 59.35 558.62 59.41 557.27 59.41L557.29 59.42ZM547.15 50.03V46.74L560.2 46.34L566.27 46.82V50.03H547.15Z" fill="#FF5059"/>
<path d="M578.28 59.4199C576.83 59.4199 575.52 59.3599 574.35 59.2499C573.18 59.1399 572.14 58.9799 571.23 58.7899C570.32 58.5999 569.53 58.3799 568.86 58.1399L569.43 51.1199C570.11 51.5199 570.9 51.8699 571.8 52.1699C572.69 52.4699 573.6 52.7099 574.51 52.8699C575.43 53.0399 576.27 53.1199 577.03 53.1199C577.44 53.1199 577.79 53.0799 578.08 53.0099C578.37 52.9399 578.58 52.8299 578.73 52.6899C578.87 52.5499 578.95 52.3699 578.95 52.1599C578.95 51.9099 578.83 51.6999 578.6 51.5499C578.37 51.3999 577.98 51.2499 577.44 51.1199C576.9 50.9899 576.16 50.8299 575.22 50.6399C573.61 50.3099 572.33 49.8699 571.38 49.3399C570.43 48.8099 569.75 48.1599 569.34 47.3899C568.93 46.6299 568.72 45.7399 568.72 44.7399C568.72 42.6499 569.56 41.0199 571.23 39.8299C572.9 38.6399 575.3 38.0399 578.43 38.0399C579.85 38.0399 581.18 38.1099 582.42 38.2399C583.66 38.3699 584.79 38.5399 585.79 38.7499C586.79 38.9599 587.64 39.1599 588.32 39.3599L587.7 46.4999C586.97 46.0899 586.17 45.7499 585.31 45.4899C584.45 45.2299 583.64 45.0399 582.88 44.9199C582.12 44.7999 581.53 44.7399 581.1 44.7399C580.78 44.7399 580.51 44.7699 580.29 44.8399C580.07 44.9099 579.9 44.9999 579.79 45.1299C579.68 45.2599 579.62 45.4099 579.62 45.5799C579.62 45.8099 579.69 46.0099 579.84 46.1899C579.98 46.3699 580.25 46.5399 580.63 46.6899C581.01 46.8399 581.57 46.9899 582.3 47.1399C584.2 47.5399 585.68 47.9899 586.76 48.4699C587.84 48.9599 588.6 49.5399 589.04 50.2099C589.49 50.8899 589.71 51.6999 589.71 52.6699C589.71 54.0199 589.32 55.1999 588.54 56.2099C587.76 57.2199 586.53 57.9999 584.85 58.5699C583.17 59.1299 580.98 59.4099 578.29 59.4099L578.28 59.4199Z" fill="#FF5059"/>
<path d="M590.42 45.1699V38.6299H609.78V45.1699H590.42ZM603.04 59.4099C601.08 59.4099 599.39 59.1899 597.96 58.7599C596.53 58.3299 595.44 57.5899 594.67 56.5599C593.9 55.5299 593.52 54.1299 593.52 52.3499V32.0899L603.99 30.6499V49.2699C603.99 50.2499 604.15 50.9999 604.48 51.5299C604.81 52.0599 605.41 52.3199 606.28 52.3199C606.69 52.3199 607.16 52.2499 607.67 52.1199C608.18 51.9899 608.72 51.7699 609.3 51.4799L609.78 58.4599C609.29 58.6899 608.66 58.8699 607.92 59.0099C607.17 59.1499 606.37 59.2499 605.52 59.3199C604.67 59.3899 603.84 59.4199 603.05 59.4199L603.04 59.4099Z" fill="#FF5059"/>
<path d="M617.89 37.1899C616.06 37.1899 614.61 36.8499 613.55 36.1799C612.49 35.4999 611.96 34.3799 611.96 32.8199C611.96 31.4699 612.49 30.4199 613.55 29.6799C614.61 28.9399 616.07 28.5699 617.94 28.5699C619.81 28.5699 621.24 28.9599 622.29 29.7299C623.34 30.4999 623.87 31.5399 623.87 32.8199C623.87 34.3899 623.34 35.5099 622.28 36.1799C621.22 36.8499 619.76 37.1899 617.89 37.1899ZM612.61 58.7699V38.6299L623.22 38.3899V58.7699H612.61Z" fill="#FF5059"/>
<path d="M633.35 58.7799C632.86 57.5199 632.35 56.2499 631.83 54.9699C631.31 53.6899 630.8 52.4199 630.29 51.1599L628.86 47.5899C628.27 46.1099 627.68 44.6199 627.08 43.1199C626.48 41.6199 625.88 40.1299 625.28 38.6499L636.75 38.4099C636.94 39.5099 637.13 40.6099 637.32 41.7299C637.51 42.8499 637.7 43.9599 637.89 45.0699L638.61 49.2399H639.37L640.11 45.0499C640.32 43.8899 640.52 42.7699 640.71 41.6999C640.9 40.6299 641.08 39.6099 641.24 38.6499H652.52C651.93 40.1499 651.34 41.6499 650.74 43.1399C650.14 44.6399 649.54 46.1399 648.94 47.6299L647.51 51.2199C647.02 52.4799 646.52 53.7299 646.02 54.9899C645.52 56.2499 645.01 57.5099 644.5 58.7799H633.36H633.35Z" fill="#FF5059"/>
<path d="M659.31 59.34C657.88 59.34 656.7 59.08 655.77 58.56C654.85 58.04 654.16 57.35 653.71 56.49C653.26 55.63 653.04 54.71 653.04 53.72C653.04 52.53 653.3 51.55 653.82 50.78C654.34 50.01 654.99 49.39 655.77 48.92C656.55 48.45 657.36 48.1 658.18 47.87C659.01 47.64 659.73 47.47 660.36 47.38L666.48 46.42C666.5 46.19 666.38 45.99 666.12 45.8C665.86 45.61 665.45 45.46 664.88 45.35C664.31 45.24 663.55 45.18 662.61 45.18C662.07 45.18 661.47 45.21 660.82 45.28C660.17 45.35 659.49 45.45 658.78 45.59C658.07 45.73 657.36 45.9 656.65 46.11C655.94 46.32 655.25 46.57 654.58 46.86L654.15 39.56C654.76 39.4 655.46 39.23 656.27 39.05C657.08 38.87 657.97 38.7 658.95 38.54C659.93 38.38 660.99 38.25 662.13 38.15C663.27 38.05 664.47 38 665.73 38C667.85 38 669.67 38.25 671.18 38.76C672.69 39.27 673.85 40.07 674.66 41.16C675.46 42.25 675.87 43.67 675.87 45.42V58.78H667.31L666.59 55.85H665.92C665.52 56.49 665.02 57.08 664.4 57.61C663.79 58.14 663.06 58.56 662.21 58.87C661.37 59.18 660.4 59.34 659.32 59.34H659.31ZM664.28 52.64C664.5 52.64 664.73 52.59 664.96 52.5C665.19 52.41 665.41 52.28 665.62 52.13C665.83 51.98 666.02 51.8 666.19 51.6V48.75C666.06 48.87 665.93 48.98 665.78 49.08C665.63 49.18 665.45 49.28 665.23 49.38C665.01 49.48 664.72 49.59 664.37 49.71C664.13 49.79 663.9 49.89 663.66 50.02C663.42 50.15 663.23 50.31 663.07 50.52C662.91 50.73 662.83 50.99 662.83 51.31C662.83 51.76 662.99 52.1 663.3 52.31C663.61 52.52 663.93 52.63 664.27 52.63L664.28 52.64Z" fill="#FF5059"/>
<path d="M678.96 58.7799V29.3299L689.57 28.6899V58.7799H678.96Z" fill="#FF5059"/>
</svg>
