<?xml version="1.0" encoding="UTF-8"?>
<svg width="489px" height="81px" viewBox="0 0 489 81" version="1.1" xmlns="http://www.w3.org/2000/svg" xmlns:xlink="http://www.w3.org/1999/xlink">
    <!-- Generator: Sketch 53.1 (72631) - https://sketchapp.com -->
    <title>w3w-logo</title>
    <desc>Created with Sketch.</desc>
    <g id="Page-1" stroke="none" stroke-width="1" fill="none" fill-rule="evenodd">
        <g id="w3w-logo" fill-rule="nonzero">
            <path d="M3,3.33 L77.7,3.33 L77.7,78 L3,78 L3,3.33 Z M0.33,80.7 L80.33,80.7 L80.33,0.7 L0.33,0.7 L0.33,80.7 Z" id="Shape" fill="#E11F26"></path>
            <g id="Group" transform="translate(18.000000, 23.000000)">
                <path d="M2.42,34.49 C3.11325881,34.7507972 3.88208873,34.7230833 4.55477082,34.4130482 C5.22745292,34.1030132 5.74794693,33.5364856 6,32.84 L16.32,4.43 C16.802283,3.00170119 16.0538064,1.44996252 14.6357763,0.93827412 C13.2177462,0.426585716 11.6508754,1.14284394 11.11,2.55 L11.11,2.55 L0.76,31 C0.236449679,32.4358927 0.974818298,34.0245039 2.41,34.55 L2.41,34.55" id="Path" fill="#E11F26"></path>
                <path d="M14.67,33.06 C15.1231566,34.0324786 16.0971309,34.6558221 17.17,34.66 C18.3307132,34.6432786 19.3625937,33.9169935 19.77,32.83 L30.13,4.42 C30.4899566,3.48352727 30.3154068,2.42561687 29.6736927,1.65441463 C29.0319786,0.883212381 28.023418,0.519278821 27.0371175,0.703020889 C26.050817,0.886762957 25.2409629,1.58945662 24.92,2.54 L24.92,2.54 L14.56,31 C14.3063031,31.6904265 14.3387003,32.4535592 14.65,33.12" id="Path" fill="#E11F26"></path>
                <path d="M28.47,33.06 C28.9277271,34.0423333 29.9162858,34.6675088 31,34.66 C32.1643855,34.6473754 33.2012708,33.9203638 33.61,32.83 L44,4.42 C44.3599566,3.48352727 44.1854068,2.42561687 43.5436927,1.65441463 C42.9019786,0.883212381 41.893418,0.519278821 40.9071175,0.703020889 C39.920817,0.886762957 39.1109629,1.58945662 38.79,2.54 L38.79,2.54 L28.39,31 C28.1351804,31.6902508 28.1675965,32.4538294 28.48,33.12" id="Path" fill="#E11F26"></path>
                <path d="M273,28.84 L273,28.84 L273,28.77 C272.995407,28.3322649 272.968706,27.8950412 272.92,27.46 L272.92,27.32 C272.873333,26.98 272.816667,26.6466667 272.75,26.32 C272.73692,26.207144 272.710053,26.0963172 272.67,25.99 L272.67,25.85 L272.6,25.6 L272.5,25.25 L272.5,25.18 C272.216519,24.2836942 271.834165,23.421722 271.36,22.61 C269.856816,19.5290039 267.12202,17.2263999 263.83,16.27 C263.177625,16.027783 262.509386,15.8306526 261.83,15.68 L270.35,4 L270.35,0.26 L249.35,0.26 L249.35,5 L264,5 L256.22,15.69 L255.96,16.05 L255.96,19.9 L260.26,19.9 C261.092646,20.0208261 261.908228,20.2389859 262.69,20.55 C263.48629,20.7987825 264.22195,21.2108879 264.85,21.76 C267.184806,23.3696891 268.591002,26.0142327 268.62,28.85 C268.62,33.85 264.17,37.85 258.68,37.85 C255.251505,37.7978806 252.016191,36.2532555 249.82,33.62 L248.82,34.62 L246.71,36.73 L246.71,36.73 L246.65,36.79 L246.73,36.89 C249.579256,40.5006505 253.94078,42.5872388 258.54,42.54 C266.54,42.54 273.09,36.44 273.09,28.92 L273.09,28.92 L273.09,28.92" id="Path" fill="#0A3049"></path>
                <polygon id="Path" fill="#0A3049" points="83.79 0.74 84.11 0.35 89.25 0.4 89.64 0.65 98.02 25.93 98.66 28.73 99.23 26 104.88 7.06 104.88 0.86 104.88 0.74 105.2 0.35 109.71 0.4 110.02 0.72 110.02 7.64 115.3 26 115.87 28.73 116.44 25.93 124.4 0.78 124.72 0.4 129.84 0.4 130.22 0.65 117.97 34.95 117.65 35.26 113.52 35.28 113.2 34.96 107.93 16.97 107.29 14.18 106.66 16.97 101.27 34.95 100.95 35.26 96.86 35.28 96.54 34.96"></polygon>
                <polygon id="Path" fill="#0A3049" points="139.16 0.86 139.47 0.35 144.04 0.4 144.36 0.72 144.36 14.56 162.91 14.56 162.91 0.86 163.22 0.35 167.8 0.4 168.12 0.77 168.12 34.57 167.8 34.89 163.22 34.89 162.91 34.57 162.91 19.27 144.36 19.27 144.36 34.57 144.04 34.89 139.47 34.89 139.16 34.57"></polygon>
                <path d="M190.54,0.71 L190.86,0.4 L195.92,0.4 L196.23,0.71 L209.06,34.61 L208.74,34.93 L203.74,34.93 L203.42,34.61 L200.6,26.67 L186.13,26.67 L183.31,34.61 L182.99,34.93 L177.99,34.93 L177.67,34.61 L190.54,0.71 Z M199,22.18 L193.94,7.8 L193.31,5.58 L192.74,7.8 L187.66,22.22 L199,22.18 Z" id="Shape" fill="#0A3049"></path>
                <polygon id="Path" fill="#0A3049" points="222.01 5.05 211.97 5.05 211.65 4.73 211.65 0.67 211.97 0.35 237.35 0.35 237.6 0.67 237.58 4.73 237.2 5.05 227.21 5.05 227.21 34.57 226.89 34.89 222.33 34.89 222.01 34.57"></polygon>
                <polygon id="Path" fill="#0A3049" points="283.42 0.74 283.74 0.35 288.88 0.4 289.25 0.65 297.64 25.93 298.28 28.73 298.85 26 304.5 7.06 304.5 0.86 304.5 0.74 304.82 0.35 309.33 0.4 309.65 0.72 309.65 7.64 314.92 26 315.49 28.73 316.06 25.93 324.02 0.78 324.34 0.4 329.47 0.4 329.85 0.65 317.59 34.95 317.27 35.26 313.13 35.28 312.82 34.96 307.55 16.97 306.92 14.18 306.29 16.97 300.88 34.95 300.56 35.26 296.48 35.28 296.17 34.96"></polygon>
                <path d="M335.68,12.78 C335.68,4.52 341.53,0.08 350.23,0.08 C358.93,0.08 364.78,4.52 364.78,12.78 L364.78,23.07 C364.78,31.26 358.93,35.65 350.23,35.65 C341.53,35.65 335.68,31.26 335.68,23.07 L335.68,12.78 Z M350.23,30.94 C355.57,30.94 359.5,28.28 359.5,22.56 L359.5,13.15 C359.5,7.62 355.56,4.76 350.23,4.76 C344.9,4.76 340.96,7.58 340.96,13.15 L340.96,22.57 C340.96,28.29 344.9,30.95 350.23,30.95 L350.23,30.94 Z" id="Shape" fill="#0A3049"></path>
                <path d="M377,1.16 L377.32,0.85 L387.22,0.85 C393.51,0.85 399.92,2.85 399.92,10.5 C399.92,20.28 389.56,20.73 389.56,20.73 L391.56,22.61 L396.9,28.46 C397.807445,29.641511 399.182876,30.3711828 400.67,30.46 C401.074519,30.4670684 401.478995,30.4436689 401.88,30.39 L402.13,30.71 L401.43,34.71 L401,35 C400.538735,35.0541662 400.074374,35.0775513 399.61,35.07 C396.56,35.07 393.89,32.78 392.18,30.81 L383.86,21.39 L383.42,21.14 L382.15,21.14 L382.15,34.57 L381.83,34.89 L377.25,34.89 L376.93,34.57 L377,1.16 Z M387.16,16.59 C390.93,16.59 394.78,15.13 394.78,10.81 C394.78,6.49 391.01,5.28 387.16,5.28 L382.16,5.28 L382.16,16.58 L387.16,16.59 Z" id="Shape" fill="#0A3049"></path>
                <path d="M412.73,1.16 L413.05,0.85 L425.43,0.85 C434.07,0.85 439.91,5.29 439.91,13.55 L439.91,22.32 C439.91,30.58 434.06,34.9 425.43,34.9 L413,34.9 L412.68,34.58 L412.73,1.16 Z M425.43,30.16 C430.77,30.16 434.64,27.5 434.64,21.84 L434.64,13.93 C434.64,8.4 430.77,5.55 425.43,5.55 L417.9,5.55 L417.9,30.19 L425.43,30.16 Z" id="Shape" fill="#0A3049"></path>
                <path d="M447.72,32 L450.13,28.54 L450.7,28.47 C452.935783,29.9527733 455.547719,30.7679194 458.23,30.82 C461.91,30.82 465.03,29.43 465.03,25.48 C465.03,17.85 448.83,21.35 448.83,10.05 C448.83,3.83 453.98,0.05 459.95,0.05 C463.380514,-0.0338010429 466.760187,0.891088785 469.67,2.71 L469.74,3.15 L467.33,6.58 L466.82,6.65 C464.865434,5.36818305 462.566678,4.71239211 460.23,4.77 C456.1,4.77 454.23,6.87 454.23,9.77 C454.23,16.57 470.36,13.77 470.36,25.33 C470.36,33.08 463.77,35.49 458.12,35.49 C454.469703,35.3637909 450.918513,34.2697898 447.83,32.32 L447.72,32 Z" id="Path" fill="#0A3049"></path>
            </g>
        </g>
    </g>
</svg>